%TF.GenerationSoftware,KiCad,Pcbnew,7.0.8*%
%TF.CreationDate,2024-06-20T15:13:37-04:00*%
%TF.ProjectId,P2,50322e6b-6963-4616-945f-706362585858,rev?*%
%TF.SameCoordinates,Original*%
%TF.FileFunction,Soldermask,Bot*%
%TF.FilePolarity,Negative*%
%FSLAX46Y46*%
G04 Gerber Fmt 4.6, Leading zero omitted, Abs format (unit mm)*
G04 Created by KiCad (PCBNEW 7.0.8) date 2024-06-20 15:13:37*
%MOMM*%
%LPD*%
G01*
G04 APERTURE LIST*
%ADD10C,0.800000*%
%ADD11C,6.400000*%
%ADD12R,1.700000X1.700000*%
%ADD13O,1.700000X1.700000*%
%ADD14C,4.000000*%
G04 APERTURE END LIST*
D10*
%TO.C,H6*%
X159766000Y-132982000D03*
X161463056Y-137079056D03*
X161463056Y-133684944D03*
X162166000Y-135382000D03*
D11*
X159766000Y-135382000D03*
D10*
X159766000Y-137782000D03*
X158068944Y-133684944D03*
X158068944Y-137079056D03*
X157366000Y-135382000D03*
%TD*%
%TO.C,H5*%
X139954000Y-132982000D03*
X141651056Y-137079056D03*
X141651056Y-133684944D03*
X142354000Y-135382000D03*
D11*
X139954000Y-135382000D03*
D10*
X139954000Y-137782000D03*
X138256944Y-133684944D03*
X138256944Y-137079056D03*
X137554000Y-135382000D03*
%TD*%
D12*
%TO.C,MPU-9250-Breakout1*%
X161290000Y-123952000D03*
D13*
X158750000Y-123952000D03*
X156210000Y-123952000D03*
X153670000Y-123952000D03*
X151130000Y-123952000D03*
X148590000Y-123952000D03*
X146050000Y-123952000D03*
X143510000Y-123952000D03*
X140970000Y-123952000D03*
X138430000Y-123952000D03*
%TD*%
%TO.C,U1*%
X140970000Y-42164000D03*
X140970000Y-44704000D03*
D12*
X140970000Y-47244000D03*
D13*
X140970000Y-49784000D03*
X140970000Y-52324000D03*
X140970000Y-54864000D03*
X140970000Y-57404000D03*
D12*
X140970000Y-59944000D03*
D13*
X140970000Y-62484000D03*
X140970000Y-65024000D03*
X140970000Y-67564000D03*
X140970000Y-70104000D03*
D12*
X140970000Y-72644000D03*
D13*
X140970000Y-75184000D03*
X140970000Y-77724000D03*
X140970000Y-80264000D03*
X140970000Y-82804000D03*
D12*
X140970000Y-85344000D03*
D13*
X140970000Y-87884000D03*
X140970000Y-90424000D03*
X158750000Y-90424000D03*
X158750000Y-87884000D03*
D12*
X158750000Y-85344000D03*
D13*
X158750000Y-82804000D03*
X158750000Y-80264000D03*
X158750000Y-77724000D03*
X158750000Y-75184000D03*
D12*
X158750000Y-72644000D03*
D13*
X158750000Y-70104000D03*
X158750000Y-67564000D03*
X158750000Y-65024000D03*
X158750000Y-62484000D03*
D12*
X158750000Y-59944000D03*
D13*
X158750000Y-57404000D03*
X158750000Y-54864000D03*
X158750000Y-52324000D03*
X158750000Y-49784000D03*
D12*
X158750000Y-47244000D03*
D13*
X158750000Y-44704000D03*
X158750000Y-42164000D03*
%TD*%
D14*
%TO.C,H3*%
X159860000Y-116040000D03*
%TD*%
%TO.C,H4*%
X139860000Y-116040000D03*
%TD*%
D12*
%TO.C,UART0*%
X145288000Y-34798000D03*
D13*
X142748000Y-34798000D03*
X140208000Y-34798000D03*
%TD*%
D14*
%TO.C,H1*%
X159860000Y-96040000D03*
%TD*%
%TO.C,H2*%
X139860000Y-96040000D03*
%TD*%
M02*
