%TF.GenerationSoftware,KiCad,Pcbnew,7.0.8*%
%TF.CreationDate,2024-02-25T19:39:46-05:00*%
%TF.ProjectId,P2,50322e6b-6963-4616-945f-706362585858,rev?*%
%TF.SameCoordinates,Original*%
%TF.FileFunction,Soldermask,Bot*%
%TF.FilePolarity,Negative*%
%FSLAX46Y46*%
G04 Gerber Fmt 4.6, Leading zero omitted, Abs format (unit mm)*
G04 Created by KiCad (PCBNEW 7.0.8) date 2024-02-25 19:39:46*
%MOMM*%
%LPD*%
G01*
G04 APERTURE LIST*
%ADD10O,1.700000X1.700000*%
%ADD11R,1.700000X1.700000*%
%ADD12C,2.200000*%
G04 APERTURE END LIST*
D10*
%TO.C,U1*%
X140970000Y-42164000D03*
X140970000Y-44704000D03*
D11*
X140970000Y-47244000D03*
D10*
X140970000Y-49784000D03*
X140970000Y-52324000D03*
X140970000Y-54864000D03*
X140970000Y-57404000D03*
D11*
X140970000Y-59944000D03*
D10*
X140970000Y-62484000D03*
X140970000Y-65024000D03*
X140970000Y-67564000D03*
X140970000Y-70104000D03*
D11*
X140970000Y-72644000D03*
D10*
X140970000Y-75184000D03*
X140970000Y-77724000D03*
X140970000Y-80264000D03*
X140970000Y-82804000D03*
D11*
X140970000Y-85344000D03*
D10*
X140970000Y-87884000D03*
X140970000Y-90424000D03*
X158750000Y-90424000D03*
X158750000Y-87884000D03*
D11*
X158750000Y-85344000D03*
D10*
X158750000Y-82804000D03*
X158750000Y-80264000D03*
X158750000Y-77724000D03*
X158750000Y-75184000D03*
D11*
X158750000Y-72644000D03*
D10*
X158750000Y-70104000D03*
X158750000Y-67564000D03*
X158750000Y-65024000D03*
X158750000Y-62484000D03*
D11*
X158750000Y-59944000D03*
D10*
X158750000Y-57404000D03*
X158750000Y-54864000D03*
X158750000Y-52324000D03*
X158750000Y-49784000D03*
D11*
X158750000Y-47244000D03*
D10*
X158750000Y-44704000D03*
X158750000Y-42164000D03*
%TD*%
D12*
%TO.C,H3*%
X159860000Y-116040000D03*
%TD*%
%TO.C,H4*%
X139860000Y-116040000D03*
%TD*%
%TO.C,H1*%
X159860000Y-96040000D03*
%TD*%
D11*
%TO.C,MPU-9250-Breakout1*%
X161290000Y-123952000D03*
D10*
X158750000Y-123952000D03*
X156210000Y-123952000D03*
X153670000Y-123952000D03*
X151130000Y-123952000D03*
X148590000Y-123952000D03*
X146050000Y-123952000D03*
X143510000Y-123952000D03*
X140970000Y-123952000D03*
X138430000Y-123952000D03*
%TD*%
D12*
%TO.C,H2*%
X139860000Y-96040000D03*
%TD*%
M02*
