%TF.GenerationSoftware,KiCad,Pcbnew,7.0.8*%
%TF.CreationDate,2024-02-25T19:39:46-05:00*%
%TF.ProjectId,P2,50322e6b-6963-4616-945f-706362585858,rev?*%
%TF.SameCoordinates,Original*%
%TF.FileFunction,Legend,Top*%
%TF.FilePolarity,Positive*%
%FSLAX46Y46*%
G04 Gerber Fmt 4.6, Leading zero omitted, Abs format (unit mm)*
G04 Created by KiCad (PCBNEW 7.0.8) date 2024-02-25 19:39:46*
%MOMM*%
%LPD*%
G01*
G04 APERTURE LIST*
%ADD10C,0.150000*%
%ADD11C,0.100000*%
%ADD12C,0.120000*%
%ADD13C,0.200000*%
G04 APERTURE END LIST*
D10*
X150974588Y-116519438D02*
X150879350Y-116471819D01*
X150879350Y-116471819D02*
X150736493Y-116471819D01*
X150736493Y-116471819D02*
X150593636Y-116519438D01*
X150593636Y-116519438D02*
X150498398Y-116614676D01*
X150498398Y-116614676D02*
X150450779Y-116709914D01*
X150450779Y-116709914D02*
X150403160Y-116900390D01*
X150403160Y-116900390D02*
X150403160Y-117043247D01*
X150403160Y-117043247D02*
X150450779Y-117233723D01*
X150450779Y-117233723D02*
X150498398Y-117328961D01*
X150498398Y-117328961D02*
X150593636Y-117424200D01*
X150593636Y-117424200D02*
X150736493Y-117471819D01*
X150736493Y-117471819D02*
X150831731Y-117471819D01*
X150831731Y-117471819D02*
X150974588Y-117424200D01*
X150974588Y-117424200D02*
X151022207Y-117376580D01*
X151022207Y-117376580D02*
X151022207Y-117043247D01*
X151022207Y-117043247D02*
X150831731Y-117043247D01*
X151450779Y-117471819D02*
X151450779Y-116471819D01*
X151450779Y-116471819D02*
X152022207Y-117471819D01*
X152022207Y-117471819D02*
X152022207Y-116471819D01*
X152498398Y-117471819D02*
X152498398Y-116471819D01*
X152498398Y-116471819D02*
X152736493Y-116471819D01*
X152736493Y-116471819D02*
X152879350Y-116519438D01*
X152879350Y-116519438D02*
X152974588Y-116614676D01*
X152974588Y-116614676D02*
X153022207Y-116709914D01*
X153022207Y-116709914D02*
X153069826Y-116900390D01*
X153069826Y-116900390D02*
X153069826Y-117043247D01*
X153069826Y-117043247D02*
X153022207Y-117233723D01*
X153022207Y-117233723D02*
X152974588Y-117328961D01*
X152974588Y-117328961D02*
X152879350Y-117424200D01*
X152879350Y-117424200D02*
X152736493Y-117471819D01*
X152736493Y-117471819D02*
X152498398Y-117471819D01*
X157816779Y-109343819D02*
X157816779Y-108343819D01*
X157816779Y-108343819D02*
X158197731Y-108343819D01*
X158197731Y-108343819D02*
X158292969Y-108391438D01*
X158292969Y-108391438D02*
X158340588Y-108439057D01*
X158340588Y-108439057D02*
X158388207Y-108534295D01*
X158388207Y-108534295D02*
X158388207Y-108677152D01*
X158388207Y-108677152D02*
X158340588Y-108772390D01*
X158340588Y-108772390D02*
X158292969Y-108820009D01*
X158292969Y-108820009D02*
X158197731Y-108867628D01*
X158197731Y-108867628D02*
X157816779Y-108867628D01*
X158721541Y-108343819D02*
X158959636Y-109343819D01*
X158959636Y-109343819D02*
X159150112Y-108629533D01*
X159150112Y-108629533D02*
X159340588Y-109343819D01*
X159340588Y-109343819D02*
X159578684Y-108343819D01*
X159959636Y-109343819D02*
X159959636Y-108343819D01*
X159959636Y-108343819D02*
X160292969Y-109058104D01*
X160292969Y-109058104D02*
X160626302Y-108343819D01*
X160626302Y-108343819D02*
X160626302Y-109343819D01*
X160864398Y-109439057D02*
X161626302Y-109439057D01*
X161864398Y-109343819D02*
X161864398Y-108343819D01*
X161864398Y-108343819D02*
X162102493Y-108343819D01*
X162102493Y-108343819D02*
X162245350Y-108391438D01*
X162245350Y-108391438D02*
X162340588Y-108486676D01*
X162340588Y-108486676D02*
X162388207Y-108581914D01*
X162388207Y-108581914D02*
X162435826Y-108772390D01*
X162435826Y-108772390D02*
X162435826Y-108915247D01*
X162435826Y-108915247D02*
X162388207Y-109105723D01*
X162388207Y-109105723D02*
X162340588Y-109200961D01*
X162340588Y-109200961D02*
X162245350Y-109296200D01*
X162245350Y-109296200D02*
X162102493Y-109343819D01*
X162102493Y-109343819D02*
X161864398Y-109343819D01*
X149514112Y-113646009D02*
X149656969Y-113693628D01*
X149656969Y-113693628D02*
X149704588Y-113741247D01*
X149704588Y-113741247D02*
X149752207Y-113836485D01*
X149752207Y-113836485D02*
X149752207Y-113979342D01*
X149752207Y-113979342D02*
X149704588Y-114074580D01*
X149704588Y-114074580D02*
X149656969Y-114122200D01*
X149656969Y-114122200D02*
X149561731Y-114169819D01*
X149561731Y-114169819D02*
X149180779Y-114169819D01*
X149180779Y-114169819D02*
X149180779Y-113169819D01*
X149180779Y-113169819D02*
X149514112Y-113169819D01*
X149514112Y-113169819D02*
X149609350Y-113217438D01*
X149609350Y-113217438D02*
X149656969Y-113265057D01*
X149656969Y-113265057D02*
X149704588Y-113360295D01*
X149704588Y-113360295D02*
X149704588Y-113455533D01*
X149704588Y-113455533D02*
X149656969Y-113550771D01*
X149656969Y-113550771D02*
X149609350Y-113598390D01*
X149609350Y-113598390D02*
X149514112Y-113646009D01*
X149514112Y-113646009D02*
X149180779Y-113646009D01*
X150133160Y-113884104D02*
X150609350Y-113884104D01*
X150037922Y-114169819D02*
X150371255Y-113169819D01*
X150371255Y-113169819D02*
X150704588Y-114169819D01*
X150895065Y-113169819D02*
X151466493Y-113169819D01*
X151180779Y-114169819D02*
X151180779Y-113169819D01*
X151799827Y-113788866D02*
X152561732Y-113788866D01*
X152180779Y-114169819D02*
X152180779Y-113407914D01*
X157816779Y-100199819D02*
X157816779Y-99199819D01*
X157816779Y-99199819D02*
X158197731Y-99199819D01*
X158197731Y-99199819D02*
X158292969Y-99247438D01*
X158292969Y-99247438D02*
X158340588Y-99295057D01*
X158340588Y-99295057D02*
X158388207Y-99390295D01*
X158388207Y-99390295D02*
X158388207Y-99533152D01*
X158388207Y-99533152D02*
X158340588Y-99628390D01*
X158340588Y-99628390D02*
X158292969Y-99676009D01*
X158292969Y-99676009D02*
X158197731Y-99723628D01*
X158197731Y-99723628D02*
X157816779Y-99723628D01*
X158721541Y-99199819D02*
X158959636Y-100199819D01*
X158959636Y-100199819D02*
X159150112Y-99485533D01*
X159150112Y-99485533D02*
X159340588Y-100199819D01*
X159340588Y-100199819D02*
X159578684Y-99199819D01*
X159959636Y-100199819D02*
X159959636Y-99199819D01*
X159959636Y-99199819D02*
X160292969Y-99914104D01*
X160292969Y-99914104D02*
X160626302Y-99199819D01*
X160626302Y-99199819D02*
X160626302Y-100199819D01*
X160864398Y-100295057D02*
X161626302Y-100295057D01*
X161816779Y-99914104D02*
X162292969Y-99914104D01*
X161721541Y-100199819D02*
X162054874Y-99199819D01*
X162054874Y-99199819D02*
X162388207Y-100199819D01*
X151253819Y-37953792D02*
X150777628Y-38287125D01*
X151253819Y-38525220D02*
X150253819Y-38525220D01*
X150253819Y-38525220D02*
X150253819Y-38144268D01*
X150253819Y-38144268D02*
X150301438Y-38049030D01*
X150301438Y-38049030D02*
X150349057Y-38001411D01*
X150349057Y-38001411D02*
X150444295Y-37953792D01*
X150444295Y-37953792D02*
X150587152Y-37953792D01*
X150587152Y-37953792D02*
X150682390Y-38001411D01*
X150682390Y-38001411D02*
X150730009Y-38049030D01*
X150730009Y-38049030D02*
X150777628Y-38144268D01*
X150777628Y-38144268D02*
X150777628Y-38525220D01*
X150253819Y-37620458D02*
X151253819Y-36953792D01*
X150253819Y-36953792D02*
X151253819Y-37620458D01*
X157816779Y-103501819D02*
X157816779Y-102501819D01*
X157816779Y-102501819D02*
X158197731Y-102501819D01*
X158197731Y-102501819D02*
X158292969Y-102549438D01*
X158292969Y-102549438D02*
X158340588Y-102597057D01*
X158340588Y-102597057D02*
X158388207Y-102692295D01*
X158388207Y-102692295D02*
X158388207Y-102835152D01*
X158388207Y-102835152D02*
X158340588Y-102930390D01*
X158340588Y-102930390D02*
X158292969Y-102978009D01*
X158292969Y-102978009D02*
X158197731Y-103025628D01*
X158197731Y-103025628D02*
X157816779Y-103025628D01*
X158721541Y-102501819D02*
X158959636Y-103501819D01*
X158959636Y-103501819D02*
X159150112Y-102787533D01*
X159150112Y-102787533D02*
X159340588Y-103501819D01*
X159340588Y-103501819D02*
X159578684Y-102501819D01*
X159959636Y-103501819D02*
X159959636Y-102501819D01*
X159959636Y-102501819D02*
X160292969Y-103216104D01*
X160292969Y-103216104D02*
X160626302Y-102501819D01*
X160626302Y-102501819D02*
X160626302Y-103501819D01*
X160864398Y-103597057D02*
X161626302Y-103597057D01*
X162197731Y-102978009D02*
X162340588Y-103025628D01*
X162340588Y-103025628D02*
X162388207Y-103073247D01*
X162388207Y-103073247D02*
X162435826Y-103168485D01*
X162435826Y-103168485D02*
X162435826Y-103311342D01*
X162435826Y-103311342D02*
X162388207Y-103406580D01*
X162388207Y-103406580D02*
X162340588Y-103454200D01*
X162340588Y-103454200D02*
X162245350Y-103501819D01*
X162245350Y-103501819D02*
X161864398Y-103501819D01*
X161864398Y-103501819D02*
X161864398Y-102501819D01*
X161864398Y-102501819D02*
X162197731Y-102501819D01*
X162197731Y-102501819D02*
X162292969Y-102549438D01*
X162292969Y-102549438D02*
X162340588Y-102597057D01*
X162340588Y-102597057D02*
X162388207Y-102692295D01*
X162388207Y-102692295D02*
X162388207Y-102787533D01*
X162388207Y-102787533D02*
X162340588Y-102882771D01*
X162340588Y-102882771D02*
X162292969Y-102930390D01*
X162292969Y-102930390D02*
X162197731Y-102978009D01*
X162197731Y-102978009D02*
X161864398Y-102978009D01*
X153809819Y-38668077D02*
X153809819Y-38096649D01*
X154809819Y-38382363D02*
X153809819Y-38382363D01*
X153809819Y-37858553D02*
X154809819Y-37191887D01*
X153809819Y-37191887D02*
X154809819Y-37858553D01*
X160921819Y-39430077D02*
X161921819Y-39096744D01*
X161921819Y-39096744D02*
X160921819Y-38763411D01*
X161826580Y-37858649D02*
X161874200Y-37906268D01*
X161874200Y-37906268D02*
X161921819Y-38049125D01*
X161921819Y-38049125D02*
X161921819Y-38144363D01*
X161921819Y-38144363D02*
X161874200Y-38287220D01*
X161874200Y-38287220D02*
X161778961Y-38382458D01*
X161778961Y-38382458D02*
X161683723Y-38430077D01*
X161683723Y-38430077D02*
X161493247Y-38477696D01*
X161493247Y-38477696D02*
X161350390Y-38477696D01*
X161350390Y-38477696D02*
X161159914Y-38430077D01*
X161159914Y-38430077D02*
X161064676Y-38382458D01*
X161064676Y-38382458D02*
X160969438Y-38287220D01*
X160969438Y-38287220D02*
X160921819Y-38144363D01*
X160921819Y-38144363D02*
X160921819Y-38049125D01*
X160921819Y-38049125D02*
X160969438Y-37906268D01*
X160969438Y-37906268D02*
X161017057Y-37858649D01*
X161826580Y-36858649D02*
X161874200Y-36906268D01*
X161874200Y-36906268D02*
X161921819Y-37049125D01*
X161921819Y-37049125D02*
X161921819Y-37144363D01*
X161921819Y-37144363D02*
X161874200Y-37287220D01*
X161874200Y-37287220D02*
X161778961Y-37382458D01*
X161778961Y-37382458D02*
X161683723Y-37430077D01*
X161683723Y-37430077D02*
X161493247Y-37477696D01*
X161493247Y-37477696D02*
X161350390Y-37477696D01*
X161350390Y-37477696D02*
X161159914Y-37430077D01*
X161159914Y-37430077D02*
X161064676Y-37382458D01*
X161064676Y-37382458D02*
X160969438Y-37287220D01*
X160969438Y-37287220D02*
X160921819Y-37144363D01*
X160921819Y-37144363D02*
X160921819Y-37049125D01*
X160921819Y-37049125D02*
X160969438Y-36906268D01*
X160969438Y-36906268D02*
X161017057Y-36858649D01*
X157816779Y-106549819D02*
X157816779Y-105549819D01*
X157816779Y-105549819D02*
X158197731Y-105549819D01*
X158197731Y-105549819D02*
X158292969Y-105597438D01*
X158292969Y-105597438D02*
X158340588Y-105645057D01*
X158340588Y-105645057D02*
X158388207Y-105740295D01*
X158388207Y-105740295D02*
X158388207Y-105883152D01*
X158388207Y-105883152D02*
X158340588Y-105978390D01*
X158340588Y-105978390D02*
X158292969Y-106026009D01*
X158292969Y-106026009D02*
X158197731Y-106073628D01*
X158197731Y-106073628D02*
X157816779Y-106073628D01*
X158721541Y-105549819D02*
X158959636Y-106549819D01*
X158959636Y-106549819D02*
X159150112Y-105835533D01*
X159150112Y-105835533D02*
X159340588Y-106549819D01*
X159340588Y-106549819D02*
X159578684Y-105549819D01*
X159959636Y-106549819D02*
X159959636Y-105549819D01*
X159959636Y-105549819D02*
X160292969Y-106264104D01*
X160292969Y-106264104D02*
X160626302Y-105549819D01*
X160626302Y-105549819D02*
X160626302Y-106549819D01*
X160864398Y-106645057D02*
X161626302Y-106645057D01*
X162435826Y-106454580D02*
X162388207Y-106502200D01*
X162388207Y-106502200D02*
X162245350Y-106549819D01*
X162245350Y-106549819D02*
X162150112Y-106549819D01*
X162150112Y-106549819D02*
X162007255Y-106502200D01*
X162007255Y-106502200D02*
X161912017Y-106406961D01*
X161912017Y-106406961D02*
X161864398Y-106311723D01*
X161864398Y-106311723D02*
X161816779Y-106121247D01*
X161816779Y-106121247D02*
X161816779Y-105978390D01*
X161816779Y-105978390D02*
X161864398Y-105787914D01*
X161864398Y-105787914D02*
X161912017Y-105692676D01*
X161912017Y-105692676D02*
X162007255Y-105597438D01*
X162007255Y-105597438D02*
X162150112Y-105549819D01*
X162150112Y-105549819D02*
X162245350Y-105549819D01*
X162245350Y-105549819D02*
X162388207Y-105597438D01*
X162388207Y-105597438D02*
X162435826Y-105645057D01*
X158175438Y-39017411D02*
X158127819Y-39112649D01*
X158127819Y-39112649D02*
X158127819Y-39255506D01*
X158127819Y-39255506D02*
X158175438Y-39398363D01*
X158175438Y-39398363D02*
X158270676Y-39493601D01*
X158270676Y-39493601D02*
X158365914Y-39541220D01*
X158365914Y-39541220D02*
X158556390Y-39588839D01*
X158556390Y-39588839D02*
X158699247Y-39588839D01*
X158699247Y-39588839D02*
X158889723Y-39541220D01*
X158889723Y-39541220D02*
X158984961Y-39493601D01*
X158984961Y-39493601D02*
X159080200Y-39398363D01*
X159080200Y-39398363D02*
X159127819Y-39255506D01*
X159127819Y-39255506D02*
X159127819Y-39160268D01*
X159127819Y-39160268D02*
X159080200Y-39017411D01*
X159080200Y-39017411D02*
X159032580Y-38969792D01*
X159032580Y-38969792D02*
X158699247Y-38969792D01*
X158699247Y-38969792D02*
X158699247Y-39160268D01*
X159127819Y-38541220D02*
X158127819Y-38541220D01*
X158127819Y-38541220D02*
X159127819Y-37969792D01*
X159127819Y-37969792D02*
X158127819Y-37969792D01*
X159127819Y-37493601D02*
X158127819Y-37493601D01*
X158127819Y-37493601D02*
X158127819Y-37255506D01*
X158127819Y-37255506D02*
X158175438Y-37112649D01*
X158175438Y-37112649D02*
X158270676Y-37017411D01*
X158270676Y-37017411D02*
X158365914Y-36969792D01*
X158365914Y-36969792D02*
X158556390Y-36922173D01*
X158556390Y-36922173D02*
X158699247Y-36922173D01*
X158699247Y-36922173D02*
X158889723Y-36969792D01*
X158889723Y-36969792D02*
X158984961Y-37017411D01*
X158984961Y-37017411D02*
X159080200Y-37112649D01*
X159080200Y-37112649D02*
X159127819Y-37255506D01*
X159127819Y-37255506D02*
X159127819Y-37493601D01*
X157673922Y-111391819D02*
X158245350Y-111391819D01*
X157959636Y-112391819D02*
X157959636Y-111391819D01*
X158578684Y-111868009D02*
X158912017Y-111868009D01*
X159054874Y-112391819D02*
X158578684Y-112391819D01*
X158578684Y-112391819D02*
X158578684Y-111391819D01*
X158578684Y-111391819D02*
X159054874Y-111391819D01*
X144387333Y-101803580D02*
X144339714Y-101851200D01*
X144339714Y-101851200D02*
X144196857Y-101898819D01*
X144196857Y-101898819D02*
X144101619Y-101898819D01*
X144101619Y-101898819D02*
X143958762Y-101851200D01*
X143958762Y-101851200D02*
X143863524Y-101755961D01*
X143863524Y-101755961D02*
X143815905Y-101660723D01*
X143815905Y-101660723D02*
X143768286Y-101470247D01*
X143768286Y-101470247D02*
X143768286Y-101327390D01*
X143768286Y-101327390D02*
X143815905Y-101136914D01*
X143815905Y-101136914D02*
X143863524Y-101041676D01*
X143863524Y-101041676D02*
X143958762Y-100946438D01*
X143958762Y-100946438D02*
X144101619Y-100898819D01*
X144101619Y-100898819D02*
X144196857Y-100898819D01*
X144196857Y-100898819D02*
X144339714Y-100946438D01*
X144339714Y-100946438D02*
X144387333Y-100994057D01*
X144720667Y-100898819D02*
X145339714Y-100898819D01*
X145339714Y-100898819D02*
X145006381Y-101279771D01*
X145006381Y-101279771D02*
X145149238Y-101279771D01*
X145149238Y-101279771D02*
X145244476Y-101327390D01*
X145244476Y-101327390D02*
X145292095Y-101375009D01*
X145292095Y-101375009D02*
X145339714Y-101470247D01*
X145339714Y-101470247D02*
X145339714Y-101708342D01*
X145339714Y-101708342D02*
X145292095Y-101803580D01*
X145292095Y-101803580D02*
X145244476Y-101851200D01*
X145244476Y-101851200D02*
X145149238Y-101898819D01*
X145149238Y-101898819D02*
X144863524Y-101898819D01*
X144863524Y-101898819D02*
X144768286Y-101851200D01*
X144768286Y-101851200D02*
X144720667Y-101803580D01*
X146711333Y-110947580D02*
X146663714Y-110995200D01*
X146663714Y-110995200D02*
X146520857Y-111042819D01*
X146520857Y-111042819D02*
X146425619Y-111042819D01*
X146425619Y-111042819D02*
X146282762Y-110995200D01*
X146282762Y-110995200D02*
X146187524Y-110899961D01*
X146187524Y-110899961D02*
X146139905Y-110804723D01*
X146139905Y-110804723D02*
X146092286Y-110614247D01*
X146092286Y-110614247D02*
X146092286Y-110471390D01*
X146092286Y-110471390D02*
X146139905Y-110280914D01*
X146139905Y-110280914D02*
X146187524Y-110185676D01*
X146187524Y-110185676D02*
X146282762Y-110090438D01*
X146282762Y-110090438D02*
X146425619Y-110042819D01*
X146425619Y-110042819D02*
X146520857Y-110042819D01*
X146520857Y-110042819D02*
X146663714Y-110090438D01*
X146663714Y-110090438D02*
X146711333Y-110138057D01*
X147092286Y-110138057D02*
X147139905Y-110090438D01*
X147139905Y-110090438D02*
X147235143Y-110042819D01*
X147235143Y-110042819D02*
X147473238Y-110042819D01*
X147473238Y-110042819D02*
X147568476Y-110090438D01*
X147568476Y-110090438D02*
X147616095Y-110138057D01*
X147616095Y-110138057D02*
X147663714Y-110233295D01*
X147663714Y-110233295D02*
X147663714Y-110328533D01*
X147663714Y-110328533D02*
X147616095Y-110471390D01*
X147616095Y-110471390D02*
X147044667Y-111042819D01*
X147044667Y-111042819D02*
X147663714Y-111042819D01*
X138646819Y-39869904D02*
X138646819Y-39298476D01*
X139646819Y-39584190D02*
X138646819Y-39584190D01*
X139646819Y-38965142D02*
X138646819Y-38965142D01*
X138646819Y-38965142D02*
X138646819Y-38584190D01*
X138646819Y-38584190D02*
X138694438Y-38488952D01*
X138694438Y-38488952D02*
X138742057Y-38441333D01*
X138742057Y-38441333D02*
X138837295Y-38393714D01*
X138837295Y-38393714D02*
X138980152Y-38393714D01*
X138980152Y-38393714D02*
X139075390Y-38441333D01*
X139075390Y-38441333D02*
X139123009Y-38488952D01*
X139123009Y-38488952D02*
X139170628Y-38584190D01*
X139170628Y-38584190D02*
X139170628Y-38965142D01*
X139646819Y-37441333D02*
X139646819Y-38012761D01*
X139646819Y-37727047D02*
X138646819Y-37727047D01*
X138646819Y-37727047D02*
X138789676Y-37822285D01*
X138789676Y-37822285D02*
X138884914Y-37917523D01*
X138884914Y-37917523D02*
X138932533Y-38012761D01*
X149209333Y-101086819D02*
X148733143Y-101086819D01*
X148733143Y-101086819D02*
X148733143Y-100086819D01*
X150066476Y-101086819D02*
X149495048Y-101086819D01*
X149780762Y-101086819D02*
X149780762Y-100086819D01*
X149780762Y-100086819D02*
X149685524Y-100229676D01*
X149685524Y-100229676D02*
X149590286Y-100324914D01*
X149590286Y-100324914D02*
X149495048Y-100372533D01*
X149098095Y-65748819D02*
X149098095Y-66558342D01*
X149098095Y-66558342D02*
X149145714Y-66653580D01*
X149145714Y-66653580D02*
X149193333Y-66701200D01*
X149193333Y-66701200D02*
X149288571Y-66748819D01*
X149288571Y-66748819D02*
X149479047Y-66748819D01*
X149479047Y-66748819D02*
X149574285Y-66701200D01*
X149574285Y-66701200D02*
X149621904Y-66653580D01*
X149621904Y-66653580D02*
X149669523Y-66558342D01*
X149669523Y-66558342D02*
X149669523Y-65748819D01*
X150669523Y-66748819D02*
X150098095Y-66748819D01*
X150383809Y-66748819D02*
X150383809Y-65748819D01*
X150383809Y-65748819D02*
X150288571Y-65891676D01*
X150288571Y-65891676D02*
X150193333Y-65986914D01*
X150193333Y-65986914D02*
X150098095Y-66034533D01*
X142407998Y-80400868D02*
X142327185Y-80427805D01*
X142327185Y-80427805D02*
X142246373Y-80508618D01*
X142246373Y-80508618D02*
X142192498Y-80616367D01*
X142192498Y-80616367D02*
X142192498Y-80724117D01*
X142192498Y-80724117D02*
X142219436Y-80804929D01*
X142219436Y-80804929D02*
X142300248Y-80939616D01*
X142300248Y-80939616D02*
X142381060Y-81020428D01*
X142381060Y-81020428D02*
X142515747Y-81101241D01*
X142515747Y-81101241D02*
X142596560Y-81128178D01*
X142596560Y-81128178D02*
X142704309Y-81128178D01*
X142704309Y-81128178D02*
X142812059Y-81074303D01*
X142812059Y-81074303D02*
X142865934Y-81020428D01*
X142865934Y-81020428D02*
X142919808Y-80912679D01*
X142919808Y-80912679D02*
X142919808Y-80858804D01*
X142919808Y-80858804D02*
X142731247Y-80670242D01*
X142731247Y-80670242D02*
X142623497Y-80777992D01*
X143216120Y-80670242D02*
X142650434Y-80104557D01*
X142650434Y-80104557D02*
X142865934Y-79889057D01*
X142865934Y-79889057D02*
X142946746Y-79862120D01*
X142946746Y-79862120D02*
X143000621Y-79862120D01*
X143000621Y-79862120D02*
X143081433Y-79889057D01*
X143081433Y-79889057D02*
X143162245Y-79969870D01*
X143162245Y-79969870D02*
X143189182Y-80050682D01*
X143189182Y-80050682D02*
X143189182Y-80104557D01*
X143189182Y-80104557D02*
X143162245Y-80185369D01*
X143162245Y-80185369D02*
X142946746Y-80400868D01*
X144078117Y-79808245D02*
X143754868Y-80131494D01*
X143916492Y-79969870D02*
X143350807Y-79404184D01*
X143350807Y-79404184D02*
X143377744Y-79538871D01*
X143377744Y-79538871D02*
X143377744Y-79646621D01*
X143377744Y-79646621D02*
X143350807Y-79727433D01*
X143781805Y-79080935D02*
X143781805Y-79027060D01*
X143781805Y-79027060D02*
X143808743Y-78946248D01*
X143808743Y-78946248D02*
X143943430Y-78811561D01*
X143943430Y-78811561D02*
X144024242Y-78784624D01*
X144024242Y-78784624D02*
X144078117Y-78784624D01*
X144078117Y-78784624D02*
X144158929Y-78811561D01*
X144158929Y-78811561D02*
X144212804Y-78865436D01*
X144212804Y-78865436D02*
X144266679Y-78973186D01*
X144266679Y-78973186D02*
X144266679Y-79619683D01*
X144266679Y-79619683D02*
X144616865Y-79269497D01*
X155084123Y-53020868D02*
X155434309Y-52670682D01*
X155434309Y-52670682D02*
X155461247Y-53074743D01*
X155461247Y-53074743D02*
X155542059Y-52993931D01*
X155542059Y-52993931D02*
X155622871Y-52966993D01*
X155622871Y-52966993D02*
X155676746Y-52966993D01*
X155676746Y-52966993D02*
X155757558Y-52993931D01*
X155757558Y-52993931D02*
X155892245Y-53128618D01*
X155892245Y-53128618D02*
X155919182Y-53209430D01*
X155919182Y-53209430D02*
X155919182Y-53263305D01*
X155919182Y-53263305D02*
X155892245Y-53344117D01*
X155892245Y-53344117D02*
X155730621Y-53505741D01*
X155730621Y-53505741D02*
X155649808Y-53532679D01*
X155649808Y-53532679D02*
X155595934Y-53532679D01*
X155595934Y-52509057D02*
X156350181Y-52886181D01*
X156350181Y-52886181D02*
X155973057Y-52131934D01*
X156107744Y-51997247D02*
X156457930Y-51647061D01*
X156457930Y-51647061D02*
X156484868Y-52051122D01*
X156484868Y-52051122D02*
X156565680Y-51970309D01*
X156565680Y-51970309D02*
X156646492Y-51943372D01*
X156646492Y-51943372D02*
X156700367Y-51943372D01*
X156700367Y-51943372D02*
X156781179Y-51970309D01*
X156781179Y-51970309D02*
X156915866Y-52104996D01*
X156915866Y-52104996D02*
X156942804Y-52185809D01*
X156942804Y-52185809D02*
X156942804Y-52239683D01*
X156942804Y-52239683D02*
X156915866Y-52320496D01*
X156915866Y-52320496D02*
X156754242Y-52482120D01*
X156754242Y-52482120D02*
X156673430Y-52509057D01*
X156673430Y-52509057D02*
X156619555Y-52509057D01*
X142977372Y-44561494D02*
X142896560Y-44588431D01*
X142896560Y-44588431D02*
X142815748Y-44669243D01*
X142815748Y-44669243D02*
X142761873Y-44776993D01*
X142761873Y-44776993D02*
X142761873Y-44884742D01*
X142761873Y-44884742D02*
X142788810Y-44965555D01*
X142788810Y-44965555D02*
X142869623Y-45100242D01*
X142869623Y-45100242D02*
X142950435Y-45181054D01*
X142950435Y-45181054D02*
X143085122Y-45261866D01*
X143085122Y-45261866D02*
X143165934Y-45288803D01*
X143165934Y-45288803D02*
X143273684Y-45288803D01*
X143273684Y-45288803D02*
X143381433Y-45234929D01*
X143381433Y-45234929D02*
X143435308Y-45181054D01*
X143435308Y-45181054D02*
X143489183Y-45073304D01*
X143489183Y-45073304D02*
X143489183Y-45019429D01*
X143489183Y-45019429D02*
X143300621Y-44830868D01*
X143300621Y-44830868D02*
X143192871Y-44938617D01*
X143785494Y-44830868D02*
X143219809Y-44265182D01*
X143219809Y-44265182D02*
X143435308Y-44049683D01*
X143435308Y-44049683D02*
X143516120Y-44022746D01*
X143516120Y-44022746D02*
X143569995Y-44022746D01*
X143569995Y-44022746D02*
X143650807Y-44049683D01*
X143650807Y-44049683D02*
X143731619Y-44130495D01*
X143731619Y-44130495D02*
X143758557Y-44211307D01*
X143758557Y-44211307D02*
X143758557Y-44265182D01*
X143758557Y-44265182D02*
X143731619Y-44345994D01*
X143731619Y-44345994D02*
X143516120Y-44561494D01*
X144647491Y-43968871D02*
X144324242Y-44292120D01*
X144485867Y-44130495D02*
X143920181Y-43564810D01*
X143920181Y-43564810D02*
X143947119Y-43699497D01*
X143947119Y-43699497D02*
X143947119Y-43807246D01*
X143947119Y-43807246D02*
X143920181Y-43888059D01*
X155037873Y-61543240D02*
X155307247Y-61273866D01*
X155145623Y-61758739D02*
X154768499Y-61004492D01*
X154768499Y-61004492D02*
X155522746Y-61381615D01*
X155468871Y-60357994D02*
X155388059Y-60384932D01*
X155388059Y-60384932D02*
X155307247Y-60465744D01*
X155307247Y-60465744D02*
X155253372Y-60573494D01*
X155253372Y-60573494D02*
X155253372Y-60681243D01*
X155253372Y-60681243D02*
X155280310Y-60762055D01*
X155280310Y-60762055D02*
X155361122Y-60896742D01*
X155361122Y-60896742D02*
X155441934Y-60977555D01*
X155441934Y-60977555D02*
X155576621Y-61058367D01*
X155576621Y-61058367D02*
X155657433Y-61085304D01*
X155657433Y-61085304D02*
X155765183Y-61085304D01*
X155765183Y-61085304D02*
X155872932Y-61031429D01*
X155872932Y-61031429D02*
X155926807Y-60977555D01*
X155926807Y-60977555D02*
X155980682Y-60869805D01*
X155980682Y-60869805D02*
X155980682Y-60815930D01*
X155980682Y-60815930D02*
X155792120Y-60627368D01*
X155792120Y-60627368D02*
X155684371Y-60735118D01*
X156276993Y-60627368D02*
X155711308Y-60061683D01*
X155711308Y-60061683D02*
X156600242Y-60304120D01*
X156600242Y-60304120D02*
X156034557Y-59738434D01*
X156869616Y-60034746D02*
X156303931Y-59469060D01*
X156303931Y-59469060D02*
X156438618Y-59334373D01*
X156438618Y-59334373D02*
X156546367Y-59280498D01*
X156546367Y-59280498D02*
X156654117Y-59280498D01*
X156654117Y-59280498D02*
X156734929Y-59307436D01*
X156734929Y-59307436D02*
X156869616Y-59388248D01*
X156869616Y-59388248D02*
X156950428Y-59469060D01*
X156950428Y-59469060D02*
X157031241Y-59603747D01*
X157031241Y-59603747D02*
X157058178Y-59684560D01*
X157058178Y-59684560D02*
X157058178Y-59792309D01*
X157058178Y-59792309D02*
X157004303Y-59900059D01*
X157004303Y-59900059D02*
X156869616Y-60034746D01*
X143077372Y-54731494D02*
X142996560Y-54758431D01*
X142996560Y-54758431D02*
X142915748Y-54839243D01*
X142915748Y-54839243D02*
X142861873Y-54946993D01*
X142861873Y-54946993D02*
X142861873Y-55054742D01*
X142861873Y-55054742D02*
X142888810Y-55135555D01*
X142888810Y-55135555D02*
X142969623Y-55270242D01*
X142969623Y-55270242D02*
X143050435Y-55351054D01*
X143050435Y-55351054D02*
X143185122Y-55431866D01*
X143185122Y-55431866D02*
X143265934Y-55458803D01*
X143265934Y-55458803D02*
X143373684Y-55458803D01*
X143373684Y-55458803D02*
X143481433Y-55404929D01*
X143481433Y-55404929D02*
X143535308Y-55351054D01*
X143535308Y-55351054D02*
X143589183Y-55243304D01*
X143589183Y-55243304D02*
X143589183Y-55189429D01*
X143589183Y-55189429D02*
X143400621Y-55000868D01*
X143400621Y-55000868D02*
X143292871Y-55108617D01*
X143885494Y-55000868D02*
X143319809Y-54435182D01*
X143319809Y-54435182D02*
X143535308Y-54219683D01*
X143535308Y-54219683D02*
X143616120Y-54192746D01*
X143616120Y-54192746D02*
X143669995Y-54192746D01*
X143669995Y-54192746D02*
X143750807Y-54219683D01*
X143750807Y-54219683D02*
X143831619Y-54300495D01*
X143831619Y-54300495D02*
X143858557Y-54381307D01*
X143858557Y-54381307D02*
X143858557Y-54435182D01*
X143858557Y-54435182D02*
X143831619Y-54515994D01*
X143831619Y-54515994D02*
X143616120Y-54731494D01*
X144316493Y-53815622D02*
X144693616Y-54192746D01*
X143966306Y-53734810D02*
X144235680Y-54273558D01*
X144235680Y-54273558D02*
X144585867Y-53923372D01*
X143077372Y-69971494D02*
X142996560Y-69998431D01*
X142996560Y-69998431D02*
X142915748Y-70079243D01*
X142915748Y-70079243D02*
X142861873Y-70186993D01*
X142861873Y-70186993D02*
X142861873Y-70294742D01*
X142861873Y-70294742D02*
X142888810Y-70375555D01*
X142888810Y-70375555D02*
X142969623Y-70510242D01*
X142969623Y-70510242D02*
X143050435Y-70591054D01*
X143050435Y-70591054D02*
X143185122Y-70671866D01*
X143185122Y-70671866D02*
X143265934Y-70698803D01*
X143265934Y-70698803D02*
X143373684Y-70698803D01*
X143373684Y-70698803D02*
X143481433Y-70644929D01*
X143481433Y-70644929D02*
X143535308Y-70591054D01*
X143535308Y-70591054D02*
X143589183Y-70483304D01*
X143589183Y-70483304D02*
X143589183Y-70429429D01*
X143589183Y-70429429D02*
X143400621Y-70240868D01*
X143400621Y-70240868D02*
X143292871Y-70348617D01*
X143885494Y-70240868D02*
X143319809Y-69675182D01*
X143319809Y-69675182D02*
X143535308Y-69459683D01*
X143535308Y-69459683D02*
X143616120Y-69432746D01*
X143616120Y-69432746D02*
X143669995Y-69432746D01*
X143669995Y-69432746D02*
X143750807Y-69459683D01*
X143750807Y-69459683D02*
X143831619Y-69540495D01*
X143831619Y-69540495D02*
X143858557Y-69621307D01*
X143858557Y-69621307D02*
X143858557Y-69675182D01*
X143858557Y-69675182D02*
X143831619Y-69755994D01*
X143831619Y-69755994D02*
X143616120Y-69971494D01*
X144478117Y-69648245D02*
X144585867Y-69540495D01*
X144585867Y-69540495D02*
X144612804Y-69459683D01*
X144612804Y-69459683D02*
X144612804Y-69405808D01*
X144612804Y-69405808D02*
X144585867Y-69271121D01*
X144585867Y-69271121D02*
X144505054Y-69136434D01*
X144505054Y-69136434D02*
X144289555Y-68920935D01*
X144289555Y-68920935D02*
X144208743Y-68893998D01*
X144208743Y-68893998D02*
X144154868Y-68893998D01*
X144154868Y-68893998D02*
X144074056Y-68920935D01*
X144074056Y-68920935D02*
X143966306Y-69028685D01*
X143966306Y-69028685D02*
X143939369Y-69109497D01*
X143939369Y-69109497D02*
X143939369Y-69163372D01*
X143939369Y-69163372D02*
X143966306Y-69244184D01*
X143966306Y-69244184D02*
X144100993Y-69378871D01*
X144100993Y-69378871D02*
X144181806Y-69405808D01*
X144181806Y-69405808D02*
X144235680Y-69405808D01*
X144235680Y-69405808D02*
X144316493Y-69378871D01*
X144316493Y-69378871D02*
X144424242Y-69271121D01*
X144424242Y-69271121D02*
X144451180Y-69190309D01*
X144451180Y-69190309D02*
X144451180Y-69136434D01*
X144451180Y-69136434D02*
X144424242Y-69055622D01*
X143077372Y-42031494D02*
X142996560Y-42058431D01*
X142996560Y-42058431D02*
X142915748Y-42139243D01*
X142915748Y-42139243D02*
X142861873Y-42246993D01*
X142861873Y-42246993D02*
X142861873Y-42354742D01*
X142861873Y-42354742D02*
X142888810Y-42435555D01*
X142888810Y-42435555D02*
X142969623Y-42570242D01*
X142969623Y-42570242D02*
X143050435Y-42651054D01*
X143050435Y-42651054D02*
X143185122Y-42731866D01*
X143185122Y-42731866D02*
X143265934Y-42758803D01*
X143265934Y-42758803D02*
X143373684Y-42758803D01*
X143373684Y-42758803D02*
X143481433Y-42704929D01*
X143481433Y-42704929D02*
X143535308Y-42651054D01*
X143535308Y-42651054D02*
X143589183Y-42543304D01*
X143589183Y-42543304D02*
X143589183Y-42489429D01*
X143589183Y-42489429D02*
X143400621Y-42300868D01*
X143400621Y-42300868D02*
X143292871Y-42408617D01*
X143885494Y-42300868D02*
X143319809Y-41735182D01*
X143319809Y-41735182D02*
X143535308Y-41519683D01*
X143535308Y-41519683D02*
X143616120Y-41492746D01*
X143616120Y-41492746D02*
X143669995Y-41492746D01*
X143669995Y-41492746D02*
X143750807Y-41519683D01*
X143750807Y-41519683D02*
X143831619Y-41600495D01*
X143831619Y-41600495D02*
X143858557Y-41681307D01*
X143858557Y-41681307D02*
X143858557Y-41735182D01*
X143858557Y-41735182D02*
X143831619Y-41815994D01*
X143831619Y-41815994D02*
X143616120Y-42031494D01*
X143993244Y-41061747D02*
X144047119Y-41007872D01*
X144047119Y-41007872D02*
X144127931Y-40980935D01*
X144127931Y-40980935D02*
X144181806Y-40980935D01*
X144181806Y-40980935D02*
X144262618Y-41007872D01*
X144262618Y-41007872D02*
X144397305Y-41088685D01*
X144397305Y-41088685D02*
X144531992Y-41223372D01*
X144531992Y-41223372D02*
X144612804Y-41358059D01*
X144612804Y-41358059D02*
X144639741Y-41438871D01*
X144639741Y-41438871D02*
X144639741Y-41492746D01*
X144639741Y-41492746D02*
X144612804Y-41573558D01*
X144612804Y-41573558D02*
X144558929Y-41627433D01*
X144558929Y-41627433D02*
X144478117Y-41654370D01*
X144478117Y-41654370D02*
X144424242Y-41654370D01*
X144424242Y-41654370D02*
X144343430Y-41627433D01*
X144343430Y-41627433D02*
X144208743Y-41546620D01*
X144208743Y-41546620D02*
X144074056Y-41411933D01*
X144074056Y-41411933D02*
X143993244Y-41277246D01*
X143993244Y-41277246D02*
X143966306Y-41196434D01*
X143966306Y-41196434D02*
X143966306Y-41142559D01*
X143966306Y-41142559D02*
X143993244Y-41061747D01*
X143077372Y-52191494D02*
X142996560Y-52218431D01*
X142996560Y-52218431D02*
X142915748Y-52299243D01*
X142915748Y-52299243D02*
X142861873Y-52406993D01*
X142861873Y-52406993D02*
X142861873Y-52514742D01*
X142861873Y-52514742D02*
X142888810Y-52595555D01*
X142888810Y-52595555D02*
X142969623Y-52730242D01*
X142969623Y-52730242D02*
X143050435Y-52811054D01*
X143050435Y-52811054D02*
X143185122Y-52891866D01*
X143185122Y-52891866D02*
X143265934Y-52918803D01*
X143265934Y-52918803D02*
X143373684Y-52918803D01*
X143373684Y-52918803D02*
X143481433Y-52864929D01*
X143481433Y-52864929D02*
X143535308Y-52811054D01*
X143535308Y-52811054D02*
X143589183Y-52703304D01*
X143589183Y-52703304D02*
X143589183Y-52649429D01*
X143589183Y-52649429D02*
X143400621Y-52460868D01*
X143400621Y-52460868D02*
X143292871Y-52568617D01*
X143885494Y-52460868D02*
X143319809Y-51895182D01*
X143319809Y-51895182D02*
X143535308Y-51679683D01*
X143535308Y-51679683D02*
X143616120Y-51652746D01*
X143616120Y-51652746D02*
X143669995Y-51652746D01*
X143669995Y-51652746D02*
X143750807Y-51679683D01*
X143750807Y-51679683D02*
X143831619Y-51760495D01*
X143831619Y-51760495D02*
X143858557Y-51841307D01*
X143858557Y-51841307D02*
X143858557Y-51895182D01*
X143858557Y-51895182D02*
X143831619Y-51975994D01*
X143831619Y-51975994D02*
X143616120Y-52191494D01*
X143831619Y-51383372D02*
X144181806Y-51033185D01*
X144181806Y-51033185D02*
X144208743Y-51437246D01*
X144208743Y-51437246D02*
X144289555Y-51356434D01*
X144289555Y-51356434D02*
X144370367Y-51329497D01*
X144370367Y-51329497D02*
X144424242Y-51329497D01*
X144424242Y-51329497D02*
X144505054Y-51356434D01*
X144505054Y-51356434D02*
X144639741Y-51491121D01*
X144639741Y-51491121D02*
X144666679Y-51571933D01*
X144666679Y-51571933D02*
X144666679Y-51625808D01*
X144666679Y-51625808D02*
X144639741Y-51706620D01*
X144639741Y-51706620D02*
X144478117Y-51868245D01*
X144478117Y-51868245D02*
X144397305Y-51895182D01*
X144397305Y-51895182D02*
X144343430Y-51895182D01*
X154983998Y-65650868D02*
X154903185Y-65677805D01*
X154903185Y-65677805D02*
X154822373Y-65758618D01*
X154822373Y-65758618D02*
X154768498Y-65866367D01*
X154768498Y-65866367D02*
X154768498Y-65974117D01*
X154768498Y-65974117D02*
X154795436Y-66054929D01*
X154795436Y-66054929D02*
X154876248Y-66189616D01*
X154876248Y-66189616D02*
X154957060Y-66270428D01*
X154957060Y-66270428D02*
X155091747Y-66351241D01*
X155091747Y-66351241D02*
X155172560Y-66378178D01*
X155172560Y-66378178D02*
X155280309Y-66378178D01*
X155280309Y-66378178D02*
X155388059Y-66324303D01*
X155388059Y-66324303D02*
X155441934Y-66270428D01*
X155441934Y-66270428D02*
X155495808Y-66162679D01*
X155495808Y-66162679D02*
X155495808Y-66108804D01*
X155495808Y-66108804D02*
X155307247Y-65920242D01*
X155307247Y-65920242D02*
X155199497Y-66027992D01*
X155792120Y-65920242D02*
X155226434Y-65354557D01*
X155226434Y-65354557D02*
X155441934Y-65139057D01*
X155441934Y-65139057D02*
X155522746Y-65112120D01*
X155522746Y-65112120D02*
X155576621Y-65112120D01*
X155576621Y-65112120D02*
X155657433Y-65139057D01*
X155657433Y-65139057D02*
X155738245Y-65219870D01*
X155738245Y-65219870D02*
X155765182Y-65300682D01*
X155765182Y-65300682D02*
X155765182Y-65354557D01*
X155765182Y-65354557D02*
X155738245Y-65435369D01*
X155738245Y-65435369D02*
X155522746Y-65650868D01*
X155819057Y-64869683D02*
X155819057Y-64815809D01*
X155819057Y-64815809D02*
X155845995Y-64734996D01*
X155845995Y-64734996D02*
X155980682Y-64600309D01*
X155980682Y-64600309D02*
X156061494Y-64573372D01*
X156061494Y-64573372D02*
X156115369Y-64573372D01*
X156115369Y-64573372D02*
X156196181Y-64600309D01*
X156196181Y-64600309D02*
X156250056Y-64654184D01*
X156250056Y-64654184D02*
X156303930Y-64761934D01*
X156303930Y-64761934D02*
X156303930Y-65408431D01*
X156303930Y-65408431D02*
X156654117Y-65058245D01*
X156573305Y-64007686D02*
X156465555Y-64115436D01*
X156465555Y-64115436D02*
X156438618Y-64196248D01*
X156438618Y-64196248D02*
X156438618Y-64250123D01*
X156438618Y-64250123D02*
X156465555Y-64384810D01*
X156465555Y-64384810D02*
X156546367Y-64519497D01*
X156546367Y-64519497D02*
X156761866Y-64734996D01*
X156761866Y-64734996D02*
X156842679Y-64761934D01*
X156842679Y-64761934D02*
X156896553Y-64761934D01*
X156896553Y-64761934D02*
X156977366Y-64734996D01*
X156977366Y-64734996D02*
X157085115Y-64627247D01*
X157085115Y-64627247D02*
X157112053Y-64546434D01*
X157112053Y-64546434D02*
X157112053Y-64492560D01*
X157112053Y-64492560D02*
X157085115Y-64411747D01*
X157085115Y-64411747D02*
X156950428Y-64277060D01*
X156950428Y-64277060D02*
X156869616Y-64250123D01*
X156869616Y-64250123D02*
X156815741Y-64250123D01*
X156815741Y-64250123D02*
X156734929Y-64277060D01*
X156734929Y-64277060D02*
X156627179Y-64384810D01*
X156627179Y-64384810D02*
X156600242Y-64465622D01*
X156600242Y-64465622D02*
X156600242Y-64519497D01*
X156600242Y-64519497D02*
X156627179Y-64600309D01*
X143050435Y-47138431D02*
X142969623Y-47165368D01*
X142969623Y-47165368D02*
X142888811Y-47246180D01*
X142888811Y-47246180D02*
X142834936Y-47353930D01*
X142834936Y-47353930D02*
X142834936Y-47461680D01*
X142834936Y-47461680D02*
X142861873Y-47542492D01*
X142861873Y-47542492D02*
X142942685Y-47677179D01*
X142942685Y-47677179D02*
X143023498Y-47757991D01*
X143023498Y-47757991D02*
X143158185Y-47838803D01*
X143158185Y-47838803D02*
X143238997Y-47865741D01*
X143238997Y-47865741D02*
X143346746Y-47865741D01*
X143346746Y-47865741D02*
X143454496Y-47811866D01*
X143454496Y-47811866D02*
X143508371Y-47757991D01*
X143508371Y-47757991D02*
X143562246Y-47650241D01*
X143562246Y-47650241D02*
X143562246Y-47596367D01*
X143562246Y-47596367D02*
X143373684Y-47407805D01*
X143373684Y-47407805D02*
X143265934Y-47515554D01*
X143858557Y-47407805D02*
X143292872Y-46842119D01*
X143292872Y-46842119D02*
X144181806Y-47084556D01*
X144181806Y-47084556D02*
X143616120Y-46518871D01*
X144451180Y-46815182D02*
X143885494Y-46249497D01*
X143885494Y-46249497D02*
X144020181Y-46114810D01*
X144020181Y-46114810D02*
X144127931Y-46060935D01*
X144127931Y-46060935D02*
X144235680Y-46060935D01*
X144235680Y-46060935D02*
X144316493Y-46087872D01*
X144316493Y-46087872D02*
X144451180Y-46168685D01*
X144451180Y-46168685D02*
X144531992Y-46249497D01*
X144531992Y-46249497D02*
X144612804Y-46384184D01*
X144612804Y-46384184D02*
X144639741Y-46464996D01*
X144639741Y-46464996D02*
X144639741Y-46572746D01*
X144639741Y-46572746D02*
X144585867Y-46680495D01*
X144585867Y-46680495D02*
X144451180Y-46815182D01*
X155480435Y-47628431D02*
X155399623Y-47655368D01*
X155399623Y-47655368D02*
X155318811Y-47736180D01*
X155318811Y-47736180D02*
X155264936Y-47843930D01*
X155264936Y-47843930D02*
X155264936Y-47951680D01*
X155264936Y-47951680D02*
X155291873Y-48032492D01*
X155291873Y-48032492D02*
X155372685Y-48167179D01*
X155372685Y-48167179D02*
X155453498Y-48247991D01*
X155453498Y-48247991D02*
X155588185Y-48328803D01*
X155588185Y-48328803D02*
X155668997Y-48355741D01*
X155668997Y-48355741D02*
X155776746Y-48355741D01*
X155776746Y-48355741D02*
X155884496Y-48301866D01*
X155884496Y-48301866D02*
X155938371Y-48247991D01*
X155938371Y-48247991D02*
X155992246Y-48140241D01*
X155992246Y-48140241D02*
X155992246Y-48086367D01*
X155992246Y-48086367D02*
X155803684Y-47897805D01*
X155803684Y-47897805D02*
X155695934Y-48005554D01*
X156288557Y-47897805D02*
X155722872Y-47332119D01*
X155722872Y-47332119D02*
X156611806Y-47574556D01*
X156611806Y-47574556D02*
X156046120Y-47008871D01*
X156881180Y-47305182D02*
X156315494Y-46739497D01*
X156315494Y-46739497D02*
X156450181Y-46604810D01*
X156450181Y-46604810D02*
X156557931Y-46550935D01*
X156557931Y-46550935D02*
X156665680Y-46550935D01*
X156665680Y-46550935D02*
X156746493Y-46577872D01*
X156746493Y-46577872D02*
X156881180Y-46658685D01*
X156881180Y-46658685D02*
X156961992Y-46739497D01*
X156961992Y-46739497D02*
X157042804Y-46874184D01*
X157042804Y-46874184D02*
X157069741Y-46954996D01*
X157069741Y-46954996D02*
X157069741Y-47062746D01*
X157069741Y-47062746D02*
X157015867Y-47170495D01*
X157015867Y-47170495D02*
X156881180Y-47305182D01*
X154745998Y-78368868D02*
X154665185Y-78395805D01*
X154665185Y-78395805D02*
X154584373Y-78476618D01*
X154584373Y-78476618D02*
X154530498Y-78584367D01*
X154530498Y-78584367D02*
X154530498Y-78692117D01*
X154530498Y-78692117D02*
X154557436Y-78772929D01*
X154557436Y-78772929D02*
X154638248Y-78907616D01*
X154638248Y-78907616D02*
X154719060Y-78988428D01*
X154719060Y-78988428D02*
X154853747Y-79069241D01*
X154853747Y-79069241D02*
X154934560Y-79096178D01*
X154934560Y-79096178D02*
X155042309Y-79096178D01*
X155042309Y-79096178D02*
X155150059Y-79042303D01*
X155150059Y-79042303D02*
X155203934Y-78988428D01*
X155203934Y-78988428D02*
X155257808Y-78880679D01*
X155257808Y-78880679D02*
X155257808Y-78826804D01*
X155257808Y-78826804D02*
X155069247Y-78638242D01*
X155069247Y-78638242D02*
X154961497Y-78745992D01*
X155554120Y-78638242D02*
X154988434Y-78072557D01*
X154988434Y-78072557D02*
X155203934Y-77857057D01*
X155203934Y-77857057D02*
X155284746Y-77830120D01*
X155284746Y-77830120D02*
X155338621Y-77830120D01*
X155338621Y-77830120D02*
X155419433Y-77857057D01*
X155419433Y-77857057D02*
X155500245Y-77937870D01*
X155500245Y-77937870D02*
X155527182Y-78018682D01*
X155527182Y-78018682D02*
X155527182Y-78072557D01*
X155527182Y-78072557D02*
X155500245Y-78153369D01*
X155500245Y-78153369D02*
X155284746Y-78368868D01*
X155581057Y-77587683D02*
X155581057Y-77533809D01*
X155581057Y-77533809D02*
X155607995Y-77452996D01*
X155607995Y-77452996D02*
X155742682Y-77318309D01*
X155742682Y-77318309D02*
X155823494Y-77291372D01*
X155823494Y-77291372D02*
X155877369Y-77291372D01*
X155877369Y-77291372D02*
X155958181Y-77318309D01*
X155958181Y-77318309D02*
X156012056Y-77372184D01*
X156012056Y-77372184D02*
X156065930Y-77479934D01*
X156065930Y-77479934D02*
X156065930Y-78126431D01*
X156065930Y-78126431D02*
X156416117Y-77776245D01*
X156200618Y-76860373D02*
X156254492Y-76806499D01*
X156254492Y-76806499D02*
X156335305Y-76779561D01*
X156335305Y-76779561D02*
X156389179Y-76779561D01*
X156389179Y-76779561D02*
X156469992Y-76806499D01*
X156469992Y-76806499D02*
X156604679Y-76887311D01*
X156604679Y-76887311D02*
X156739366Y-77021998D01*
X156739366Y-77021998D02*
X156820178Y-77156685D01*
X156820178Y-77156685D02*
X156847115Y-77237497D01*
X156847115Y-77237497D02*
X156847115Y-77291372D01*
X156847115Y-77291372D02*
X156820178Y-77372184D01*
X156820178Y-77372184D02*
X156766303Y-77426059D01*
X156766303Y-77426059D02*
X156685491Y-77452996D01*
X156685491Y-77452996D02*
X156631616Y-77452996D01*
X156631616Y-77452996D02*
X156550804Y-77426059D01*
X156550804Y-77426059D02*
X156416117Y-77345247D01*
X156416117Y-77345247D02*
X156281430Y-77210560D01*
X156281430Y-77210560D02*
X156200618Y-77075873D01*
X156200618Y-77075873D02*
X156173680Y-76995060D01*
X156173680Y-76995060D02*
X156173680Y-76941186D01*
X156173680Y-76941186D02*
X156200618Y-76860373D01*
X153764761Y-92818200D02*
X153879047Y-92856295D01*
X153879047Y-92856295D02*
X154069523Y-92856295D01*
X154069523Y-92856295D02*
X154145714Y-92818200D01*
X154145714Y-92818200D02*
X154183809Y-92780104D01*
X154183809Y-92780104D02*
X154221904Y-92703914D01*
X154221904Y-92703914D02*
X154221904Y-92627723D01*
X154221904Y-92627723D02*
X154183809Y-92551533D01*
X154183809Y-92551533D02*
X154145714Y-92513438D01*
X154145714Y-92513438D02*
X154069523Y-92475342D01*
X154069523Y-92475342D02*
X153917142Y-92437247D01*
X153917142Y-92437247D02*
X153840952Y-92399152D01*
X153840952Y-92399152D02*
X153802857Y-92361057D01*
X153802857Y-92361057D02*
X153764761Y-92284866D01*
X153764761Y-92284866D02*
X153764761Y-92208676D01*
X153764761Y-92208676D02*
X153802857Y-92132485D01*
X153802857Y-92132485D02*
X153840952Y-92094390D01*
X153840952Y-92094390D02*
X153917142Y-92056295D01*
X153917142Y-92056295D02*
X154107619Y-92056295D01*
X154107619Y-92056295D02*
X154221904Y-92094390D01*
X154488571Y-92056295D02*
X154679047Y-92856295D01*
X154679047Y-92856295D02*
X154831428Y-92284866D01*
X154831428Y-92284866D02*
X154983809Y-92856295D01*
X154983809Y-92856295D02*
X155174286Y-92056295D01*
X155479048Y-92856295D02*
X155479048Y-92056295D01*
X155479048Y-92056295D02*
X155669524Y-92056295D01*
X155669524Y-92056295D02*
X155783810Y-92094390D01*
X155783810Y-92094390D02*
X155860000Y-92170580D01*
X155860000Y-92170580D02*
X155898095Y-92246771D01*
X155898095Y-92246771D02*
X155936191Y-92399152D01*
X155936191Y-92399152D02*
X155936191Y-92513438D01*
X155936191Y-92513438D02*
X155898095Y-92665819D01*
X155898095Y-92665819D02*
X155860000Y-92742009D01*
X155860000Y-92742009D02*
X155783810Y-92818200D01*
X155783810Y-92818200D02*
X155669524Y-92856295D01*
X155669524Y-92856295D02*
X155479048Y-92856295D01*
X156279048Y-92856295D02*
X156279048Y-92056295D01*
X156812381Y-92056295D02*
X156964762Y-92056295D01*
X156964762Y-92056295D02*
X157040952Y-92094390D01*
X157040952Y-92094390D02*
X157117143Y-92170580D01*
X157117143Y-92170580D02*
X157155238Y-92322961D01*
X157155238Y-92322961D02*
X157155238Y-92589628D01*
X157155238Y-92589628D02*
X157117143Y-92742009D01*
X157117143Y-92742009D02*
X157040952Y-92818200D01*
X157040952Y-92818200D02*
X156964762Y-92856295D01*
X156964762Y-92856295D02*
X156812381Y-92856295D01*
X156812381Y-92856295D02*
X156736190Y-92818200D01*
X156736190Y-92818200D02*
X156660000Y-92742009D01*
X156660000Y-92742009D02*
X156621904Y-92589628D01*
X156621904Y-92589628D02*
X156621904Y-92322961D01*
X156621904Y-92322961D02*
X156660000Y-92170580D01*
X156660000Y-92170580D02*
X156736190Y-92094390D01*
X156736190Y-92094390D02*
X156812381Y-92056295D01*
X154101406Y-43057585D02*
X154855653Y-43434709D01*
X154855653Y-43434709D02*
X154478529Y-42680462D01*
X155125027Y-42572712D02*
X155232776Y-42518838D01*
X155232776Y-42518838D02*
X155286651Y-42518838D01*
X155286651Y-42518838D02*
X155367463Y-42545775D01*
X155367463Y-42545775D02*
X155448276Y-42626587D01*
X155448276Y-42626587D02*
X155475213Y-42707399D01*
X155475213Y-42707399D02*
X155475213Y-42761274D01*
X155475213Y-42761274D02*
X155448276Y-42842086D01*
X155448276Y-42842086D02*
X155232776Y-43057586D01*
X155232776Y-43057586D02*
X154667091Y-42491900D01*
X154667091Y-42491900D02*
X154855653Y-42303338D01*
X154855653Y-42303338D02*
X154936465Y-42276401D01*
X154936465Y-42276401D02*
X154990340Y-42276401D01*
X154990340Y-42276401D02*
X155071152Y-42303338D01*
X155071152Y-42303338D02*
X155125027Y-42357213D01*
X155125027Y-42357213D02*
X155151964Y-42438025D01*
X155151964Y-42438025D02*
X155151964Y-42491900D01*
X155151964Y-42491900D02*
X155125027Y-42572712D01*
X155125027Y-42572712D02*
X154936465Y-42761274D01*
X155232776Y-41926215D02*
X155690712Y-42384151D01*
X155690712Y-42384151D02*
X155771524Y-42411088D01*
X155771524Y-42411088D02*
X155825399Y-42411088D01*
X155825399Y-42411088D02*
X155906211Y-42384151D01*
X155906211Y-42384151D02*
X156013961Y-42276401D01*
X156013961Y-42276401D02*
X156040898Y-42195589D01*
X156040898Y-42195589D02*
X156040898Y-42141714D01*
X156040898Y-42141714D02*
X156013961Y-42060902D01*
X156013961Y-42060902D02*
X155556025Y-41602966D01*
X156337210Y-41899277D02*
X156444959Y-41845403D01*
X156444959Y-41845403D02*
X156579646Y-41710716D01*
X156579646Y-41710716D02*
X156606584Y-41629903D01*
X156606584Y-41629903D02*
X156606584Y-41576029D01*
X156606584Y-41576029D02*
X156579646Y-41495216D01*
X156579646Y-41495216D02*
X156525771Y-41441342D01*
X156525771Y-41441342D02*
X156444959Y-41414404D01*
X156444959Y-41414404D02*
X156391084Y-41414404D01*
X156391084Y-41414404D02*
X156310272Y-41441342D01*
X156310272Y-41441342D02*
X156175585Y-41522154D01*
X156175585Y-41522154D02*
X156094773Y-41549091D01*
X156094773Y-41549091D02*
X156040898Y-41549091D01*
X156040898Y-41549091D02*
X155960086Y-41522154D01*
X155960086Y-41522154D02*
X155906211Y-41468279D01*
X155906211Y-41468279D02*
X155879274Y-41387467D01*
X155879274Y-41387467D02*
X155879274Y-41333592D01*
X155879274Y-41333592D02*
X155906211Y-41252780D01*
X155906211Y-41252780D02*
X156040898Y-41118093D01*
X156040898Y-41118093D02*
X156148648Y-41064218D01*
X155242435Y-85746431D02*
X155161623Y-85773368D01*
X155161623Y-85773368D02*
X155080811Y-85854180D01*
X155080811Y-85854180D02*
X155026936Y-85961930D01*
X155026936Y-85961930D02*
X155026936Y-86069680D01*
X155026936Y-86069680D02*
X155053873Y-86150492D01*
X155053873Y-86150492D02*
X155134685Y-86285179D01*
X155134685Y-86285179D02*
X155215498Y-86365991D01*
X155215498Y-86365991D02*
X155350185Y-86446803D01*
X155350185Y-86446803D02*
X155430997Y-86473741D01*
X155430997Y-86473741D02*
X155538746Y-86473741D01*
X155538746Y-86473741D02*
X155646496Y-86419866D01*
X155646496Y-86419866D02*
X155700371Y-86365991D01*
X155700371Y-86365991D02*
X155754246Y-86258241D01*
X155754246Y-86258241D02*
X155754246Y-86204367D01*
X155754246Y-86204367D02*
X155565684Y-86015805D01*
X155565684Y-86015805D02*
X155457934Y-86123554D01*
X156050557Y-86015805D02*
X155484872Y-85450119D01*
X155484872Y-85450119D02*
X156373806Y-85692556D01*
X156373806Y-85692556D02*
X155808120Y-85126871D01*
X156643180Y-85423182D02*
X156077494Y-84857497D01*
X156077494Y-84857497D02*
X156212181Y-84722810D01*
X156212181Y-84722810D02*
X156319931Y-84668935D01*
X156319931Y-84668935D02*
X156427680Y-84668935D01*
X156427680Y-84668935D02*
X156508493Y-84695872D01*
X156508493Y-84695872D02*
X156643180Y-84776685D01*
X156643180Y-84776685D02*
X156723992Y-84857497D01*
X156723992Y-84857497D02*
X156804804Y-84992184D01*
X156804804Y-84992184D02*
X156831741Y-85072996D01*
X156831741Y-85072996D02*
X156831741Y-85180746D01*
X156831741Y-85180746D02*
X156777867Y-85288495D01*
X156777867Y-85288495D02*
X156643180Y-85423182D01*
X154745998Y-80908868D02*
X154665185Y-80935805D01*
X154665185Y-80935805D02*
X154584373Y-81016618D01*
X154584373Y-81016618D02*
X154530498Y-81124367D01*
X154530498Y-81124367D02*
X154530498Y-81232117D01*
X154530498Y-81232117D02*
X154557436Y-81312929D01*
X154557436Y-81312929D02*
X154638248Y-81447616D01*
X154638248Y-81447616D02*
X154719060Y-81528428D01*
X154719060Y-81528428D02*
X154853747Y-81609241D01*
X154853747Y-81609241D02*
X154934560Y-81636178D01*
X154934560Y-81636178D02*
X155042309Y-81636178D01*
X155042309Y-81636178D02*
X155150059Y-81582303D01*
X155150059Y-81582303D02*
X155203934Y-81528428D01*
X155203934Y-81528428D02*
X155257808Y-81420679D01*
X155257808Y-81420679D02*
X155257808Y-81366804D01*
X155257808Y-81366804D02*
X155069247Y-81178242D01*
X155069247Y-81178242D02*
X154961497Y-81285992D01*
X155554120Y-81178242D02*
X154988434Y-80612557D01*
X154988434Y-80612557D02*
X155203934Y-80397057D01*
X155203934Y-80397057D02*
X155284746Y-80370120D01*
X155284746Y-80370120D02*
X155338621Y-80370120D01*
X155338621Y-80370120D02*
X155419433Y-80397057D01*
X155419433Y-80397057D02*
X155500245Y-80477870D01*
X155500245Y-80477870D02*
X155527182Y-80558682D01*
X155527182Y-80558682D02*
X155527182Y-80612557D01*
X155527182Y-80612557D02*
X155500245Y-80693369D01*
X155500245Y-80693369D02*
X155284746Y-80908868D01*
X156416117Y-80316245D02*
X156092868Y-80639494D01*
X156254492Y-80477870D02*
X155688807Y-79912184D01*
X155688807Y-79912184D02*
X155715744Y-80046871D01*
X155715744Y-80046871D02*
X155715744Y-80154621D01*
X155715744Y-80154621D02*
X155688807Y-80235433D01*
X156685491Y-80046871D02*
X156793240Y-79939121D01*
X156793240Y-79939121D02*
X156820178Y-79858309D01*
X156820178Y-79858309D02*
X156820178Y-79804434D01*
X156820178Y-79804434D02*
X156793240Y-79669747D01*
X156793240Y-79669747D02*
X156712428Y-79535060D01*
X156712428Y-79535060D02*
X156496929Y-79319561D01*
X156496929Y-79319561D02*
X156416117Y-79292624D01*
X156416117Y-79292624D02*
X156362242Y-79292624D01*
X156362242Y-79292624D02*
X156281430Y-79319561D01*
X156281430Y-79319561D02*
X156173680Y-79427311D01*
X156173680Y-79427311D02*
X156146743Y-79508123D01*
X156146743Y-79508123D02*
X156146743Y-79561998D01*
X156146743Y-79561998D02*
X156173680Y-79642810D01*
X156173680Y-79642810D02*
X156308367Y-79777497D01*
X156308367Y-79777497D02*
X156389179Y-79804434D01*
X156389179Y-79804434D02*
X156443054Y-79804434D01*
X156443054Y-79804434D02*
X156523866Y-79777497D01*
X156523866Y-79777497D02*
X156631616Y-79669747D01*
X156631616Y-79669747D02*
X156658553Y-79588935D01*
X156658553Y-79588935D02*
X156658553Y-79535060D01*
X156658553Y-79535060D02*
X156631616Y-79454248D01*
X143077372Y-62351494D02*
X142996560Y-62378431D01*
X142996560Y-62378431D02*
X142915748Y-62459243D01*
X142915748Y-62459243D02*
X142861873Y-62566993D01*
X142861873Y-62566993D02*
X142861873Y-62674742D01*
X142861873Y-62674742D02*
X142888810Y-62755555D01*
X142888810Y-62755555D02*
X142969623Y-62890242D01*
X142969623Y-62890242D02*
X143050435Y-62971054D01*
X143050435Y-62971054D02*
X143185122Y-63051866D01*
X143185122Y-63051866D02*
X143265934Y-63078803D01*
X143265934Y-63078803D02*
X143373684Y-63078803D01*
X143373684Y-63078803D02*
X143481433Y-63024929D01*
X143481433Y-63024929D02*
X143535308Y-62971054D01*
X143535308Y-62971054D02*
X143589183Y-62863304D01*
X143589183Y-62863304D02*
X143589183Y-62809429D01*
X143589183Y-62809429D02*
X143400621Y-62620868D01*
X143400621Y-62620868D02*
X143292871Y-62728617D01*
X143885494Y-62620868D02*
X143319809Y-62055182D01*
X143319809Y-62055182D02*
X143535308Y-61839683D01*
X143535308Y-61839683D02*
X143616120Y-61812746D01*
X143616120Y-61812746D02*
X143669995Y-61812746D01*
X143669995Y-61812746D02*
X143750807Y-61839683D01*
X143750807Y-61839683D02*
X143831619Y-61920495D01*
X143831619Y-61920495D02*
X143858557Y-62001307D01*
X143858557Y-62001307D02*
X143858557Y-62055182D01*
X143858557Y-62055182D02*
X143831619Y-62135994D01*
X143831619Y-62135994D02*
X143616120Y-62351494D01*
X144127931Y-61247060D02*
X144020181Y-61354810D01*
X144020181Y-61354810D02*
X143993244Y-61435622D01*
X143993244Y-61435622D02*
X143993244Y-61489497D01*
X143993244Y-61489497D02*
X144020181Y-61624184D01*
X144020181Y-61624184D02*
X144100993Y-61758871D01*
X144100993Y-61758871D02*
X144316493Y-61974370D01*
X144316493Y-61974370D02*
X144397305Y-62001307D01*
X144397305Y-62001307D02*
X144451180Y-62001307D01*
X144451180Y-62001307D02*
X144531992Y-61974370D01*
X144531992Y-61974370D02*
X144639741Y-61866620D01*
X144639741Y-61866620D02*
X144666679Y-61785808D01*
X144666679Y-61785808D02*
X144666679Y-61731933D01*
X144666679Y-61731933D02*
X144639741Y-61651121D01*
X144639741Y-61651121D02*
X144505054Y-61516434D01*
X144505054Y-61516434D02*
X144424242Y-61489497D01*
X144424242Y-61489497D02*
X144370367Y-61489497D01*
X144370367Y-61489497D02*
X144289555Y-61516434D01*
X144289555Y-61516434D02*
X144181806Y-61624184D01*
X144181806Y-61624184D02*
X144154868Y-61704996D01*
X144154868Y-61704996D02*
X144154868Y-61758871D01*
X144154868Y-61758871D02*
X144181806Y-61839683D01*
X142553998Y-75320868D02*
X142473185Y-75347805D01*
X142473185Y-75347805D02*
X142392373Y-75428618D01*
X142392373Y-75428618D02*
X142338498Y-75536367D01*
X142338498Y-75536367D02*
X142338498Y-75644117D01*
X142338498Y-75644117D02*
X142365436Y-75724929D01*
X142365436Y-75724929D02*
X142446248Y-75859616D01*
X142446248Y-75859616D02*
X142527060Y-75940428D01*
X142527060Y-75940428D02*
X142661747Y-76021241D01*
X142661747Y-76021241D02*
X142742560Y-76048178D01*
X142742560Y-76048178D02*
X142850309Y-76048178D01*
X142850309Y-76048178D02*
X142958059Y-75994303D01*
X142958059Y-75994303D02*
X143011934Y-75940428D01*
X143011934Y-75940428D02*
X143065808Y-75832679D01*
X143065808Y-75832679D02*
X143065808Y-75778804D01*
X143065808Y-75778804D02*
X142877247Y-75590242D01*
X142877247Y-75590242D02*
X142769497Y-75697992D01*
X143362120Y-75590242D02*
X142796434Y-75024557D01*
X142796434Y-75024557D02*
X143011934Y-74809057D01*
X143011934Y-74809057D02*
X143092746Y-74782120D01*
X143092746Y-74782120D02*
X143146621Y-74782120D01*
X143146621Y-74782120D02*
X143227433Y-74809057D01*
X143227433Y-74809057D02*
X143308245Y-74889870D01*
X143308245Y-74889870D02*
X143335182Y-74970682D01*
X143335182Y-74970682D02*
X143335182Y-75024557D01*
X143335182Y-75024557D02*
X143308245Y-75105369D01*
X143308245Y-75105369D02*
X143092746Y-75320868D01*
X144224117Y-74728245D02*
X143900868Y-75051494D01*
X144062492Y-74889870D02*
X143496807Y-74324184D01*
X143496807Y-74324184D02*
X143523744Y-74458871D01*
X143523744Y-74458871D02*
X143523744Y-74566621D01*
X143523744Y-74566621D02*
X143496807Y-74647433D01*
X144008618Y-73812373D02*
X144062492Y-73758499D01*
X144062492Y-73758499D02*
X144143305Y-73731561D01*
X144143305Y-73731561D02*
X144197179Y-73731561D01*
X144197179Y-73731561D02*
X144277992Y-73758499D01*
X144277992Y-73758499D02*
X144412679Y-73839311D01*
X144412679Y-73839311D02*
X144547366Y-73973998D01*
X144547366Y-73973998D02*
X144628178Y-74108685D01*
X144628178Y-74108685D02*
X144655115Y-74189497D01*
X144655115Y-74189497D02*
X144655115Y-74243372D01*
X144655115Y-74243372D02*
X144628178Y-74324184D01*
X144628178Y-74324184D02*
X144574303Y-74378059D01*
X144574303Y-74378059D02*
X144493491Y-74404996D01*
X144493491Y-74404996D02*
X144439616Y-74404996D01*
X144439616Y-74404996D02*
X144358804Y-74378059D01*
X144358804Y-74378059D02*
X144224117Y-74297247D01*
X144224117Y-74297247D02*
X144089430Y-74162560D01*
X144089430Y-74162560D02*
X144008618Y-74027873D01*
X144008618Y-74027873D02*
X143981680Y-73947060D01*
X143981680Y-73947060D02*
X143981680Y-73893186D01*
X143981680Y-73893186D02*
X144008618Y-73812373D01*
X142407998Y-77860868D02*
X142327185Y-77887805D01*
X142327185Y-77887805D02*
X142246373Y-77968618D01*
X142246373Y-77968618D02*
X142192498Y-78076367D01*
X142192498Y-78076367D02*
X142192498Y-78184117D01*
X142192498Y-78184117D02*
X142219436Y-78264929D01*
X142219436Y-78264929D02*
X142300248Y-78399616D01*
X142300248Y-78399616D02*
X142381060Y-78480428D01*
X142381060Y-78480428D02*
X142515747Y-78561241D01*
X142515747Y-78561241D02*
X142596560Y-78588178D01*
X142596560Y-78588178D02*
X142704309Y-78588178D01*
X142704309Y-78588178D02*
X142812059Y-78534303D01*
X142812059Y-78534303D02*
X142865934Y-78480428D01*
X142865934Y-78480428D02*
X142919808Y-78372679D01*
X142919808Y-78372679D02*
X142919808Y-78318804D01*
X142919808Y-78318804D02*
X142731247Y-78130242D01*
X142731247Y-78130242D02*
X142623497Y-78237992D01*
X143216120Y-78130242D02*
X142650434Y-77564557D01*
X142650434Y-77564557D02*
X142865934Y-77349057D01*
X142865934Y-77349057D02*
X142946746Y-77322120D01*
X142946746Y-77322120D02*
X143000621Y-77322120D01*
X143000621Y-77322120D02*
X143081433Y-77349057D01*
X143081433Y-77349057D02*
X143162245Y-77429870D01*
X143162245Y-77429870D02*
X143189182Y-77510682D01*
X143189182Y-77510682D02*
X143189182Y-77564557D01*
X143189182Y-77564557D02*
X143162245Y-77645369D01*
X143162245Y-77645369D02*
X142946746Y-77860868D01*
X144078117Y-77268245D02*
X143754868Y-77591494D01*
X143916492Y-77429870D02*
X143350807Y-76864184D01*
X143350807Y-76864184D02*
X143377744Y-76998871D01*
X143377744Y-76998871D02*
X143377744Y-77106621D01*
X143377744Y-77106621D02*
X143350807Y-77187433D01*
X144616865Y-76729497D02*
X144293616Y-77052746D01*
X144455240Y-76891121D02*
X143889555Y-76325436D01*
X143889555Y-76325436D02*
X143916492Y-76460123D01*
X143916492Y-76460123D02*
X143916492Y-76567873D01*
X143916492Y-76567873D02*
X143889555Y-76648685D01*
X143050435Y-85238431D02*
X142969623Y-85265368D01*
X142969623Y-85265368D02*
X142888811Y-85346180D01*
X142888811Y-85346180D02*
X142834936Y-85453930D01*
X142834936Y-85453930D02*
X142834936Y-85561680D01*
X142834936Y-85561680D02*
X142861873Y-85642492D01*
X142861873Y-85642492D02*
X142942685Y-85777179D01*
X142942685Y-85777179D02*
X143023498Y-85857991D01*
X143023498Y-85857991D02*
X143158185Y-85938803D01*
X143158185Y-85938803D02*
X143238997Y-85965741D01*
X143238997Y-85965741D02*
X143346746Y-85965741D01*
X143346746Y-85965741D02*
X143454496Y-85911866D01*
X143454496Y-85911866D02*
X143508371Y-85857991D01*
X143508371Y-85857991D02*
X143562246Y-85750241D01*
X143562246Y-85750241D02*
X143562246Y-85696367D01*
X143562246Y-85696367D02*
X143373684Y-85507805D01*
X143373684Y-85507805D02*
X143265934Y-85615554D01*
X143858557Y-85507805D02*
X143292872Y-84942119D01*
X143292872Y-84942119D02*
X144181806Y-85184556D01*
X144181806Y-85184556D02*
X143616120Y-84618871D01*
X144451180Y-84915182D02*
X143885494Y-84349497D01*
X143885494Y-84349497D02*
X144020181Y-84214810D01*
X144020181Y-84214810D02*
X144127931Y-84160935D01*
X144127931Y-84160935D02*
X144235680Y-84160935D01*
X144235680Y-84160935D02*
X144316493Y-84187872D01*
X144316493Y-84187872D02*
X144451180Y-84268685D01*
X144451180Y-84268685D02*
X144531992Y-84349497D01*
X144531992Y-84349497D02*
X144612804Y-84484184D01*
X144612804Y-84484184D02*
X144639741Y-84564996D01*
X144639741Y-84564996D02*
X144639741Y-84672746D01*
X144639741Y-84672746D02*
X144585867Y-84780495D01*
X144585867Y-84780495D02*
X144451180Y-84915182D01*
X154745998Y-83448868D02*
X154665185Y-83475805D01*
X154665185Y-83475805D02*
X154584373Y-83556618D01*
X154584373Y-83556618D02*
X154530498Y-83664367D01*
X154530498Y-83664367D02*
X154530498Y-83772117D01*
X154530498Y-83772117D02*
X154557436Y-83852929D01*
X154557436Y-83852929D02*
X154638248Y-83987616D01*
X154638248Y-83987616D02*
X154719060Y-84068428D01*
X154719060Y-84068428D02*
X154853747Y-84149241D01*
X154853747Y-84149241D02*
X154934560Y-84176178D01*
X154934560Y-84176178D02*
X155042309Y-84176178D01*
X155042309Y-84176178D02*
X155150059Y-84122303D01*
X155150059Y-84122303D02*
X155203934Y-84068428D01*
X155203934Y-84068428D02*
X155257808Y-83960679D01*
X155257808Y-83960679D02*
X155257808Y-83906804D01*
X155257808Y-83906804D02*
X155069247Y-83718242D01*
X155069247Y-83718242D02*
X154961497Y-83825992D01*
X155554120Y-83718242D02*
X154988434Y-83152557D01*
X154988434Y-83152557D02*
X155203934Y-82937057D01*
X155203934Y-82937057D02*
X155284746Y-82910120D01*
X155284746Y-82910120D02*
X155338621Y-82910120D01*
X155338621Y-82910120D02*
X155419433Y-82937057D01*
X155419433Y-82937057D02*
X155500245Y-83017870D01*
X155500245Y-83017870D02*
X155527182Y-83098682D01*
X155527182Y-83098682D02*
X155527182Y-83152557D01*
X155527182Y-83152557D02*
X155500245Y-83233369D01*
X155500245Y-83233369D02*
X155284746Y-83448868D01*
X156416117Y-82856245D02*
X156092868Y-83179494D01*
X156254492Y-83017870D02*
X155688807Y-82452184D01*
X155688807Y-82452184D02*
X155715744Y-82586871D01*
X155715744Y-82586871D02*
X155715744Y-82694621D01*
X155715744Y-82694621D02*
X155688807Y-82775433D01*
X156416117Y-82209747D02*
X156335305Y-82236685D01*
X156335305Y-82236685D02*
X156281430Y-82236685D01*
X156281430Y-82236685D02*
X156200618Y-82209747D01*
X156200618Y-82209747D02*
X156173680Y-82182810D01*
X156173680Y-82182810D02*
X156146743Y-82101998D01*
X156146743Y-82101998D02*
X156146743Y-82048123D01*
X156146743Y-82048123D02*
X156173680Y-81967311D01*
X156173680Y-81967311D02*
X156281430Y-81859561D01*
X156281430Y-81859561D02*
X156362242Y-81832624D01*
X156362242Y-81832624D02*
X156416117Y-81832624D01*
X156416117Y-81832624D02*
X156496929Y-81859561D01*
X156496929Y-81859561D02*
X156523866Y-81886499D01*
X156523866Y-81886499D02*
X156550804Y-81967311D01*
X156550804Y-81967311D02*
X156550804Y-82021186D01*
X156550804Y-82021186D02*
X156523866Y-82101998D01*
X156523866Y-82101998D02*
X156416117Y-82209747D01*
X156416117Y-82209747D02*
X156389179Y-82290560D01*
X156389179Y-82290560D02*
X156389179Y-82344434D01*
X156389179Y-82344434D02*
X156416117Y-82425247D01*
X156416117Y-82425247D02*
X156523866Y-82532996D01*
X156523866Y-82532996D02*
X156604679Y-82559934D01*
X156604679Y-82559934D02*
X156658553Y-82559934D01*
X156658553Y-82559934D02*
X156739366Y-82532996D01*
X156739366Y-82532996D02*
X156847115Y-82425247D01*
X156847115Y-82425247D02*
X156874053Y-82344434D01*
X156874053Y-82344434D02*
X156874053Y-82290560D01*
X156874053Y-82290560D02*
X156847115Y-82209747D01*
X156847115Y-82209747D02*
X156739366Y-82101998D01*
X156739366Y-82101998D02*
X156658553Y-82075060D01*
X156658553Y-82075060D02*
X156604679Y-82075060D01*
X156604679Y-82075060D02*
X156523866Y-82101998D01*
X153670407Y-51958584D02*
X154020593Y-51608398D01*
X154020593Y-51608398D02*
X154047531Y-52012459D01*
X154047531Y-52012459D02*
X154128343Y-51931646D01*
X154128343Y-51931646D02*
X154209155Y-51904709D01*
X154209155Y-51904709D02*
X154263030Y-51904709D01*
X154263030Y-51904709D02*
X154343842Y-51931646D01*
X154343842Y-51931646D02*
X154478529Y-52066333D01*
X154478529Y-52066333D02*
X154505467Y-52147146D01*
X154505467Y-52147146D02*
X154505467Y-52201020D01*
X154505467Y-52201020D02*
X154478529Y-52281833D01*
X154478529Y-52281833D02*
X154316905Y-52443457D01*
X154316905Y-52443457D02*
X154236093Y-52470394D01*
X154236093Y-52470394D02*
X154182218Y-52470394D01*
X154182218Y-51446773D02*
X154936465Y-51823897D01*
X154936465Y-51823897D02*
X154559342Y-51069649D01*
X154694028Y-50934963D02*
X155044215Y-50584776D01*
X155044215Y-50584776D02*
X155071152Y-50988837D01*
X155071152Y-50988837D02*
X155151964Y-50908025D01*
X155151964Y-50908025D02*
X155232776Y-50881088D01*
X155232776Y-50881088D02*
X155286651Y-50881088D01*
X155286651Y-50881088D02*
X155367464Y-50908025D01*
X155367464Y-50908025D02*
X155502151Y-51042712D01*
X155502151Y-51042712D02*
X155529088Y-51123524D01*
X155529088Y-51123524D02*
X155529088Y-51177399D01*
X155529088Y-51177399D02*
X155502151Y-51258211D01*
X155502151Y-51258211D02*
X155340526Y-51419836D01*
X155340526Y-51419836D02*
X155259714Y-51446773D01*
X155259714Y-51446773D02*
X155205839Y-51446773D01*
X155771525Y-51096587D02*
X156202523Y-50665588D01*
X155987024Y-50180715D02*
X156175586Y-49992153D01*
X156552709Y-50207652D02*
X156283335Y-50477026D01*
X156283335Y-50477026D02*
X155717650Y-49911341D01*
X155717650Y-49911341D02*
X155987024Y-49641967D01*
X156795146Y-49965215D02*
X156229461Y-49399530D01*
X156229461Y-49399530D02*
X157118395Y-49641967D01*
X157118395Y-49641967D02*
X156552710Y-49076281D01*
X154999998Y-58302868D02*
X154919185Y-58329805D01*
X154919185Y-58329805D02*
X154838373Y-58410618D01*
X154838373Y-58410618D02*
X154784498Y-58518367D01*
X154784498Y-58518367D02*
X154784498Y-58626117D01*
X154784498Y-58626117D02*
X154811436Y-58706929D01*
X154811436Y-58706929D02*
X154892248Y-58841616D01*
X154892248Y-58841616D02*
X154973060Y-58922428D01*
X154973060Y-58922428D02*
X155107747Y-59003241D01*
X155107747Y-59003241D02*
X155188560Y-59030178D01*
X155188560Y-59030178D02*
X155296309Y-59030178D01*
X155296309Y-59030178D02*
X155404059Y-58976303D01*
X155404059Y-58976303D02*
X155457934Y-58922428D01*
X155457934Y-58922428D02*
X155511808Y-58814679D01*
X155511808Y-58814679D02*
X155511808Y-58760804D01*
X155511808Y-58760804D02*
X155323247Y-58572242D01*
X155323247Y-58572242D02*
X155215497Y-58679992D01*
X155808120Y-58572242D02*
X155242434Y-58006557D01*
X155242434Y-58006557D02*
X155457934Y-57791057D01*
X155457934Y-57791057D02*
X155538746Y-57764120D01*
X155538746Y-57764120D02*
X155592621Y-57764120D01*
X155592621Y-57764120D02*
X155673433Y-57791057D01*
X155673433Y-57791057D02*
X155754245Y-57871870D01*
X155754245Y-57871870D02*
X155781182Y-57952682D01*
X155781182Y-57952682D02*
X155781182Y-58006557D01*
X155781182Y-58006557D02*
X155754245Y-58087369D01*
X155754245Y-58087369D02*
X155538746Y-58302868D01*
X155835057Y-57521683D02*
X155835057Y-57467809D01*
X155835057Y-57467809D02*
X155861995Y-57386996D01*
X155861995Y-57386996D02*
X155996682Y-57252309D01*
X155996682Y-57252309D02*
X156077494Y-57225372D01*
X156077494Y-57225372D02*
X156131369Y-57225372D01*
X156131369Y-57225372D02*
X156212181Y-57252309D01*
X156212181Y-57252309D02*
X156266056Y-57306184D01*
X156266056Y-57306184D02*
X156319930Y-57413934D01*
X156319930Y-57413934D02*
X156319930Y-58060431D01*
X156319930Y-58060431D02*
X156670117Y-57710245D01*
X156670117Y-57063747D02*
X156589305Y-57090685D01*
X156589305Y-57090685D02*
X156535430Y-57090685D01*
X156535430Y-57090685D02*
X156454618Y-57063747D01*
X156454618Y-57063747D02*
X156427680Y-57036810D01*
X156427680Y-57036810D02*
X156400743Y-56955998D01*
X156400743Y-56955998D02*
X156400743Y-56902123D01*
X156400743Y-56902123D02*
X156427680Y-56821311D01*
X156427680Y-56821311D02*
X156535430Y-56713561D01*
X156535430Y-56713561D02*
X156616242Y-56686624D01*
X156616242Y-56686624D02*
X156670117Y-56686624D01*
X156670117Y-56686624D02*
X156750929Y-56713561D01*
X156750929Y-56713561D02*
X156777866Y-56740499D01*
X156777866Y-56740499D02*
X156804804Y-56821311D01*
X156804804Y-56821311D02*
X156804804Y-56875186D01*
X156804804Y-56875186D02*
X156777866Y-56955998D01*
X156777866Y-56955998D02*
X156670117Y-57063747D01*
X156670117Y-57063747D02*
X156643179Y-57144560D01*
X156643179Y-57144560D02*
X156643179Y-57198434D01*
X156643179Y-57198434D02*
X156670117Y-57279247D01*
X156670117Y-57279247D02*
X156777866Y-57386996D01*
X156777866Y-57386996D02*
X156858679Y-57413934D01*
X156858679Y-57413934D02*
X156912553Y-57413934D01*
X156912553Y-57413934D02*
X156993366Y-57386996D01*
X156993366Y-57386996D02*
X157101115Y-57279247D01*
X157101115Y-57279247D02*
X157128053Y-57198434D01*
X157128053Y-57198434D02*
X157128053Y-57144560D01*
X157128053Y-57144560D02*
X157101115Y-57063747D01*
X157101115Y-57063747D02*
X156993366Y-56955998D01*
X156993366Y-56955998D02*
X156912553Y-56929060D01*
X156912553Y-56929060D02*
X156858679Y-56929060D01*
X156858679Y-56929060D02*
X156777866Y-56955998D01*
X143177372Y-64861494D02*
X143096560Y-64888431D01*
X143096560Y-64888431D02*
X143015748Y-64969243D01*
X143015748Y-64969243D02*
X142961873Y-65076993D01*
X142961873Y-65076993D02*
X142961873Y-65184742D01*
X142961873Y-65184742D02*
X142988810Y-65265555D01*
X142988810Y-65265555D02*
X143069623Y-65400242D01*
X143069623Y-65400242D02*
X143150435Y-65481054D01*
X143150435Y-65481054D02*
X143285122Y-65561866D01*
X143285122Y-65561866D02*
X143365934Y-65588803D01*
X143365934Y-65588803D02*
X143473684Y-65588803D01*
X143473684Y-65588803D02*
X143581433Y-65534929D01*
X143581433Y-65534929D02*
X143635308Y-65481054D01*
X143635308Y-65481054D02*
X143689183Y-65373304D01*
X143689183Y-65373304D02*
X143689183Y-65319429D01*
X143689183Y-65319429D02*
X143500621Y-65130868D01*
X143500621Y-65130868D02*
X143392871Y-65238617D01*
X143985494Y-65130868D02*
X143419809Y-64565182D01*
X143419809Y-64565182D02*
X143635308Y-64349683D01*
X143635308Y-64349683D02*
X143716120Y-64322746D01*
X143716120Y-64322746D02*
X143769995Y-64322746D01*
X143769995Y-64322746D02*
X143850807Y-64349683D01*
X143850807Y-64349683D02*
X143931619Y-64430495D01*
X143931619Y-64430495D02*
X143958557Y-64511307D01*
X143958557Y-64511307D02*
X143958557Y-64565182D01*
X143958557Y-64565182D02*
X143931619Y-64645994D01*
X143931619Y-64645994D02*
X143716120Y-64861494D01*
X143931619Y-64053372D02*
X144308743Y-63676248D01*
X144308743Y-63676248D02*
X144631992Y-64484370D01*
X142553998Y-82940868D02*
X142473185Y-82967805D01*
X142473185Y-82967805D02*
X142392373Y-83048618D01*
X142392373Y-83048618D02*
X142338498Y-83156367D01*
X142338498Y-83156367D02*
X142338498Y-83264117D01*
X142338498Y-83264117D02*
X142365436Y-83344929D01*
X142365436Y-83344929D02*
X142446248Y-83479616D01*
X142446248Y-83479616D02*
X142527060Y-83560428D01*
X142527060Y-83560428D02*
X142661747Y-83641241D01*
X142661747Y-83641241D02*
X142742560Y-83668178D01*
X142742560Y-83668178D02*
X142850309Y-83668178D01*
X142850309Y-83668178D02*
X142958059Y-83614303D01*
X142958059Y-83614303D02*
X143011934Y-83560428D01*
X143011934Y-83560428D02*
X143065808Y-83452679D01*
X143065808Y-83452679D02*
X143065808Y-83398804D01*
X143065808Y-83398804D02*
X142877247Y-83210242D01*
X142877247Y-83210242D02*
X142769497Y-83317992D01*
X143362120Y-83210242D02*
X142796434Y-82644557D01*
X142796434Y-82644557D02*
X143011934Y-82429057D01*
X143011934Y-82429057D02*
X143092746Y-82402120D01*
X143092746Y-82402120D02*
X143146621Y-82402120D01*
X143146621Y-82402120D02*
X143227433Y-82429057D01*
X143227433Y-82429057D02*
X143308245Y-82509870D01*
X143308245Y-82509870D02*
X143335182Y-82590682D01*
X143335182Y-82590682D02*
X143335182Y-82644557D01*
X143335182Y-82644557D02*
X143308245Y-82725369D01*
X143308245Y-82725369D02*
X143092746Y-82940868D01*
X144224117Y-82348245D02*
X143900868Y-82671494D01*
X144062492Y-82509870D02*
X143496807Y-81944184D01*
X143496807Y-81944184D02*
X143523744Y-82078871D01*
X143523744Y-82078871D02*
X143523744Y-82186621D01*
X143523744Y-82186621D02*
X143496807Y-82267433D01*
X143846993Y-81593998D02*
X144197179Y-81243812D01*
X144197179Y-81243812D02*
X144224117Y-81647873D01*
X144224117Y-81647873D02*
X144304929Y-81567060D01*
X144304929Y-81567060D02*
X144385741Y-81540123D01*
X144385741Y-81540123D02*
X144439616Y-81540123D01*
X144439616Y-81540123D02*
X144520428Y-81567060D01*
X144520428Y-81567060D02*
X144655115Y-81701747D01*
X144655115Y-81701747D02*
X144682053Y-81782560D01*
X144682053Y-81782560D02*
X144682053Y-81836434D01*
X144682053Y-81836434D02*
X144655115Y-81917247D01*
X144655115Y-81917247D02*
X144493491Y-82078871D01*
X144493491Y-82078871D02*
X144412679Y-82105808D01*
X144412679Y-82105808D02*
X144358804Y-82105808D01*
X142507998Y-88020868D02*
X142427185Y-88047805D01*
X142427185Y-88047805D02*
X142346373Y-88128618D01*
X142346373Y-88128618D02*
X142292498Y-88236367D01*
X142292498Y-88236367D02*
X142292498Y-88344117D01*
X142292498Y-88344117D02*
X142319436Y-88424929D01*
X142319436Y-88424929D02*
X142400248Y-88559616D01*
X142400248Y-88559616D02*
X142481060Y-88640428D01*
X142481060Y-88640428D02*
X142615747Y-88721241D01*
X142615747Y-88721241D02*
X142696560Y-88748178D01*
X142696560Y-88748178D02*
X142804309Y-88748178D01*
X142804309Y-88748178D02*
X142912059Y-88694303D01*
X142912059Y-88694303D02*
X142965934Y-88640428D01*
X142965934Y-88640428D02*
X143019808Y-88532679D01*
X143019808Y-88532679D02*
X143019808Y-88478804D01*
X143019808Y-88478804D02*
X142831247Y-88290242D01*
X142831247Y-88290242D02*
X142723497Y-88397992D01*
X143316120Y-88290242D02*
X142750434Y-87724557D01*
X142750434Y-87724557D02*
X142965934Y-87509057D01*
X142965934Y-87509057D02*
X143046746Y-87482120D01*
X143046746Y-87482120D02*
X143100621Y-87482120D01*
X143100621Y-87482120D02*
X143181433Y-87509057D01*
X143181433Y-87509057D02*
X143262245Y-87589870D01*
X143262245Y-87589870D02*
X143289182Y-87670682D01*
X143289182Y-87670682D02*
X143289182Y-87724557D01*
X143289182Y-87724557D02*
X143262245Y-87805369D01*
X143262245Y-87805369D02*
X143046746Y-88020868D01*
X144178117Y-87428245D02*
X143854868Y-87751494D01*
X144016492Y-87589870D02*
X143450807Y-87024184D01*
X143450807Y-87024184D02*
X143477744Y-87158871D01*
X143477744Y-87158871D02*
X143477744Y-87266621D01*
X143477744Y-87266621D02*
X143450807Y-87347433D01*
X144285866Y-86566248D02*
X144662990Y-86943372D01*
X143935680Y-86485436D02*
X144205054Y-87024184D01*
X144205054Y-87024184D02*
X144555240Y-86673998D01*
X142350475Y-92818200D02*
X142464761Y-92856295D01*
X142464761Y-92856295D02*
X142655237Y-92856295D01*
X142655237Y-92856295D02*
X142731428Y-92818200D01*
X142731428Y-92818200D02*
X142769523Y-92780104D01*
X142769523Y-92780104D02*
X142807618Y-92703914D01*
X142807618Y-92703914D02*
X142807618Y-92627723D01*
X142807618Y-92627723D02*
X142769523Y-92551533D01*
X142769523Y-92551533D02*
X142731428Y-92513438D01*
X142731428Y-92513438D02*
X142655237Y-92475342D01*
X142655237Y-92475342D02*
X142502856Y-92437247D01*
X142502856Y-92437247D02*
X142426666Y-92399152D01*
X142426666Y-92399152D02*
X142388571Y-92361057D01*
X142388571Y-92361057D02*
X142350475Y-92284866D01*
X142350475Y-92284866D02*
X142350475Y-92208676D01*
X142350475Y-92208676D02*
X142388571Y-92132485D01*
X142388571Y-92132485D02*
X142426666Y-92094390D01*
X142426666Y-92094390D02*
X142502856Y-92056295D01*
X142502856Y-92056295D02*
X142693333Y-92056295D01*
X142693333Y-92056295D02*
X142807618Y-92094390D01*
X143074285Y-92056295D02*
X143264761Y-92856295D01*
X143264761Y-92856295D02*
X143417142Y-92284866D01*
X143417142Y-92284866D02*
X143569523Y-92856295D01*
X143569523Y-92856295D02*
X143760000Y-92056295D01*
X144521905Y-92780104D02*
X144483809Y-92818200D01*
X144483809Y-92818200D02*
X144369524Y-92856295D01*
X144369524Y-92856295D02*
X144293333Y-92856295D01*
X144293333Y-92856295D02*
X144179047Y-92818200D01*
X144179047Y-92818200D02*
X144102857Y-92742009D01*
X144102857Y-92742009D02*
X144064762Y-92665819D01*
X144064762Y-92665819D02*
X144026666Y-92513438D01*
X144026666Y-92513438D02*
X144026666Y-92399152D01*
X144026666Y-92399152D02*
X144064762Y-92246771D01*
X144064762Y-92246771D02*
X144102857Y-92170580D01*
X144102857Y-92170580D02*
X144179047Y-92094390D01*
X144179047Y-92094390D02*
X144293333Y-92056295D01*
X144293333Y-92056295D02*
X144369524Y-92056295D01*
X144369524Y-92056295D02*
X144483809Y-92094390D01*
X144483809Y-92094390D02*
X144521905Y-92132485D01*
X145245714Y-92856295D02*
X144864762Y-92856295D01*
X144864762Y-92856295D02*
X144864762Y-92056295D01*
X145512381Y-92856295D02*
X145512381Y-92056295D01*
X145969524Y-92856295D02*
X145626666Y-92399152D01*
X145969524Y-92056295D02*
X145512381Y-92513438D01*
X143077372Y-67431494D02*
X142996560Y-67458431D01*
X142996560Y-67458431D02*
X142915748Y-67539243D01*
X142915748Y-67539243D02*
X142861873Y-67646993D01*
X142861873Y-67646993D02*
X142861873Y-67754742D01*
X142861873Y-67754742D02*
X142888810Y-67835555D01*
X142888810Y-67835555D02*
X142969623Y-67970242D01*
X142969623Y-67970242D02*
X143050435Y-68051054D01*
X143050435Y-68051054D02*
X143185122Y-68131866D01*
X143185122Y-68131866D02*
X143265934Y-68158803D01*
X143265934Y-68158803D02*
X143373684Y-68158803D01*
X143373684Y-68158803D02*
X143481433Y-68104929D01*
X143481433Y-68104929D02*
X143535308Y-68051054D01*
X143535308Y-68051054D02*
X143589183Y-67943304D01*
X143589183Y-67943304D02*
X143589183Y-67889429D01*
X143589183Y-67889429D02*
X143400621Y-67700868D01*
X143400621Y-67700868D02*
X143292871Y-67808617D01*
X143885494Y-67700868D02*
X143319809Y-67135182D01*
X143319809Y-67135182D02*
X143535308Y-66919683D01*
X143535308Y-66919683D02*
X143616120Y-66892746D01*
X143616120Y-66892746D02*
X143669995Y-66892746D01*
X143669995Y-66892746D02*
X143750807Y-66919683D01*
X143750807Y-66919683D02*
X143831619Y-67000495D01*
X143831619Y-67000495D02*
X143858557Y-67081307D01*
X143858557Y-67081307D02*
X143858557Y-67135182D01*
X143858557Y-67135182D02*
X143831619Y-67215994D01*
X143831619Y-67215994D02*
X143616120Y-67431494D01*
X144208743Y-66731121D02*
X144127931Y-66758059D01*
X144127931Y-66758059D02*
X144074056Y-66758059D01*
X144074056Y-66758059D02*
X143993244Y-66731121D01*
X143993244Y-66731121D02*
X143966306Y-66704184D01*
X143966306Y-66704184D02*
X143939369Y-66623372D01*
X143939369Y-66623372D02*
X143939369Y-66569497D01*
X143939369Y-66569497D02*
X143966306Y-66488685D01*
X143966306Y-66488685D02*
X144074056Y-66380935D01*
X144074056Y-66380935D02*
X144154868Y-66353998D01*
X144154868Y-66353998D02*
X144208743Y-66353998D01*
X144208743Y-66353998D02*
X144289555Y-66380935D01*
X144289555Y-66380935D02*
X144316493Y-66407872D01*
X144316493Y-66407872D02*
X144343430Y-66488685D01*
X144343430Y-66488685D02*
X144343430Y-66542559D01*
X144343430Y-66542559D02*
X144316493Y-66623372D01*
X144316493Y-66623372D02*
X144208743Y-66731121D01*
X144208743Y-66731121D02*
X144181806Y-66811933D01*
X144181806Y-66811933D02*
X144181806Y-66865808D01*
X144181806Y-66865808D02*
X144208743Y-66946620D01*
X144208743Y-66946620D02*
X144316493Y-67054370D01*
X144316493Y-67054370D02*
X144397305Y-67081307D01*
X144397305Y-67081307D02*
X144451180Y-67081307D01*
X144451180Y-67081307D02*
X144531992Y-67054370D01*
X144531992Y-67054370D02*
X144639741Y-66946620D01*
X144639741Y-66946620D02*
X144666679Y-66865808D01*
X144666679Y-66865808D02*
X144666679Y-66811933D01*
X144666679Y-66811933D02*
X144639741Y-66731121D01*
X144639741Y-66731121D02*
X144531992Y-66623372D01*
X144531992Y-66623372D02*
X144451180Y-66596434D01*
X144451180Y-66596434D02*
X144397305Y-66596434D01*
X144397305Y-66596434D02*
X144316493Y-66623372D01*
X155480435Y-73028431D02*
X155399623Y-73055368D01*
X155399623Y-73055368D02*
X155318811Y-73136180D01*
X155318811Y-73136180D02*
X155264936Y-73243930D01*
X155264936Y-73243930D02*
X155264936Y-73351680D01*
X155264936Y-73351680D02*
X155291873Y-73432492D01*
X155291873Y-73432492D02*
X155372685Y-73567179D01*
X155372685Y-73567179D02*
X155453498Y-73647991D01*
X155453498Y-73647991D02*
X155588185Y-73728803D01*
X155588185Y-73728803D02*
X155668997Y-73755741D01*
X155668997Y-73755741D02*
X155776746Y-73755741D01*
X155776746Y-73755741D02*
X155884496Y-73701866D01*
X155884496Y-73701866D02*
X155938371Y-73647991D01*
X155938371Y-73647991D02*
X155992246Y-73540241D01*
X155992246Y-73540241D02*
X155992246Y-73486367D01*
X155992246Y-73486367D02*
X155803684Y-73297805D01*
X155803684Y-73297805D02*
X155695934Y-73405554D01*
X156288557Y-73297805D02*
X155722872Y-72732119D01*
X155722872Y-72732119D02*
X156611806Y-72974556D01*
X156611806Y-72974556D02*
X156046120Y-72408871D01*
X156881180Y-72705182D02*
X156315494Y-72139497D01*
X156315494Y-72139497D02*
X156450181Y-72004810D01*
X156450181Y-72004810D02*
X156557931Y-71950935D01*
X156557931Y-71950935D02*
X156665680Y-71950935D01*
X156665680Y-71950935D02*
X156746493Y-71977872D01*
X156746493Y-71977872D02*
X156881180Y-72058685D01*
X156881180Y-72058685D02*
X156961992Y-72139497D01*
X156961992Y-72139497D02*
X157042804Y-72274184D01*
X157042804Y-72274184D02*
X157069741Y-72354996D01*
X157069741Y-72354996D02*
X157069741Y-72462746D01*
X157069741Y-72462746D02*
X157015867Y-72570495D01*
X157015867Y-72570495D02*
X156881180Y-72705182D01*
X154983998Y-75820868D02*
X154903185Y-75847805D01*
X154903185Y-75847805D02*
X154822373Y-75928618D01*
X154822373Y-75928618D02*
X154768498Y-76036367D01*
X154768498Y-76036367D02*
X154768498Y-76144117D01*
X154768498Y-76144117D02*
X154795436Y-76224929D01*
X154795436Y-76224929D02*
X154876248Y-76359616D01*
X154876248Y-76359616D02*
X154957060Y-76440428D01*
X154957060Y-76440428D02*
X155091747Y-76521241D01*
X155091747Y-76521241D02*
X155172560Y-76548178D01*
X155172560Y-76548178D02*
X155280309Y-76548178D01*
X155280309Y-76548178D02*
X155388059Y-76494303D01*
X155388059Y-76494303D02*
X155441934Y-76440428D01*
X155441934Y-76440428D02*
X155495808Y-76332679D01*
X155495808Y-76332679D02*
X155495808Y-76278804D01*
X155495808Y-76278804D02*
X155307247Y-76090242D01*
X155307247Y-76090242D02*
X155199497Y-76197992D01*
X155792120Y-76090242D02*
X155226434Y-75524557D01*
X155226434Y-75524557D02*
X155441934Y-75309057D01*
X155441934Y-75309057D02*
X155522746Y-75282120D01*
X155522746Y-75282120D02*
X155576621Y-75282120D01*
X155576621Y-75282120D02*
X155657433Y-75309057D01*
X155657433Y-75309057D02*
X155738245Y-75389870D01*
X155738245Y-75389870D02*
X155765182Y-75470682D01*
X155765182Y-75470682D02*
X155765182Y-75524557D01*
X155765182Y-75524557D02*
X155738245Y-75605369D01*
X155738245Y-75605369D02*
X155522746Y-75820868D01*
X155819057Y-75039683D02*
X155819057Y-74985809D01*
X155819057Y-74985809D02*
X155845995Y-74904996D01*
X155845995Y-74904996D02*
X155980682Y-74770309D01*
X155980682Y-74770309D02*
X156061494Y-74743372D01*
X156061494Y-74743372D02*
X156115369Y-74743372D01*
X156115369Y-74743372D02*
X156196181Y-74770309D01*
X156196181Y-74770309D02*
X156250056Y-74824184D01*
X156250056Y-74824184D02*
X156303930Y-74931934D01*
X156303930Y-74931934D02*
X156303930Y-75578431D01*
X156303930Y-75578431D02*
X156654117Y-75228245D01*
X157192865Y-74689497D02*
X156869616Y-75012746D01*
X157031240Y-74851121D02*
X156465555Y-74285436D01*
X156465555Y-74285436D02*
X156492492Y-74420123D01*
X156492492Y-74420123D02*
X156492492Y-74527873D01*
X156492492Y-74527873D02*
X156465555Y-74608685D01*
X142553998Y-90560868D02*
X142473185Y-90587805D01*
X142473185Y-90587805D02*
X142392373Y-90668618D01*
X142392373Y-90668618D02*
X142338498Y-90776367D01*
X142338498Y-90776367D02*
X142338498Y-90884117D01*
X142338498Y-90884117D02*
X142365436Y-90964929D01*
X142365436Y-90964929D02*
X142446248Y-91099616D01*
X142446248Y-91099616D02*
X142527060Y-91180428D01*
X142527060Y-91180428D02*
X142661747Y-91261241D01*
X142661747Y-91261241D02*
X142742560Y-91288178D01*
X142742560Y-91288178D02*
X142850309Y-91288178D01*
X142850309Y-91288178D02*
X142958059Y-91234303D01*
X142958059Y-91234303D02*
X143011934Y-91180428D01*
X143011934Y-91180428D02*
X143065808Y-91072679D01*
X143065808Y-91072679D02*
X143065808Y-91018804D01*
X143065808Y-91018804D02*
X142877247Y-90830242D01*
X142877247Y-90830242D02*
X142769497Y-90937992D01*
X143362120Y-90830242D02*
X142796434Y-90264557D01*
X142796434Y-90264557D02*
X143011934Y-90049057D01*
X143011934Y-90049057D02*
X143092746Y-90022120D01*
X143092746Y-90022120D02*
X143146621Y-90022120D01*
X143146621Y-90022120D02*
X143227433Y-90049057D01*
X143227433Y-90049057D02*
X143308245Y-90129870D01*
X143308245Y-90129870D02*
X143335182Y-90210682D01*
X143335182Y-90210682D02*
X143335182Y-90264557D01*
X143335182Y-90264557D02*
X143308245Y-90345369D01*
X143308245Y-90345369D02*
X143092746Y-90560868D01*
X144224117Y-89968245D02*
X143900868Y-90291494D01*
X144062492Y-90129870D02*
X143496807Y-89564184D01*
X143496807Y-89564184D02*
X143523744Y-89698871D01*
X143523744Y-89698871D02*
X143523744Y-89806621D01*
X143523744Y-89806621D02*
X143496807Y-89887433D01*
X144170242Y-88890749D02*
X143900868Y-89160123D01*
X143900868Y-89160123D02*
X144143305Y-89456434D01*
X144143305Y-89456434D02*
X144143305Y-89402560D01*
X144143305Y-89402560D02*
X144170242Y-89321747D01*
X144170242Y-89321747D02*
X144304929Y-89187060D01*
X144304929Y-89187060D02*
X144385741Y-89160123D01*
X144385741Y-89160123D02*
X144439616Y-89160123D01*
X144439616Y-89160123D02*
X144520428Y-89187060D01*
X144520428Y-89187060D02*
X144655115Y-89321747D01*
X144655115Y-89321747D02*
X144682053Y-89402560D01*
X144682053Y-89402560D02*
X144682053Y-89456434D01*
X144682053Y-89456434D02*
X144655115Y-89537247D01*
X144655115Y-89537247D02*
X144520428Y-89671934D01*
X144520428Y-89671934D02*
X144439616Y-89698871D01*
X144439616Y-89698871D02*
X144385741Y-89698871D01*
X143077372Y-57271494D02*
X142996560Y-57298431D01*
X142996560Y-57298431D02*
X142915748Y-57379243D01*
X142915748Y-57379243D02*
X142861873Y-57486993D01*
X142861873Y-57486993D02*
X142861873Y-57594742D01*
X142861873Y-57594742D02*
X142888810Y-57675555D01*
X142888810Y-57675555D02*
X142969623Y-57810242D01*
X142969623Y-57810242D02*
X143050435Y-57891054D01*
X143050435Y-57891054D02*
X143185122Y-57971866D01*
X143185122Y-57971866D02*
X143265934Y-57998803D01*
X143265934Y-57998803D02*
X143373684Y-57998803D01*
X143373684Y-57998803D02*
X143481433Y-57944929D01*
X143481433Y-57944929D02*
X143535308Y-57891054D01*
X143535308Y-57891054D02*
X143589183Y-57783304D01*
X143589183Y-57783304D02*
X143589183Y-57729429D01*
X143589183Y-57729429D02*
X143400621Y-57540868D01*
X143400621Y-57540868D02*
X143292871Y-57648617D01*
X143885494Y-57540868D02*
X143319809Y-56975182D01*
X143319809Y-56975182D02*
X143535308Y-56759683D01*
X143535308Y-56759683D02*
X143616120Y-56732746D01*
X143616120Y-56732746D02*
X143669995Y-56732746D01*
X143669995Y-56732746D02*
X143750807Y-56759683D01*
X143750807Y-56759683D02*
X143831619Y-56840495D01*
X143831619Y-56840495D02*
X143858557Y-56921307D01*
X143858557Y-56921307D02*
X143858557Y-56975182D01*
X143858557Y-56975182D02*
X143831619Y-57055994D01*
X143831619Y-57055994D02*
X143616120Y-57271494D01*
X144154868Y-56140123D02*
X143885494Y-56409497D01*
X143885494Y-56409497D02*
X144127931Y-56705808D01*
X144127931Y-56705808D02*
X144127931Y-56651933D01*
X144127931Y-56651933D02*
X144154868Y-56571121D01*
X144154868Y-56571121D02*
X144289555Y-56436434D01*
X144289555Y-56436434D02*
X144370367Y-56409497D01*
X144370367Y-56409497D02*
X144424242Y-56409497D01*
X144424242Y-56409497D02*
X144505054Y-56436434D01*
X144505054Y-56436434D02*
X144639741Y-56571121D01*
X144639741Y-56571121D02*
X144666679Y-56651933D01*
X144666679Y-56651933D02*
X144666679Y-56705808D01*
X144666679Y-56705808D02*
X144639741Y-56786620D01*
X144639741Y-56786620D02*
X144505054Y-56921307D01*
X144505054Y-56921307D02*
X144424242Y-56948245D01*
X144424242Y-56948245D02*
X144370367Y-56948245D01*
X153349064Y-58422049D02*
X153618438Y-58152675D01*
X153456813Y-58637549D02*
X153079690Y-57883301D01*
X153079690Y-57883301D02*
X153833937Y-58260425D01*
X154022499Y-58071863D02*
X153456813Y-57506178D01*
X153456813Y-57506178D02*
X153591500Y-57371491D01*
X153591500Y-57371491D02*
X153699250Y-57317616D01*
X153699250Y-57317616D02*
X153806999Y-57317616D01*
X153806999Y-57317616D02*
X153887812Y-57344553D01*
X153887812Y-57344553D02*
X154022499Y-57425366D01*
X154022499Y-57425366D02*
X154103311Y-57506178D01*
X154103311Y-57506178D02*
X154184123Y-57640865D01*
X154184123Y-57640865D02*
X154211060Y-57721677D01*
X154211060Y-57721677D02*
X154211060Y-57829427D01*
X154211060Y-57829427D02*
X154157186Y-57937176D01*
X154157186Y-57937176D02*
X154022499Y-58071863D01*
X154857558Y-57129054D02*
X154857558Y-57182929D01*
X154857558Y-57182929D02*
X154803683Y-57290679D01*
X154803683Y-57290679D02*
X154749808Y-57344553D01*
X154749808Y-57344553D02*
X154642059Y-57398428D01*
X154642059Y-57398428D02*
X154534309Y-57398428D01*
X154534309Y-57398428D02*
X154453497Y-57371491D01*
X154453497Y-57371491D02*
X154318810Y-57290679D01*
X154318810Y-57290679D02*
X154237998Y-57209866D01*
X154237998Y-57209866D02*
X154157186Y-57075179D01*
X154157186Y-57075179D02*
X154130248Y-56994367D01*
X154130248Y-56994367D02*
X154130248Y-56886618D01*
X154130248Y-56886618D02*
X154184123Y-56778868D01*
X154184123Y-56778868D02*
X154237998Y-56724993D01*
X154237998Y-56724993D02*
X154345747Y-56671118D01*
X154345747Y-56671118D02*
X154399622Y-56671118D01*
X155073057Y-57129054D02*
X155504056Y-56698056D01*
X154938370Y-56024621D02*
X155692618Y-56401744D01*
X155692618Y-56401744D02*
X155315494Y-55647497D01*
X156392990Y-55701372D02*
X155935054Y-55620560D01*
X156069741Y-56024621D02*
X155504056Y-55458935D01*
X155504056Y-55458935D02*
X155719555Y-55243436D01*
X155719555Y-55243436D02*
X155800367Y-55216499D01*
X155800367Y-55216499D02*
X155854242Y-55216499D01*
X155854242Y-55216499D02*
X155935054Y-55243436D01*
X155935054Y-55243436D02*
X156015866Y-55324248D01*
X156015866Y-55324248D02*
X156042804Y-55405061D01*
X156042804Y-55405061D02*
X156042804Y-55458935D01*
X156042804Y-55458935D02*
X156015866Y-55539748D01*
X156015866Y-55539748D02*
X155800367Y-55755247D01*
X156339115Y-55162624D02*
X156527677Y-54974062D01*
X156904800Y-55189561D02*
X156635426Y-55458935D01*
X156635426Y-55458935D02*
X156069741Y-54893250D01*
X156069741Y-54893250D02*
X156339115Y-54623876D01*
X157039488Y-54462251D02*
X156850926Y-54650813D01*
X157147237Y-54947125D02*
X156581552Y-54381439D01*
X156581552Y-54381439D02*
X156850926Y-54112065D01*
X154983998Y-70730868D02*
X154903185Y-70757805D01*
X154903185Y-70757805D02*
X154822373Y-70838618D01*
X154822373Y-70838618D02*
X154768498Y-70946367D01*
X154768498Y-70946367D02*
X154768498Y-71054117D01*
X154768498Y-71054117D02*
X154795436Y-71134929D01*
X154795436Y-71134929D02*
X154876248Y-71269616D01*
X154876248Y-71269616D02*
X154957060Y-71350428D01*
X154957060Y-71350428D02*
X155091747Y-71431241D01*
X155091747Y-71431241D02*
X155172560Y-71458178D01*
X155172560Y-71458178D02*
X155280309Y-71458178D01*
X155280309Y-71458178D02*
X155388059Y-71404303D01*
X155388059Y-71404303D02*
X155441934Y-71350428D01*
X155441934Y-71350428D02*
X155495808Y-71242679D01*
X155495808Y-71242679D02*
X155495808Y-71188804D01*
X155495808Y-71188804D02*
X155307247Y-71000242D01*
X155307247Y-71000242D02*
X155199497Y-71107992D01*
X155792120Y-71000242D02*
X155226434Y-70434557D01*
X155226434Y-70434557D02*
X155441934Y-70219057D01*
X155441934Y-70219057D02*
X155522746Y-70192120D01*
X155522746Y-70192120D02*
X155576621Y-70192120D01*
X155576621Y-70192120D02*
X155657433Y-70219057D01*
X155657433Y-70219057D02*
X155738245Y-70299870D01*
X155738245Y-70299870D02*
X155765182Y-70380682D01*
X155765182Y-70380682D02*
X155765182Y-70434557D01*
X155765182Y-70434557D02*
X155738245Y-70515369D01*
X155738245Y-70515369D02*
X155522746Y-70730868D01*
X155819057Y-69949683D02*
X155819057Y-69895809D01*
X155819057Y-69895809D02*
X155845995Y-69814996D01*
X155845995Y-69814996D02*
X155980682Y-69680309D01*
X155980682Y-69680309D02*
X156061494Y-69653372D01*
X156061494Y-69653372D02*
X156115369Y-69653372D01*
X156115369Y-69653372D02*
X156196181Y-69680309D01*
X156196181Y-69680309D02*
X156250056Y-69734184D01*
X156250056Y-69734184D02*
X156303930Y-69841934D01*
X156303930Y-69841934D02*
X156303930Y-70488431D01*
X156303930Y-70488431D02*
X156654117Y-70138245D01*
X156357805Y-69410935D02*
X156357805Y-69357060D01*
X156357805Y-69357060D02*
X156384743Y-69276248D01*
X156384743Y-69276248D02*
X156519430Y-69141561D01*
X156519430Y-69141561D02*
X156600242Y-69114624D01*
X156600242Y-69114624D02*
X156654117Y-69114624D01*
X156654117Y-69114624D02*
X156734929Y-69141561D01*
X156734929Y-69141561D02*
X156788804Y-69195436D01*
X156788804Y-69195436D02*
X156842679Y-69303186D01*
X156842679Y-69303186D02*
X156842679Y-69949683D01*
X156842679Y-69949683D02*
X157192865Y-69599497D01*
X154745998Y-88528868D02*
X154665185Y-88555805D01*
X154665185Y-88555805D02*
X154584373Y-88636618D01*
X154584373Y-88636618D02*
X154530498Y-88744367D01*
X154530498Y-88744367D02*
X154530498Y-88852117D01*
X154530498Y-88852117D02*
X154557436Y-88932929D01*
X154557436Y-88932929D02*
X154638248Y-89067616D01*
X154638248Y-89067616D02*
X154719060Y-89148428D01*
X154719060Y-89148428D02*
X154853747Y-89229241D01*
X154853747Y-89229241D02*
X154934560Y-89256178D01*
X154934560Y-89256178D02*
X155042309Y-89256178D01*
X155042309Y-89256178D02*
X155150059Y-89202303D01*
X155150059Y-89202303D02*
X155203934Y-89148428D01*
X155203934Y-89148428D02*
X155257808Y-89040679D01*
X155257808Y-89040679D02*
X155257808Y-88986804D01*
X155257808Y-88986804D02*
X155069247Y-88798242D01*
X155069247Y-88798242D02*
X154961497Y-88905992D01*
X155554120Y-88798242D02*
X154988434Y-88232557D01*
X154988434Y-88232557D02*
X155203934Y-88017057D01*
X155203934Y-88017057D02*
X155284746Y-87990120D01*
X155284746Y-87990120D02*
X155338621Y-87990120D01*
X155338621Y-87990120D02*
X155419433Y-88017057D01*
X155419433Y-88017057D02*
X155500245Y-88097870D01*
X155500245Y-88097870D02*
X155527182Y-88178682D01*
X155527182Y-88178682D02*
X155527182Y-88232557D01*
X155527182Y-88232557D02*
X155500245Y-88313369D01*
X155500245Y-88313369D02*
X155284746Y-88528868D01*
X156416117Y-87936245D02*
X156092868Y-88259494D01*
X156254492Y-88097870D02*
X155688807Y-87532184D01*
X155688807Y-87532184D02*
X155715744Y-87666871D01*
X155715744Y-87666871D02*
X155715744Y-87774621D01*
X155715744Y-87774621D02*
X155688807Y-87855433D01*
X156038993Y-87181998D02*
X156416117Y-86804874D01*
X156416117Y-86804874D02*
X156739366Y-87612996D01*
X143050435Y-72538431D02*
X142969623Y-72565368D01*
X142969623Y-72565368D02*
X142888811Y-72646180D01*
X142888811Y-72646180D02*
X142834936Y-72753930D01*
X142834936Y-72753930D02*
X142834936Y-72861680D01*
X142834936Y-72861680D02*
X142861873Y-72942492D01*
X142861873Y-72942492D02*
X142942685Y-73077179D01*
X142942685Y-73077179D02*
X143023498Y-73157991D01*
X143023498Y-73157991D02*
X143158185Y-73238803D01*
X143158185Y-73238803D02*
X143238997Y-73265741D01*
X143238997Y-73265741D02*
X143346746Y-73265741D01*
X143346746Y-73265741D02*
X143454496Y-73211866D01*
X143454496Y-73211866D02*
X143508371Y-73157991D01*
X143508371Y-73157991D02*
X143562246Y-73050241D01*
X143562246Y-73050241D02*
X143562246Y-72996367D01*
X143562246Y-72996367D02*
X143373684Y-72807805D01*
X143373684Y-72807805D02*
X143265934Y-72915554D01*
X143858557Y-72807805D02*
X143292872Y-72242119D01*
X143292872Y-72242119D02*
X144181806Y-72484556D01*
X144181806Y-72484556D02*
X143616120Y-71918871D01*
X144451180Y-72215182D02*
X143885494Y-71649497D01*
X143885494Y-71649497D02*
X144020181Y-71514810D01*
X144020181Y-71514810D02*
X144127931Y-71460935D01*
X144127931Y-71460935D02*
X144235680Y-71460935D01*
X144235680Y-71460935D02*
X144316493Y-71487872D01*
X144316493Y-71487872D02*
X144451180Y-71568685D01*
X144451180Y-71568685D02*
X144531992Y-71649497D01*
X144531992Y-71649497D02*
X144612804Y-71784184D01*
X144612804Y-71784184D02*
X144639741Y-71864996D01*
X144639741Y-71864996D02*
X144639741Y-71972746D01*
X144639741Y-71972746D02*
X144585867Y-72080495D01*
X144585867Y-72080495D02*
X144451180Y-72215182D01*
X142977372Y-49651494D02*
X142896560Y-49678431D01*
X142896560Y-49678431D02*
X142815748Y-49759243D01*
X142815748Y-49759243D02*
X142761873Y-49866993D01*
X142761873Y-49866993D02*
X142761873Y-49974742D01*
X142761873Y-49974742D02*
X142788810Y-50055555D01*
X142788810Y-50055555D02*
X142869623Y-50190242D01*
X142869623Y-50190242D02*
X142950435Y-50271054D01*
X142950435Y-50271054D02*
X143085122Y-50351866D01*
X143085122Y-50351866D02*
X143165934Y-50378803D01*
X143165934Y-50378803D02*
X143273684Y-50378803D01*
X143273684Y-50378803D02*
X143381433Y-50324929D01*
X143381433Y-50324929D02*
X143435308Y-50271054D01*
X143435308Y-50271054D02*
X143489183Y-50163304D01*
X143489183Y-50163304D02*
X143489183Y-50109429D01*
X143489183Y-50109429D02*
X143300621Y-49920868D01*
X143300621Y-49920868D02*
X143192871Y-50028617D01*
X143785494Y-49920868D02*
X143219809Y-49355182D01*
X143219809Y-49355182D02*
X143435308Y-49139683D01*
X143435308Y-49139683D02*
X143516120Y-49112746D01*
X143516120Y-49112746D02*
X143569995Y-49112746D01*
X143569995Y-49112746D02*
X143650807Y-49139683D01*
X143650807Y-49139683D02*
X143731619Y-49220495D01*
X143731619Y-49220495D02*
X143758557Y-49301307D01*
X143758557Y-49301307D02*
X143758557Y-49355182D01*
X143758557Y-49355182D02*
X143731619Y-49435994D01*
X143731619Y-49435994D02*
X143516120Y-49651494D01*
X143812432Y-48870309D02*
X143812432Y-48816434D01*
X143812432Y-48816434D02*
X143839369Y-48735622D01*
X143839369Y-48735622D02*
X143974056Y-48600935D01*
X143974056Y-48600935D02*
X144054868Y-48573998D01*
X144054868Y-48573998D02*
X144108743Y-48573998D01*
X144108743Y-48573998D02*
X144189555Y-48600935D01*
X144189555Y-48600935D02*
X144243430Y-48654810D01*
X144243430Y-48654810D02*
X144297305Y-48762559D01*
X144297305Y-48762559D02*
X144297305Y-49409057D01*
X144297305Y-49409057D02*
X144647491Y-49058871D01*
X155832651Y-68473710D02*
X155374716Y-68392898D01*
X155509403Y-68796959D02*
X154943717Y-68231274D01*
X154943717Y-68231274D02*
X155159216Y-68015775D01*
X155159216Y-68015775D02*
X155240029Y-67988837D01*
X155240029Y-67988837D02*
X155293903Y-67988837D01*
X155293903Y-67988837D02*
X155374716Y-68015775D01*
X155374716Y-68015775D02*
X155455528Y-68096587D01*
X155455528Y-68096587D02*
X155482465Y-68177399D01*
X155482465Y-68177399D02*
X155482465Y-68231274D01*
X155482465Y-68231274D02*
X155455528Y-68312086D01*
X155455528Y-68312086D02*
X155240029Y-68527585D01*
X155509403Y-67665588D02*
X155967338Y-68123524D01*
X155967338Y-68123524D02*
X156048151Y-68150462D01*
X156048151Y-68150462D02*
X156102025Y-68150462D01*
X156102025Y-68150462D02*
X156182838Y-68123524D01*
X156182838Y-68123524D02*
X156290587Y-68015775D01*
X156290587Y-68015775D02*
X156317525Y-67934962D01*
X156317525Y-67934962D02*
X156317525Y-67881088D01*
X156317525Y-67881088D02*
X156290587Y-67800275D01*
X156290587Y-67800275D02*
X155832651Y-67342340D01*
X156667711Y-67638651D02*
X156102025Y-67072966D01*
X156102025Y-67072966D02*
X156990959Y-67315402D01*
X156990959Y-67315402D02*
X156425274Y-66749717D01*
X143050435Y-59838431D02*
X142969623Y-59865368D01*
X142969623Y-59865368D02*
X142888811Y-59946180D01*
X142888811Y-59946180D02*
X142834936Y-60053930D01*
X142834936Y-60053930D02*
X142834936Y-60161680D01*
X142834936Y-60161680D02*
X142861873Y-60242492D01*
X142861873Y-60242492D02*
X142942685Y-60377179D01*
X142942685Y-60377179D02*
X143023498Y-60457991D01*
X143023498Y-60457991D02*
X143158185Y-60538803D01*
X143158185Y-60538803D02*
X143238997Y-60565741D01*
X143238997Y-60565741D02*
X143346746Y-60565741D01*
X143346746Y-60565741D02*
X143454496Y-60511866D01*
X143454496Y-60511866D02*
X143508371Y-60457991D01*
X143508371Y-60457991D02*
X143562246Y-60350241D01*
X143562246Y-60350241D02*
X143562246Y-60296367D01*
X143562246Y-60296367D02*
X143373684Y-60107805D01*
X143373684Y-60107805D02*
X143265934Y-60215554D01*
X143858557Y-60107805D02*
X143292872Y-59542119D01*
X143292872Y-59542119D02*
X144181806Y-59784556D01*
X144181806Y-59784556D02*
X143616120Y-59218871D01*
X144451180Y-59515182D02*
X143885494Y-58949497D01*
X143885494Y-58949497D02*
X144020181Y-58814810D01*
X144020181Y-58814810D02*
X144127931Y-58760935D01*
X144127931Y-58760935D02*
X144235680Y-58760935D01*
X144235680Y-58760935D02*
X144316493Y-58787872D01*
X144316493Y-58787872D02*
X144451180Y-58868685D01*
X144451180Y-58868685D02*
X144531992Y-58949497D01*
X144531992Y-58949497D02*
X144612804Y-59084184D01*
X144612804Y-59084184D02*
X144639741Y-59164996D01*
X144639741Y-59164996D02*
X144639741Y-59272746D01*
X144639741Y-59272746D02*
X144585867Y-59380495D01*
X144585867Y-59380495D02*
X144451180Y-59515182D01*
X154514749Y-45600242D02*
X155268996Y-45977366D01*
X155268996Y-45977366D02*
X154891873Y-45223118D01*
X155592245Y-45600242D02*
X155699995Y-45546367D01*
X155699995Y-45546367D02*
X155834682Y-45411680D01*
X155834682Y-45411680D02*
X155861619Y-45330868D01*
X155861619Y-45330868D02*
X155861619Y-45276993D01*
X155861619Y-45276993D02*
X155834682Y-45196181D01*
X155834682Y-45196181D02*
X155780807Y-45142306D01*
X155780807Y-45142306D02*
X155699995Y-45115369D01*
X155699995Y-45115369D02*
X155646120Y-45115369D01*
X155646120Y-45115369D02*
X155565308Y-45142306D01*
X155565308Y-45142306D02*
X155430621Y-45223118D01*
X155430621Y-45223118D02*
X155349808Y-45250056D01*
X155349808Y-45250056D02*
X155295934Y-45250056D01*
X155295934Y-45250056D02*
X155215121Y-45223118D01*
X155215121Y-45223118D02*
X155161247Y-45169244D01*
X155161247Y-45169244D02*
X155134309Y-45088431D01*
X155134309Y-45088431D02*
X155134309Y-45034557D01*
X155134309Y-45034557D02*
X155161247Y-44953744D01*
X155161247Y-44953744D02*
X155295934Y-44819057D01*
X155295934Y-44819057D02*
X155403683Y-44765183D01*
X156023244Y-44684370D02*
X156292618Y-44953744D01*
X155538370Y-44576621D02*
X156023244Y-44684370D01*
X156023244Y-44684370D02*
X155915494Y-44199497D01*
X156615866Y-44576621D02*
X156723616Y-44522746D01*
X156723616Y-44522746D02*
X156858303Y-44388059D01*
X156858303Y-44388059D02*
X156885240Y-44307247D01*
X156885240Y-44307247D02*
X156885240Y-44253372D01*
X156885240Y-44253372D02*
X156858303Y-44172560D01*
X156858303Y-44172560D02*
X156804428Y-44118685D01*
X156804428Y-44118685D02*
X156723616Y-44091748D01*
X156723616Y-44091748D02*
X156669741Y-44091748D01*
X156669741Y-44091748D02*
X156588929Y-44118685D01*
X156588929Y-44118685D02*
X156454242Y-44199497D01*
X156454242Y-44199497D02*
X156373430Y-44226435D01*
X156373430Y-44226435D02*
X156319555Y-44226435D01*
X156319555Y-44226435D02*
X156238743Y-44199497D01*
X156238743Y-44199497D02*
X156184868Y-44145622D01*
X156184868Y-44145622D02*
X156157930Y-44064810D01*
X156157930Y-44064810D02*
X156157930Y-44010935D01*
X156157930Y-44010935D02*
X156184868Y-43930123D01*
X156184868Y-43930123D02*
X156319555Y-43795436D01*
X156319555Y-43795436D02*
X156427304Y-43741561D01*
X154745998Y-90814868D02*
X154665185Y-90841805D01*
X154665185Y-90841805D02*
X154584373Y-90922618D01*
X154584373Y-90922618D02*
X154530498Y-91030367D01*
X154530498Y-91030367D02*
X154530498Y-91138117D01*
X154530498Y-91138117D02*
X154557436Y-91218929D01*
X154557436Y-91218929D02*
X154638248Y-91353616D01*
X154638248Y-91353616D02*
X154719060Y-91434428D01*
X154719060Y-91434428D02*
X154853747Y-91515241D01*
X154853747Y-91515241D02*
X154934560Y-91542178D01*
X154934560Y-91542178D02*
X155042309Y-91542178D01*
X155042309Y-91542178D02*
X155150059Y-91488303D01*
X155150059Y-91488303D02*
X155203934Y-91434428D01*
X155203934Y-91434428D02*
X155257808Y-91326679D01*
X155257808Y-91326679D02*
X155257808Y-91272804D01*
X155257808Y-91272804D02*
X155069247Y-91084242D01*
X155069247Y-91084242D02*
X154961497Y-91191992D01*
X155554120Y-91084242D02*
X154988434Y-90518557D01*
X154988434Y-90518557D02*
X155203934Y-90303057D01*
X155203934Y-90303057D02*
X155284746Y-90276120D01*
X155284746Y-90276120D02*
X155338621Y-90276120D01*
X155338621Y-90276120D02*
X155419433Y-90303057D01*
X155419433Y-90303057D02*
X155500245Y-90383870D01*
X155500245Y-90383870D02*
X155527182Y-90464682D01*
X155527182Y-90464682D02*
X155527182Y-90518557D01*
X155527182Y-90518557D02*
X155500245Y-90599369D01*
X155500245Y-90599369D02*
X155284746Y-90814868D01*
X156416117Y-90222245D02*
X156092868Y-90545494D01*
X156254492Y-90383870D02*
X155688807Y-89818184D01*
X155688807Y-89818184D02*
X155715744Y-89952871D01*
X155715744Y-89952871D02*
X155715744Y-90060621D01*
X155715744Y-90060621D02*
X155688807Y-90141433D01*
X156335305Y-89171686D02*
X156227555Y-89279436D01*
X156227555Y-89279436D02*
X156200618Y-89360248D01*
X156200618Y-89360248D02*
X156200618Y-89414123D01*
X156200618Y-89414123D02*
X156227555Y-89548810D01*
X156227555Y-89548810D02*
X156308367Y-89683497D01*
X156308367Y-89683497D02*
X156523866Y-89898996D01*
X156523866Y-89898996D02*
X156604679Y-89925934D01*
X156604679Y-89925934D02*
X156658553Y-89925934D01*
X156658553Y-89925934D02*
X156739366Y-89898996D01*
X156739366Y-89898996D02*
X156847115Y-89791247D01*
X156847115Y-89791247D02*
X156874053Y-89710434D01*
X156874053Y-89710434D02*
X156874053Y-89656560D01*
X156874053Y-89656560D02*
X156847115Y-89575747D01*
X156847115Y-89575747D02*
X156712428Y-89441060D01*
X156712428Y-89441060D02*
X156631616Y-89414123D01*
X156631616Y-89414123D02*
X156577741Y-89414123D01*
X156577741Y-89414123D02*
X156496929Y-89441060D01*
X156496929Y-89441060D02*
X156389179Y-89548810D01*
X156389179Y-89548810D02*
X156362242Y-89629622D01*
X156362242Y-89629622D02*
X156362242Y-89683497D01*
X156362242Y-89683497D02*
X156389179Y-89764309D01*
X154983998Y-63120868D02*
X154903185Y-63147805D01*
X154903185Y-63147805D02*
X154822373Y-63228618D01*
X154822373Y-63228618D02*
X154768498Y-63336367D01*
X154768498Y-63336367D02*
X154768498Y-63444117D01*
X154768498Y-63444117D02*
X154795436Y-63524929D01*
X154795436Y-63524929D02*
X154876248Y-63659616D01*
X154876248Y-63659616D02*
X154957060Y-63740428D01*
X154957060Y-63740428D02*
X155091747Y-63821241D01*
X155091747Y-63821241D02*
X155172560Y-63848178D01*
X155172560Y-63848178D02*
X155280309Y-63848178D01*
X155280309Y-63848178D02*
X155388059Y-63794303D01*
X155388059Y-63794303D02*
X155441934Y-63740428D01*
X155441934Y-63740428D02*
X155495808Y-63632679D01*
X155495808Y-63632679D02*
X155495808Y-63578804D01*
X155495808Y-63578804D02*
X155307247Y-63390242D01*
X155307247Y-63390242D02*
X155199497Y-63497992D01*
X155792120Y-63390242D02*
X155226434Y-62824557D01*
X155226434Y-62824557D02*
X155441934Y-62609057D01*
X155441934Y-62609057D02*
X155522746Y-62582120D01*
X155522746Y-62582120D02*
X155576621Y-62582120D01*
X155576621Y-62582120D02*
X155657433Y-62609057D01*
X155657433Y-62609057D02*
X155738245Y-62689870D01*
X155738245Y-62689870D02*
X155765182Y-62770682D01*
X155765182Y-62770682D02*
X155765182Y-62824557D01*
X155765182Y-62824557D02*
X155738245Y-62905369D01*
X155738245Y-62905369D02*
X155522746Y-63120868D01*
X155819057Y-62339683D02*
X155819057Y-62285809D01*
X155819057Y-62285809D02*
X155845995Y-62204996D01*
X155845995Y-62204996D02*
X155980682Y-62070309D01*
X155980682Y-62070309D02*
X156061494Y-62043372D01*
X156061494Y-62043372D02*
X156115369Y-62043372D01*
X156115369Y-62043372D02*
X156196181Y-62070309D01*
X156196181Y-62070309D02*
X156250056Y-62124184D01*
X156250056Y-62124184D02*
X156303930Y-62231934D01*
X156303930Y-62231934D02*
X156303930Y-62878431D01*
X156303930Y-62878431D02*
X156654117Y-62528245D01*
X156276993Y-61773998D02*
X156654117Y-61396874D01*
X156654117Y-61396874D02*
X156977366Y-62204996D01*
D11*
X145145333Y-119059609D02*
X145478666Y-119059609D01*
X145621523Y-119583419D02*
X145145333Y-119583419D01*
X145145333Y-119583419D02*
X145145333Y-118583419D01*
X145145333Y-118583419D02*
X145621523Y-118583419D01*
X146002476Y-119535800D02*
X146145333Y-119583419D01*
X146145333Y-119583419D02*
X146383428Y-119583419D01*
X146383428Y-119583419D02*
X146478666Y-119535800D01*
X146478666Y-119535800D02*
X146526285Y-119488180D01*
X146526285Y-119488180D02*
X146573904Y-119392942D01*
X146573904Y-119392942D02*
X146573904Y-119297704D01*
X146573904Y-119297704D02*
X146526285Y-119202466D01*
X146526285Y-119202466D02*
X146478666Y-119154847D01*
X146478666Y-119154847D02*
X146383428Y-119107228D01*
X146383428Y-119107228D02*
X146192952Y-119059609D01*
X146192952Y-119059609D02*
X146097714Y-119011990D01*
X146097714Y-119011990D02*
X146050095Y-118964371D01*
X146050095Y-118964371D02*
X146002476Y-118869133D01*
X146002476Y-118869133D02*
X146002476Y-118773895D01*
X146002476Y-118773895D02*
X146050095Y-118678657D01*
X146050095Y-118678657D02*
X146097714Y-118631038D01*
X146097714Y-118631038D02*
X146192952Y-118583419D01*
X146192952Y-118583419D02*
X146431047Y-118583419D01*
X146431047Y-118583419D02*
X146573904Y-118631038D01*
X147573904Y-119488180D02*
X147526285Y-119535800D01*
X147526285Y-119535800D02*
X147383428Y-119583419D01*
X147383428Y-119583419D02*
X147288190Y-119583419D01*
X147288190Y-119583419D02*
X147145333Y-119535800D01*
X147145333Y-119535800D02*
X147050095Y-119440561D01*
X147050095Y-119440561D02*
X147002476Y-119345323D01*
X147002476Y-119345323D02*
X146954857Y-119154847D01*
X146954857Y-119154847D02*
X146954857Y-119011990D01*
X146954857Y-119011990D02*
X147002476Y-118821514D01*
X147002476Y-118821514D02*
X147050095Y-118726276D01*
X147050095Y-118726276D02*
X147145333Y-118631038D01*
X147145333Y-118631038D02*
X147288190Y-118583419D01*
X147288190Y-118583419D02*
X147383428Y-118583419D01*
X147383428Y-118583419D02*
X147526285Y-118631038D01*
X147526285Y-118631038D02*
X147573904Y-118678657D01*
X148526285Y-119583419D02*
X147954857Y-119583419D01*
X148240571Y-119583419D02*
X148240571Y-118583419D01*
X148240571Y-118583419D02*
X148145333Y-118726276D01*
X148145333Y-118726276D02*
X148050095Y-118821514D01*
X148050095Y-118821514D02*
X147954857Y-118869133D01*
D10*
X140342819Y-109941905D02*
X139866628Y-110275238D01*
X140342819Y-110513333D02*
X139342819Y-110513333D01*
X139342819Y-110513333D02*
X139342819Y-110132381D01*
X139342819Y-110132381D02*
X139390438Y-110037143D01*
X139390438Y-110037143D02*
X139438057Y-109989524D01*
X139438057Y-109989524D02*
X139533295Y-109941905D01*
X139533295Y-109941905D02*
X139676152Y-109941905D01*
X139676152Y-109941905D02*
X139771390Y-109989524D01*
X139771390Y-109989524D02*
X139819009Y-110037143D01*
X139819009Y-110037143D02*
X139866628Y-110132381D01*
X139866628Y-110132381D02*
X139866628Y-110513333D01*
X140295200Y-109132381D02*
X140342819Y-109227619D01*
X140342819Y-109227619D02*
X140342819Y-109418095D01*
X140342819Y-109418095D02*
X140295200Y-109513333D01*
X140295200Y-109513333D02*
X140199961Y-109560952D01*
X140199961Y-109560952D02*
X139819009Y-109560952D01*
X139819009Y-109560952D02*
X139723771Y-109513333D01*
X139723771Y-109513333D02*
X139676152Y-109418095D01*
X139676152Y-109418095D02*
X139676152Y-109227619D01*
X139676152Y-109227619D02*
X139723771Y-109132381D01*
X139723771Y-109132381D02*
X139819009Y-109084762D01*
X139819009Y-109084762D02*
X139914247Y-109084762D01*
X139914247Y-109084762D02*
X140009485Y-109560952D01*
X139676152Y-108227619D02*
X140485676Y-108227619D01*
X140485676Y-108227619D02*
X140580914Y-108275238D01*
X140580914Y-108275238D02*
X140628533Y-108322857D01*
X140628533Y-108322857D02*
X140676152Y-108418095D01*
X140676152Y-108418095D02*
X140676152Y-108560952D01*
X140676152Y-108560952D02*
X140628533Y-108656190D01*
X140295200Y-108227619D02*
X140342819Y-108322857D01*
X140342819Y-108322857D02*
X140342819Y-108513333D01*
X140342819Y-108513333D02*
X140295200Y-108608571D01*
X140295200Y-108608571D02*
X140247580Y-108656190D01*
X140247580Y-108656190D02*
X140152342Y-108703809D01*
X140152342Y-108703809D02*
X139866628Y-108703809D01*
X139866628Y-108703809D02*
X139771390Y-108656190D01*
X139771390Y-108656190D02*
X139723771Y-108608571D01*
X139723771Y-108608571D02*
X139676152Y-108513333D01*
X139676152Y-108513333D02*
X139676152Y-108322857D01*
X139676152Y-108322857D02*
X139723771Y-108227619D01*
X139676152Y-107322857D02*
X140342819Y-107322857D01*
X139676152Y-107751428D02*
X140199961Y-107751428D01*
X140199961Y-107751428D02*
X140295200Y-107703809D01*
X140295200Y-107703809D02*
X140342819Y-107608571D01*
X140342819Y-107608571D02*
X140342819Y-107465714D01*
X140342819Y-107465714D02*
X140295200Y-107370476D01*
X140295200Y-107370476D02*
X140247580Y-107322857D01*
X140342819Y-106703809D02*
X140295200Y-106799047D01*
X140295200Y-106799047D02*
X140199961Y-106846666D01*
X140199961Y-106846666D02*
X139342819Y-106846666D01*
X140342819Y-105894285D02*
X139819009Y-105894285D01*
X139819009Y-105894285D02*
X139723771Y-105941904D01*
X139723771Y-105941904D02*
X139676152Y-106037142D01*
X139676152Y-106037142D02*
X139676152Y-106227618D01*
X139676152Y-106227618D02*
X139723771Y-106322856D01*
X140295200Y-105894285D02*
X140342819Y-105989523D01*
X140342819Y-105989523D02*
X140342819Y-106227618D01*
X140342819Y-106227618D02*
X140295200Y-106322856D01*
X140295200Y-106322856D02*
X140199961Y-106370475D01*
X140199961Y-106370475D02*
X140104723Y-106370475D01*
X140104723Y-106370475D02*
X140009485Y-106322856D01*
X140009485Y-106322856D02*
X139961866Y-106227618D01*
X139961866Y-106227618D02*
X139961866Y-105989523D01*
X139961866Y-105989523D02*
X139914247Y-105894285D01*
X139676152Y-105560951D02*
X139676152Y-105179999D01*
X139342819Y-105418094D02*
X140199961Y-105418094D01*
X140199961Y-105418094D02*
X140295200Y-105370475D01*
X140295200Y-105370475D02*
X140342819Y-105275237D01*
X140342819Y-105275237D02*
X140342819Y-105179999D01*
X140342819Y-104703808D02*
X140295200Y-104799046D01*
X140295200Y-104799046D02*
X140247580Y-104846665D01*
X140247580Y-104846665D02*
X140152342Y-104894284D01*
X140152342Y-104894284D02*
X139866628Y-104894284D01*
X139866628Y-104894284D02*
X139771390Y-104846665D01*
X139771390Y-104846665D02*
X139723771Y-104799046D01*
X139723771Y-104799046D02*
X139676152Y-104703808D01*
X139676152Y-104703808D02*
X139676152Y-104560951D01*
X139676152Y-104560951D02*
X139723771Y-104465713D01*
X139723771Y-104465713D02*
X139771390Y-104418094D01*
X139771390Y-104418094D02*
X139866628Y-104370475D01*
X139866628Y-104370475D02*
X140152342Y-104370475D01*
X140152342Y-104370475D02*
X140247580Y-104418094D01*
X140247580Y-104418094D02*
X140295200Y-104465713D01*
X140295200Y-104465713D02*
X140342819Y-104560951D01*
X140342819Y-104560951D02*
X140342819Y-104703808D01*
X140342819Y-103941903D02*
X139676152Y-103941903D01*
X139866628Y-103941903D02*
X139771390Y-103894284D01*
X139771390Y-103894284D02*
X139723771Y-103846665D01*
X139723771Y-103846665D02*
X139676152Y-103751427D01*
X139676152Y-103751427D02*
X139676152Y-103656189D01*
X140342819Y-102799046D02*
X140342819Y-103370474D01*
X140342819Y-103084760D02*
X139342819Y-103084760D01*
X139342819Y-103084760D02*
X139485676Y-103179998D01*
X139485676Y-103179998D02*
X139580914Y-103275236D01*
X139580914Y-103275236D02*
X139628533Y-103370474D01*
X146266819Y-39869904D02*
X146266819Y-39298476D01*
X147266819Y-39584190D02*
X146266819Y-39584190D01*
X147266819Y-38965142D02*
X146266819Y-38965142D01*
X146266819Y-38965142D02*
X146266819Y-38584190D01*
X146266819Y-38584190D02*
X146314438Y-38488952D01*
X146314438Y-38488952D02*
X146362057Y-38441333D01*
X146362057Y-38441333D02*
X146457295Y-38393714D01*
X146457295Y-38393714D02*
X146600152Y-38393714D01*
X146600152Y-38393714D02*
X146695390Y-38441333D01*
X146695390Y-38441333D02*
X146743009Y-38488952D01*
X146743009Y-38488952D02*
X146790628Y-38584190D01*
X146790628Y-38584190D02*
X146790628Y-38965142D01*
X146266819Y-38060380D02*
X146266819Y-37441333D01*
X146266819Y-37441333D02*
X146647771Y-37774666D01*
X146647771Y-37774666D02*
X146647771Y-37631809D01*
X146647771Y-37631809D02*
X146695390Y-37536571D01*
X146695390Y-37536571D02*
X146743009Y-37488952D01*
X146743009Y-37488952D02*
X146838247Y-37441333D01*
X146838247Y-37441333D02*
X147076342Y-37441333D01*
X147076342Y-37441333D02*
X147171580Y-37488952D01*
X147171580Y-37488952D02*
X147219200Y-37536571D01*
X147219200Y-37536571D02*
X147266819Y-37631809D01*
X147266819Y-37631809D02*
X147266819Y-37917523D01*
X147266819Y-37917523D02*
X147219200Y-38012761D01*
X147219200Y-38012761D02*
X147171580Y-38060380D01*
X152233333Y-107801580D02*
X152185714Y-107849200D01*
X152185714Y-107849200D02*
X152042857Y-107896819D01*
X152042857Y-107896819D02*
X151947619Y-107896819D01*
X151947619Y-107896819D02*
X151804762Y-107849200D01*
X151804762Y-107849200D02*
X151709524Y-107753961D01*
X151709524Y-107753961D02*
X151661905Y-107658723D01*
X151661905Y-107658723D02*
X151614286Y-107468247D01*
X151614286Y-107468247D02*
X151614286Y-107325390D01*
X151614286Y-107325390D02*
X151661905Y-107134914D01*
X151661905Y-107134914D02*
X151709524Y-107039676D01*
X151709524Y-107039676D02*
X151804762Y-106944438D01*
X151804762Y-106944438D02*
X151947619Y-106896819D01*
X151947619Y-106896819D02*
X152042857Y-106896819D01*
X152042857Y-106896819D02*
X152185714Y-106944438D01*
X152185714Y-106944438D02*
X152233333Y-106992057D01*
X153090476Y-107230152D02*
X153090476Y-107896819D01*
X152852381Y-106849200D02*
X152614286Y-107563485D01*
X152614286Y-107563485D02*
X153233333Y-107563485D01*
X142456819Y-39869904D02*
X142456819Y-39298476D01*
X143456819Y-39584190D02*
X142456819Y-39584190D01*
X143456819Y-38965142D02*
X142456819Y-38965142D01*
X142456819Y-38965142D02*
X142456819Y-38584190D01*
X142456819Y-38584190D02*
X142504438Y-38488952D01*
X142504438Y-38488952D02*
X142552057Y-38441333D01*
X142552057Y-38441333D02*
X142647295Y-38393714D01*
X142647295Y-38393714D02*
X142790152Y-38393714D01*
X142790152Y-38393714D02*
X142885390Y-38441333D01*
X142885390Y-38441333D02*
X142933009Y-38488952D01*
X142933009Y-38488952D02*
X142980628Y-38584190D01*
X142980628Y-38584190D02*
X142980628Y-38965142D01*
X142552057Y-38012761D02*
X142504438Y-37965142D01*
X142504438Y-37965142D02*
X142456819Y-37869904D01*
X142456819Y-37869904D02*
X142456819Y-37631809D01*
X142456819Y-37631809D02*
X142504438Y-37536571D01*
X142504438Y-37536571D02*
X142552057Y-37488952D01*
X142552057Y-37488952D02*
X142647295Y-37441333D01*
X142647295Y-37441333D02*
X142742533Y-37441333D01*
X142742533Y-37441333D02*
X142885390Y-37488952D01*
X142885390Y-37488952D02*
X143456819Y-38060380D01*
X143456819Y-38060380D02*
X143456819Y-37441333D01*
D11*
X150638095Y-40335419D02*
X150304762Y-39859228D01*
X150066667Y-40335419D02*
X150066667Y-39335419D01*
X150066667Y-39335419D02*
X150447619Y-39335419D01*
X150447619Y-39335419D02*
X150542857Y-39383038D01*
X150542857Y-39383038D02*
X150590476Y-39430657D01*
X150590476Y-39430657D02*
X150638095Y-39525895D01*
X150638095Y-39525895D02*
X150638095Y-39668752D01*
X150638095Y-39668752D02*
X150590476Y-39763990D01*
X150590476Y-39763990D02*
X150542857Y-39811609D01*
X150542857Y-39811609D02*
X150447619Y-39859228D01*
X150447619Y-39859228D02*
X150066667Y-39859228D01*
X151495238Y-40335419D02*
X151495238Y-39811609D01*
X151495238Y-39811609D02*
X151447619Y-39716371D01*
X151447619Y-39716371D02*
X151352381Y-39668752D01*
X151352381Y-39668752D02*
X151161905Y-39668752D01*
X151161905Y-39668752D02*
X151066667Y-39716371D01*
X151495238Y-40287800D02*
X151400000Y-40335419D01*
X151400000Y-40335419D02*
X151161905Y-40335419D01*
X151161905Y-40335419D02*
X151066667Y-40287800D01*
X151066667Y-40287800D02*
X151019048Y-40192561D01*
X151019048Y-40192561D02*
X151019048Y-40097323D01*
X151019048Y-40097323D02*
X151066667Y-40002085D01*
X151066667Y-40002085D02*
X151161905Y-39954466D01*
X151161905Y-39954466D02*
X151400000Y-39954466D01*
X151400000Y-39954466D02*
X151495238Y-39906847D01*
X152400000Y-40335419D02*
X152400000Y-39335419D01*
X152400000Y-40287800D02*
X152304762Y-40335419D01*
X152304762Y-40335419D02*
X152114286Y-40335419D01*
X152114286Y-40335419D02*
X152019048Y-40287800D01*
X152019048Y-40287800D02*
X151971429Y-40240180D01*
X151971429Y-40240180D02*
X151923810Y-40144942D01*
X151923810Y-40144942D02*
X151923810Y-39859228D01*
X151923810Y-39859228D02*
X151971429Y-39763990D01*
X151971429Y-39763990D02*
X152019048Y-39716371D01*
X152019048Y-39716371D02*
X152114286Y-39668752D01*
X152114286Y-39668752D02*
X152304762Y-39668752D01*
X152304762Y-39668752D02*
X152400000Y-39716371D01*
X152876191Y-40335419D02*
X152876191Y-39668752D01*
X152876191Y-39335419D02*
X152828572Y-39383038D01*
X152828572Y-39383038D02*
X152876191Y-39430657D01*
X152876191Y-39430657D02*
X152923810Y-39383038D01*
X152923810Y-39383038D02*
X152876191Y-39335419D01*
X152876191Y-39335419D02*
X152876191Y-39430657D01*
X153495238Y-40335419D02*
X153400000Y-40287800D01*
X153400000Y-40287800D02*
X153352381Y-40240180D01*
X153352381Y-40240180D02*
X153304762Y-40144942D01*
X153304762Y-40144942D02*
X153304762Y-39859228D01*
X153304762Y-39859228D02*
X153352381Y-39763990D01*
X153352381Y-39763990D02*
X153400000Y-39716371D01*
X153400000Y-39716371D02*
X153495238Y-39668752D01*
X153495238Y-39668752D02*
X153638095Y-39668752D01*
X153638095Y-39668752D02*
X153733333Y-39716371D01*
X153733333Y-39716371D02*
X153780952Y-39763990D01*
X153780952Y-39763990D02*
X153828571Y-39859228D01*
X153828571Y-39859228D02*
X153828571Y-40144942D01*
X153828571Y-40144942D02*
X153780952Y-40240180D01*
X153780952Y-40240180D02*
X153733333Y-40287800D01*
X153733333Y-40287800D02*
X153638095Y-40335419D01*
X153638095Y-40335419D02*
X153495238Y-40335419D01*
X154780952Y-40335419D02*
X154209524Y-40335419D01*
X154495238Y-40335419D02*
X154495238Y-39335419D01*
X154495238Y-39335419D02*
X154400000Y-39478276D01*
X154400000Y-39478276D02*
X154304762Y-39573514D01*
X154304762Y-39573514D02*
X154209524Y-39621133D01*
X141362095Y-129781419D02*
X141362095Y-128781419D01*
X141362095Y-128781419D02*
X141695428Y-129495704D01*
X141695428Y-129495704D02*
X142028761Y-128781419D01*
X142028761Y-128781419D02*
X142028761Y-129781419D01*
X142504952Y-129781419D02*
X142504952Y-128781419D01*
X142504952Y-128781419D02*
X142885904Y-128781419D01*
X142885904Y-128781419D02*
X142981142Y-128829038D01*
X142981142Y-128829038D02*
X143028761Y-128876657D01*
X143028761Y-128876657D02*
X143076380Y-128971895D01*
X143076380Y-128971895D02*
X143076380Y-129114752D01*
X143076380Y-129114752D02*
X143028761Y-129209990D01*
X143028761Y-129209990D02*
X142981142Y-129257609D01*
X142981142Y-129257609D02*
X142885904Y-129305228D01*
X142885904Y-129305228D02*
X142504952Y-129305228D01*
X143504952Y-128781419D02*
X143504952Y-129590942D01*
X143504952Y-129590942D02*
X143552571Y-129686180D01*
X143552571Y-129686180D02*
X143600190Y-129733800D01*
X143600190Y-129733800D02*
X143695428Y-129781419D01*
X143695428Y-129781419D02*
X143885904Y-129781419D01*
X143885904Y-129781419D02*
X143981142Y-129733800D01*
X143981142Y-129733800D02*
X144028761Y-129686180D01*
X144028761Y-129686180D02*
X144076380Y-129590942D01*
X144076380Y-129590942D02*
X144076380Y-128781419D01*
X144552571Y-129400466D02*
X145314476Y-129400466D01*
X145838285Y-129781419D02*
X146028761Y-129781419D01*
X146028761Y-129781419D02*
X146123999Y-129733800D01*
X146123999Y-129733800D02*
X146171618Y-129686180D01*
X146171618Y-129686180D02*
X146266856Y-129543323D01*
X146266856Y-129543323D02*
X146314475Y-129352847D01*
X146314475Y-129352847D02*
X146314475Y-128971895D01*
X146314475Y-128971895D02*
X146266856Y-128876657D01*
X146266856Y-128876657D02*
X146219237Y-128829038D01*
X146219237Y-128829038D02*
X146123999Y-128781419D01*
X146123999Y-128781419D02*
X145933523Y-128781419D01*
X145933523Y-128781419D02*
X145838285Y-128829038D01*
X145838285Y-128829038D02*
X145790666Y-128876657D01*
X145790666Y-128876657D02*
X145743047Y-128971895D01*
X145743047Y-128971895D02*
X145743047Y-129209990D01*
X145743047Y-129209990D02*
X145790666Y-129305228D01*
X145790666Y-129305228D02*
X145838285Y-129352847D01*
X145838285Y-129352847D02*
X145933523Y-129400466D01*
X145933523Y-129400466D02*
X146123999Y-129400466D01*
X146123999Y-129400466D02*
X146219237Y-129352847D01*
X146219237Y-129352847D02*
X146266856Y-129305228D01*
X146266856Y-129305228D02*
X146314475Y-129209990D01*
X146695428Y-128876657D02*
X146743047Y-128829038D01*
X146743047Y-128829038D02*
X146838285Y-128781419D01*
X146838285Y-128781419D02*
X147076380Y-128781419D01*
X147076380Y-128781419D02*
X147171618Y-128829038D01*
X147171618Y-128829038D02*
X147219237Y-128876657D01*
X147219237Y-128876657D02*
X147266856Y-128971895D01*
X147266856Y-128971895D02*
X147266856Y-129067133D01*
X147266856Y-129067133D02*
X147219237Y-129209990D01*
X147219237Y-129209990D02*
X146647809Y-129781419D01*
X146647809Y-129781419D02*
X147266856Y-129781419D01*
X148171618Y-128781419D02*
X147695428Y-128781419D01*
X147695428Y-128781419D02*
X147647809Y-129257609D01*
X147647809Y-129257609D02*
X147695428Y-129209990D01*
X147695428Y-129209990D02*
X147790666Y-129162371D01*
X147790666Y-129162371D02*
X148028761Y-129162371D01*
X148028761Y-129162371D02*
X148123999Y-129209990D01*
X148123999Y-129209990D02*
X148171618Y-129257609D01*
X148171618Y-129257609D02*
X148219237Y-129352847D01*
X148219237Y-129352847D02*
X148219237Y-129590942D01*
X148219237Y-129590942D02*
X148171618Y-129686180D01*
X148171618Y-129686180D02*
X148123999Y-129733800D01*
X148123999Y-129733800D02*
X148028761Y-129781419D01*
X148028761Y-129781419D02*
X147790666Y-129781419D01*
X147790666Y-129781419D02*
X147695428Y-129733800D01*
X147695428Y-129733800D02*
X147647809Y-129686180D01*
X148838285Y-128781419D02*
X148933523Y-128781419D01*
X148933523Y-128781419D02*
X149028761Y-128829038D01*
X149028761Y-128829038D02*
X149076380Y-128876657D01*
X149076380Y-128876657D02*
X149123999Y-128971895D01*
X149123999Y-128971895D02*
X149171618Y-129162371D01*
X149171618Y-129162371D02*
X149171618Y-129400466D01*
X149171618Y-129400466D02*
X149123999Y-129590942D01*
X149123999Y-129590942D02*
X149076380Y-129686180D01*
X149076380Y-129686180D02*
X149028761Y-129733800D01*
X149028761Y-129733800D02*
X148933523Y-129781419D01*
X148933523Y-129781419D02*
X148838285Y-129781419D01*
X148838285Y-129781419D02*
X148743047Y-129733800D01*
X148743047Y-129733800D02*
X148695428Y-129686180D01*
X148695428Y-129686180D02*
X148647809Y-129590942D01*
X148647809Y-129590942D02*
X148600190Y-129400466D01*
X148600190Y-129400466D02*
X148600190Y-129162371D01*
X148600190Y-129162371D02*
X148647809Y-128971895D01*
X148647809Y-128971895D02*
X148695428Y-128876657D01*
X148695428Y-128876657D02*
X148743047Y-128829038D01*
X148743047Y-128829038D02*
X148838285Y-128781419D01*
X149600190Y-129400466D02*
X150362095Y-129400466D01*
X151171618Y-129257609D02*
X151314475Y-129305228D01*
X151314475Y-129305228D02*
X151362094Y-129352847D01*
X151362094Y-129352847D02*
X151409713Y-129448085D01*
X151409713Y-129448085D02*
X151409713Y-129590942D01*
X151409713Y-129590942D02*
X151362094Y-129686180D01*
X151362094Y-129686180D02*
X151314475Y-129733800D01*
X151314475Y-129733800D02*
X151219237Y-129781419D01*
X151219237Y-129781419D02*
X150838285Y-129781419D01*
X150838285Y-129781419D02*
X150838285Y-128781419D01*
X150838285Y-128781419D02*
X151171618Y-128781419D01*
X151171618Y-128781419D02*
X151266856Y-128829038D01*
X151266856Y-128829038D02*
X151314475Y-128876657D01*
X151314475Y-128876657D02*
X151362094Y-128971895D01*
X151362094Y-128971895D02*
X151362094Y-129067133D01*
X151362094Y-129067133D02*
X151314475Y-129162371D01*
X151314475Y-129162371D02*
X151266856Y-129209990D01*
X151266856Y-129209990D02*
X151171618Y-129257609D01*
X151171618Y-129257609D02*
X150838285Y-129257609D01*
X151838285Y-129781419D02*
X151838285Y-129114752D01*
X151838285Y-129305228D02*
X151885904Y-129209990D01*
X151885904Y-129209990D02*
X151933523Y-129162371D01*
X151933523Y-129162371D02*
X152028761Y-129114752D01*
X152028761Y-129114752D02*
X152123999Y-129114752D01*
X152838285Y-129733800D02*
X152743047Y-129781419D01*
X152743047Y-129781419D02*
X152552571Y-129781419D01*
X152552571Y-129781419D02*
X152457333Y-129733800D01*
X152457333Y-129733800D02*
X152409714Y-129638561D01*
X152409714Y-129638561D02*
X152409714Y-129257609D01*
X152409714Y-129257609D02*
X152457333Y-129162371D01*
X152457333Y-129162371D02*
X152552571Y-129114752D01*
X152552571Y-129114752D02*
X152743047Y-129114752D01*
X152743047Y-129114752D02*
X152838285Y-129162371D01*
X152838285Y-129162371D02*
X152885904Y-129257609D01*
X152885904Y-129257609D02*
X152885904Y-129352847D01*
X152885904Y-129352847D02*
X152409714Y-129448085D01*
X153743047Y-129781419D02*
X153743047Y-129257609D01*
X153743047Y-129257609D02*
X153695428Y-129162371D01*
X153695428Y-129162371D02*
X153600190Y-129114752D01*
X153600190Y-129114752D02*
X153409714Y-129114752D01*
X153409714Y-129114752D02*
X153314476Y-129162371D01*
X153743047Y-129733800D02*
X153647809Y-129781419D01*
X153647809Y-129781419D02*
X153409714Y-129781419D01*
X153409714Y-129781419D02*
X153314476Y-129733800D01*
X153314476Y-129733800D02*
X153266857Y-129638561D01*
X153266857Y-129638561D02*
X153266857Y-129543323D01*
X153266857Y-129543323D02*
X153314476Y-129448085D01*
X153314476Y-129448085D02*
X153409714Y-129400466D01*
X153409714Y-129400466D02*
X153647809Y-129400466D01*
X153647809Y-129400466D02*
X153743047Y-129352847D01*
X154219238Y-129781419D02*
X154219238Y-128781419D01*
X154314476Y-129400466D02*
X154600190Y-129781419D01*
X154600190Y-129114752D02*
X154219238Y-129495704D01*
X155171619Y-129781419D02*
X155076381Y-129733800D01*
X155076381Y-129733800D02*
X155028762Y-129686180D01*
X155028762Y-129686180D02*
X154981143Y-129590942D01*
X154981143Y-129590942D02*
X154981143Y-129305228D01*
X154981143Y-129305228D02*
X155028762Y-129209990D01*
X155028762Y-129209990D02*
X155076381Y-129162371D01*
X155076381Y-129162371D02*
X155171619Y-129114752D01*
X155171619Y-129114752D02*
X155314476Y-129114752D01*
X155314476Y-129114752D02*
X155409714Y-129162371D01*
X155409714Y-129162371D02*
X155457333Y-129209990D01*
X155457333Y-129209990D02*
X155504952Y-129305228D01*
X155504952Y-129305228D02*
X155504952Y-129590942D01*
X155504952Y-129590942D02*
X155457333Y-129686180D01*
X155457333Y-129686180D02*
X155409714Y-129733800D01*
X155409714Y-129733800D02*
X155314476Y-129781419D01*
X155314476Y-129781419D02*
X155171619Y-129781419D01*
X156362095Y-129114752D02*
X156362095Y-129781419D01*
X155933524Y-129114752D02*
X155933524Y-129638561D01*
X155933524Y-129638561D02*
X155981143Y-129733800D01*
X155981143Y-129733800D02*
X156076381Y-129781419D01*
X156076381Y-129781419D02*
X156219238Y-129781419D01*
X156219238Y-129781419D02*
X156314476Y-129733800D01*
X156314476Y-129733800D02*
X156362095Y-129686180D01*
X156695429Y-129114752D02*
X157076381Y-129114752D01*
X156838286Y-128781419D02*
X156838286Y-129638561D01*
X156838286Y-129638561D02*
X156885905Y-129733800D01*
X156885905Y-129733800D02*
X156981143Y-129781419D01*
X156981143Y-129781419D02*
X157076381Y-129781419D01*
X157933524Y-129781419D02*
X157362096Y-129781419D01*
X157647810Y-129781419D02*
X157647810Y-128781419D01*
X157647810Y-128781419D02*
X157552572Y-128924276D01*
X157552572Y-128924276D02*
X157457334Y-129019514D01*
X157457334Y-129019514D02*
X157362096Y-129067133D01*
D10*
X145883333Y-106023580D02*
X145835714Y-106071200D01*
X145835714Y-106071200D02*
X145692857Y-106118819D01*
X145692857Y-106118819D02*
X145597619Y-106118819D01*
X145597619Y-106118819D02*
X145454762Y-106071200D01*
X145454762Y-106071200D02*
X145359524Y-105975961D01*
X145359524Y-105975961D02*
X145311905Y-105880723D01*
X145311905Y-105880723D02*
X145264286Y-105690247D01*
X145264286Y-105690247D02*
X145264286Y-105547390D01*
X145264286Y-105547390D02*
X145311905Y-105356914D01*
X145311905Y-105356914D02*
X145359524Y-105261676D01*
X145359524Y-105261676D02*
X145454762Y-105166438D01*
X145454762Y-105166438D02*
X145597619Y-105118819D01*
X145597619Y-105118819D02*
X145692857Y-105118819D01*
X145692857Y-105118819D02*
X145835714Y-105166438D01*
X145835714Y-105166438D02*
X145883333Y-105214057D01*
X146788095Y-105118819D02*
X146311905Y-105118819D01*
X146311905Y-105118819D02*
X146264286Y-105595009D01*
X146264286Y-105595009D02*
X146311905Y-105547390D01*
X146311905Y-105547390D02*
X146407143Y-105499771D01*
X146407143Y-105499771D02*
X146645238Y-105499771D01*
X146645238Y-105499771D02*
X146740476Y-105547390D01*
X146740476Y-105547390D02*
X146788095Y-105595009D01*
X146788095Y-105595009D02*
X146835714Y-105690247D01*
X146835714Y-105690247D02*
X146835714Y-105928342D01*
X146835714Y-105928342D02*
X146788095Y-106023580D01*
X146788095Y-106023580D02*
X146740476Y-106071200D01*
X146740476Y-106071200D02*
X146645238Y-106118819D01*
X146645238Y-106118819D02*
X146407143Y-106118819D01*
X146407143Y-106118819D02*
X146311905Y-106071200D01*
X146311905Y-106071200D02*
X146264286Y-106023580D01*
D12*
%TO.C,C3*%
X144292748Y-103859000D02*
X144815252Y-103859000D01*
X144292748Y-102389000D02*
X144815252Y-102389000D01*
%TO.C,C2*%
X146616748Y-113003000D02*
X147139252Y-113003000D01*
X146616748Y-111533000D02*
X147139252Y-111533000D01*
%TO.C,TP1*%
X140392000Y-34798000D02*
G75*
G03*
X140392000Y-34798000I-1200000J0D01*
G01*
%TO.C,L1*%
X147386000Y-101512000D02*
X151366000Y-101512000D01*
X147386000Y-105752000D02*
X151366000Y-105752000D01*
%TO.C,U1*%
X139360000Y-40794000D02*
X139360000Y-41094000D01*
X139360000Y-40794000D02*
X160360000Y-40794000D01*
X139360000Y-43194000D02*
X139360000Y-43594000D01*
X139360000Y-43461000D02*
X142367000Y-43461000D01*
X139360000Y-45794000D02*
X139360000Y-46194000D01*
X139360000Y-48294000D02*
X139360000Y-48694000D01*
X139360000Y-50894000D02*
X139360000Y-51294000D01*
X139360000Y-53394000D02*
X139360000Y-53794000D01*
X139360000Y-55894000D02*
X139360000Y-56294000D01*
X139360000Y-58494000D02*
X139360000Y-58894000D01*
X139360000Y-60994000D02*
X139360000Y-61394000D01*
X139360000Y-63594000D02*
X139360000Y-63994000D01*
X139360000Y-66094000D02*
X139360000Y-66494000D01*
X139360000Y-68594000D02*
X139360000Y-68994000D01*
X139360000Y-71194000D02*
X139360000Y-71594000D01*
X139360000Y-73694000D02*
X139360000Y-74094000D01*
X139360000Y-76294000D02*
X139360000Y-76694000D01*
X139360000Y-78794000D02*
X139360000Y-79194000D01*
X139360000Y-81394000D02*
X139360000Y-81794000D01*
X139360000Y-83894000D02*
X139360000Y-84294000D01*
X139360000Y-86394000D02*
X139360000Y-86794000D01*
X139360000Y-88994000D02*
X139360000Y-89394000D01*
X142367000Y-43461000D02*
X142367000Y-40794000D01*
X146160000Y-91794000D02*
X139360000Y-91794000D01*
X148360000Y-91794000D02*
X148760000Y-91794000D01*
X150960000Y-91794000D02*
X151360000Y-91794000D01*
X160360000Y-40794000D02*
X160360000Y-41094000D01*
X160360000Y-43194000D02*
X160360000Y-43594000D01*
X160360000Y-45794000D02*
X160360000Y-46194000D01*
X160360000Y-48294000D02*
X160360000Y-48694000D01*
X160360000Y-50894000D02*
X160360000Y-51294000D01*
X160360000Y-53394000D02*
X160360000Y-53794000D01*
X160360000Y-55894000D02*
X160360000Y-56294000D01*
X160360000Y-58494000D02*
X160360000Y-58894000D01*
X160360000Y-60994000D02*
X160360000Y-61394000D01*
X160360000Y-63594000D02*
X160360000Y-63994000D01*
X160360000Y-66094000D02*
X160360000Y-66494000D01*
X160360000Y-68594000D02*
X160360000Y-68994000D01*
X160360000Y-71194000D02*
X160360000Y-71594000D01*
X160360000Y-73694000D02*
X160360000Y-74094000D01*
X160360000Y-76294000D02*
X160360000Y-76694000D01*
X160360000Y-78794000D02*
X160360000Y-79194000D01*
X160360000Y-81394000D02*
X160360000Y-81794000D01*
X160360000Y-83894000D02*
X160360000Y-84294000D01*
X160360000Y-86394000D02*
X160360000Y-86794000D01*
X160360000Y-88994000D02*
X160360000Y-89394000D01*
X160360000Y-91794000D02*
X153560000Y-91794000D01*
D11*
%TO.C,ESC1*%
X156718000Y-98298000D02*
X153670000Y-98298000D01*
X153670000Y-98298000D02*
X153670000Y-119634000D01*
X153670000Y-119634000D02*
X156718000Y-119634000D01*
X156718000Y-119634000D02*
X156718000Y-98298000D01*
D12*
%TO.C,Regulator1*%
X142458000Y-108204000D02*
X142458000Y-110004000D01*
X142458000Y-108204000D02*
X142458000Y-107404000D01*
X145578000Y-108204000D02*
X145578000Y-109004000D01*
X145578000Y-108204000D02*
X145578000Y-107404000D01*
%TO.C,TP3*%
X148012000Y-34798000D02*
G75*
G03*
X148012000Y-34798000I-1200000J0D01*
G01*
%TO.C,C4*%
X151357000Y-108130748D02*
X151357000Y-108653252D01*
X149887000Y-108130748D02*
X149887000Y-108653252D01*
%TO.C,TP2*%
X144202000Y-34798000D02*
G75*
G03*
X144202000Y-34798000I-1200000J0D01*
G01*
%TO.C,Radio1*%
X162560000Y-35998000D02*
X160160000Y-35998000D01*
X162560000Y-33598000D02*
X162560000Y-35998000D01*
X160160000Y-35998000D02*
X160160000Y-33598000D01*
X160160000Y-33598000D02*
X162560000Y-33598000D01*
X158934000Y-35998000D02*
X156534000Y-35998000D01*
X158934000Y-33598000D02*
X158934000Y-35998000D01*
X156534000Y-35998000D02*
X156534000Y-33598000D01*
X156534000Y-33598000D02*
X158934000Y-33598000D01*
X155378000Y-35998000D02*
X152978000Y-35998000D01*
X155378000Y-33598000D02*
X155378000Y-35998000D01*
X152978000Y-35998000D02*
X152978000Y-33598000D01*
X152978000Y-33598000D02*
X155378000Y-33598000D01*
X151822000Y-35998000D02*
X149422000Y-35998000D01*
X151822000Y-33598000D02*
X151822000Y-35998000D01*
X149422000Y-35998000D02*
X149422000Y-33598000D01*
X149422000Y-33598000D02*
X151822000Y-33598000D01*
D13*
%TO.C,MPU-9250-Breakout1*%
X162748000Y-122704000D02*
X162748000Y-122704000D01*
X161948000Y-122704000D02*
X161948000Y-122704000D01*
X161148000Y-122704000D02*
X161148000Y-122704000D01*
X160348000Y-122704000D02*
X160348000Y-122704000D01*
X159548000Y-122704000D02*
X159548000Y-122704000D01*
X158748000Y-122704000D02*
X158748000Y-122704000D01*
X157948000Y-122704000D02*
X157948000Y-122704000D01*
X157148000Y-122704000D02*
X157148000Y-122704000D01*
X156348000Y-122704000D02*
X156348000Y-122704000D01*
X155548000Y-122704000D02*
X155548000Y-122704000D01*
X154748000Y-122704000D02*
X154748000Y-122704000D01*
X153948000Y-122704000D02*
X153948000Y-122704000D01*
X153148000Y-122704000D02*
X153148000Y-122704000D01*
X152348000Y-122704000D02*
X152348000Y-122704000D01*
X151548000Y-122704000D02*
X151548000Y-122704000D01*
X150748000Y-122704000D02*
X150748000Y-122704000D01*
X149948000Y-122704000D02*
X149948000Y-122704000D01*
X149148000Y-122704000D02*
X149148000Y-122704000D01*
X148348000Y-122704000D02*
X148348000Y-122704000D01*
X147548000Y-122704000D02*
X147548000Y-122704000D01*
X146748000Y-122704000D02*
X146748000Y-122704000D01*
X145948000Y-122704000D02*
X145948000Y-122704000D01*
X145148000Y-122704000D02*
X145148000Y-122704000D01*
X144348000Y-122704000D02*
X144348000Y-122704000D01*
X143548000Y-122704000D02*
X143548000Y-122704000D01*
X142748000Y-122704000D02*
X142748000Y-122704000D01*
X141948000Y-122704000D02*
X141948000Y-122704000D01*
X141148000Y-122704000D02*
X141148000Y-122704000D01*
X140348000Y-122704000D02*
X140348000Y-122704000D01*
X139548000Y-122704000D02*
X139548000Y-122704000D01*
X138748000Y-122704000D02*
X138748000Y-122704000D01*
X137948000Y-122704000D02*
X137948000Y-122704000D01*
X137148000Y-122704000D02*
X137148000Y-122704000D01*
X137008000Y-122704000D02*
X137008000Y-122704000D01*
X137008000Y-123504000D02*
X137008000Y-123504000D01*
X137008000Y-124304000D02*
X137008000Y-124304000D01*
X137008000Y-125104000D02*
X137008000Y-125104000D01*
X137008000Y-125904000D02*
X137008000Y-125904000D01*
X137008000Y-126704000D02*
X137008000Y-126704000D01*
X137008000Y-127504000D02*
X137008000Y-127504000D01*
X137008000Y-128304000D02*
X137008000Y-128304000D01*
X137008000Y-129104000D02*
X137008000Y-129104000D01*
X137008000Y-129904000D02*
X137008000Y-129904000D01*
X137008000Y-130704000D02*
X137008000Y-130704000D01*
X137008000Y-131504000D02*
X137008000Y-131504000D01*
X137008000Y-132304000D02*
X137008000Y-132304000D01*
X137008000Y-133104000D02*
X137008000Y-133104000D01*
X137008000Y-133904000D02*
X137008000Y-133904000D01*
X137008000Y-134704000D02*
X137008000Y-134704000D01*
X137008000Y-135504000D02*
X137008000Y-135504000D01*
X137008000Y-136304000D02*
X137008000Y-136304000D01*
X137008000Y-137104000D02*
X137008000Y-137104000D01*
X137008000Y-137904000D02*
X137008000Y-137904000D01*
X137008000Y-138484000D02*
X137008000Y-138484000D01*
X137808000Y-138484000D02*
X137808000Y-138484000D01*
X138608000Y-138484000D02*
X138608000Y-138484000D01*
X139408000Y-138484000D02*
X139408000Y-138484000D01*
X140208000Y-138484000D02*
X140208000Y-138484000D01*
X141008000Y-138484000D02*
X141008000Y-138484000D01*
X141808000Y-138484000D02*
X141808000Y-138484000D01*
X142608000Y-138484000D02*
X142608000Y-138484000D01*
X143408000Y-138484000D02*
X143408000Y-138484000D01*
X144208000Y-138484000D02*
X144208000Y-138484000D01*
X145008000Y-138484000D02*
X145008000Y-138484000D01*
X145808000Y-138484000D02*
X145808000Y-138484000D01*
X146608000Y-138484000D02*
X146608000Y-138484000D01*
X147408000Y-138484000D02*
X147408000Y-138484000D01*
X148208000Y-138484000D02*
X148208000Y-138484000D01*
X149008000Y-138484000D02*
X149008000Y-138484000D01*
X149808000Y-138484000D02*
X149808000Y-138484000D01*
X150608000Y-138484000D02*
X150608000Y-138484000D01*
X151408000Y-138484000D02*
X151408000Y-138484000D01*
X152208000Y-138484000D02*
X152208000Y-138484000D01*
X153008000Y-138484000D02*
X153008000Y-138484000D01*
X153808000Y-138484000D02*
X153808000Y-138484000D01*
X154608000Y-138484000D02*
X154608000Y-138484000D01*
X155408000Y-138484000D02*
X155408000Y-138484000D01*
X156208000Y-138484000D02*
X156208000Y-138484000D01*
X157008000Y-138484000D02*
X157008000Y-138484000D01*
X157808000Y-138484000D02*
X157808000Y-138484000D01*
X158608000Y-138484000D02*
X158608000Y-138484000D01*
X159408000Y-138484000D02*
X159408000Y-138484000D01*
X160208000Y-138484000D02*
X160208000Y-138484000D01*
X161008000Y-138484000D02*
X161008000Y-138484000D01*
X161808000Y-138484000D02*
X161808000Y-138484000D01*
X162608000Y-138484000D02*
X162608000Y-138484000D01*
X162748000Y-138484000D02*
X162748000Y-138484000D01*
X162748000Y-137684000D02*
X162748000Y-137684000D01*
X162748000Y-136884000D02*
X162748000Y-136884000D01*
X162748000Y-136084000D02*
X162748000Y-136084000D01*
X162748000Y-135284000D02*
X162748000Y-135284000D01*
X162748000Y-134484000D02*
X162748000Y-134484000D01*
X162748000Y-133684000D02*
X162748000Y-133684000D01*
X162748000Y-132884000D02*
X162748000Y-132884000D01*
X162748000Y-132084000D02*
X162748000Y-132084000D01*
X162748000Y-131284000D02*
X162748000Y-131284000D01*
X162748000Y-130484000D02*
X162748000Y-130484000D01*
X162748000Y-129684000D02*
X162748000Y-129684000D01*
X162748000Y-128884000D02*
X162748000Y-128884000D01*
X162748000Y-128084000D02*
X162748000Y-128084000D01*
X162748000Y-127284000D02*
X162748000Y-127284000D01*
X162748000Y-126484000D02*
X162748000Y-126484000D01*
X162748000Y-125684000D02*
X162748000Y-125684000D01*
X162748000Y-124884000D02*
X162748000Y-124884000D01*
X162748000Y-124084000D02*
X162748000Y-124084000D01*
X162748000Y-123284000D02*
X162748000Y-123284000D01*
D12*
%TO.C,C5*%
X148563000Y-108130748D02*
X148563000Y-108653252D01*
X147093000Y-108130748D02*
X147093000Y-108653252D01*
%TD*%
M02*
