%TF.GenerationSoftware,KiCad,Pcbnew,7.0.8*%
%TF.CreationDate,2024-02-25T19:39:46-05:00*%
%TF.ProjectId,P2,50322e6b-6963-4616-945f-706362585858,rev?*%
%TF.SameCoordinates,Original*%
%TF.FileFunction,Copper,L1,Top*%
%TF.FilePolarity,Positive*%
%FSLAX46Y46*%
G04 Gerber Fmt 4.6, Leading zero omitted, Abs format (unit mm)*
G04 Created by KiCad (PCBNEW 7.0.8) date 2024-02-25 19:39:46*
%MOMM*%
%LPD*%
G01*
G04 APERTURE LIST*
G04 Aperture macros list*
%AMRoundRect*
0 Rectangle with rounded corners*
0 $1 Rounding radius*
0 $2 $3 $4 $5 $6 $7 $8 $9 X,Y pos of 4 corners*
0 Add a 4 corners polygon primitive as box body*
4,1,4,$2,$3,$4,$5,$6,$7,$8,$9,$2,$3,0*
0 Add four circle primitives for the rounded corners*
1,1,$1+$1,$2,$3*
1,1,$1+$1,$4,$5*
1,1,$1+$1,$6,$7*
1,1,$1+$1,$8,$9*
0 Add four rect primitives between the rounded corners*
20,1,$1+$1,$2,$3,$4,$5,0*
20,1,$1+$1,$4,$5,$6,$7,0*
20,1,$1+$1,$6,$7,$8,$9,0*
20,1,$1+$1,$8,$9,$2,$3,0*%
G04 Aperture macros list end*
%TA.AperFunction,SMDPad,CuDef*%
%ADD10RoundRect,0.250000X-0.250000X-0.475000X0.250000X-0.475000X0.250000X0.475000X-0.250000X0.475000X0*%
%TD*%
%TA.AperFunction,SMDPad,CuDef*%
%ADD11C,1.500000*%
%TD*%
%TA.AperFunction,SMDPad,CuDef*%
%ADD12RoundRect,0.110000X-0.440000X-1.590000X0.440000X-1.590000X0.440000X1.590000X-0.440000X1.590000X0*%
%TD*%
%TA.AperFunction,ComponentPad*%
%ADD13O,1.700000X1.700000*%
%TD*%
%TA.AperFunction,SMDPad,CuDef*%
%ADD14R,3.500000X1.700000*%
%TD*%
%TA.AperFunction,ComponentPad*%
%ADD15R,1.700000X1.700000*%
%TD*%
%TA.AperFunction,SMDPad,CuDef*%
%ADD16R,2.000000X2.000000*%
%TD*%
%TA.AperFunction,SMDPad,CuDef*%
%ADD17RoundRect,0.150000X0.150000X-0.512500X0.150000X0.512500X-0.150000X0.512500X-0.150000X-0.512500X0*%
%TD*%
%TA.AperFunction,SMDPad,CuDef*%
%ADD18RoundRect,0.250000X-0.475000X0.250000X-0.475000X-0.250000X0.475000X-0.250000X0.475000X0.250000X0*%
%TD*%
%TA.AperFunction,ViaPad*%
%ADD19C,0.800000*%
%TD*%
%TA.AperFunction,Conductor*%
%ADD20C,0.650000*%
%TD*%
%TA.AperFunction,Conductor*%
%ADD21C,0.500000*%
%TD*%
%TA.AperFunction,Conductor*%
%ADD22C,0.750000*%
%TD*%
%TA.AperFunction,Conductor*%
%ADD23C,0.300000*%
%TD*%
G04 APERTURE END LIST*
D10*
%TO.P,C3,1*%
%TO.N,Net-(Regulator1-BST)*%
X143604000Y-103124000D03*
%TO.P,C3,2*%
%TO.N,Net-(Regulator1-SW)*%
X145504000Y-103124000D03*
%TD*%
%TO.P,C2,1*%
%TO.N,+BATT*%
X145928000Y-112268000D03*
%TO.P,C2,2*%
%TO.N,GND*%
X147828000Y-112268000D03*
%TD*%
D11*
%TO.P,TP1,1,1*%
%TO.N,Net-(U1-GPIO0)*%
X139192000Y-34798000D03*
%TD*%
D12*
%TO.P,L1,1,1*%
%TO.N,Net-(Regulator1-SW)*%
X147876000Y-103632000D03*
%TO.P,L1,2,2*%
%TO.N,+3V3*%
X150876000Y-103632000D03*
%TD*%
D13*
%TO.P,U1,1,GPIO0*%
%TO.N,Net-(U1-GPIO0)*%
X140970000Y-42164000D03*
D14*
X140070000Y-42164000D03*
D13*
%TO.P,U1,2,GPIO1*%
%TO.N,Net-(U1-GPIO1)*%
X140970000Y-44704000D03*
D14*
X140070000Y-44704000D03*
D15*
%TO.P,U1,3,GND*%
%TO.N,GND*%
X140970000Y-47244000D03*
D14*
X140070000Y-47244000D03*
D13*
%TO.P,U1,4,GPIO2*%
%TO.N,unconnected-(U1-GPIO2-Pad4)*%
X140970000Y-49784000D03*
D14*
X140070000Y-49784000D03*
D13*
%TO.P,U1,5,GPIO3*%
%TO.N,unconnected-(U1-GPIO3-Pad5)*%
X140970000Y-52324000D03*
D14*
X140070000Y-52324000D03*
D13*
%TO.P,U1,6,GPIO4*%
%TO.N,/MISO*%
X140970000Y-54864000D03*
D14*
X140070000Y-54864000D03*
D13*
%TO.P,U1,7,GPIO5*%
%TO.N,/CS*%
X140970000Y-57404000D03*
D14*
X140070000Y-57404000D03*
D15*
%TO.P,U1,8,GND*%
%TO.N,unconnected-(U1-GND-Pad8)*%
X140970000Y-59944000D03*
D14*
X140070000Y-59944000D03*
D13*
%TO.P,U1,9,GPIO6*%
%TO.N,/SCK*%
X140970000Y-62484000D03*
D14*
X140070000Y-62484000D03*
D13*
%TO.P,U1,10,GPIO7*%
%TO.N,/MOSI*%
X140970000Y-65024000D03*
D14*
X140070000Y-65024000D03*
D13*
%TO.P,U1,11,GPIO8*%
%TO.N,/TX*%
X140970000Y-67564000D03*
D14*
X140070000Y-67564000D03*
D13*
%TO.P,U1,12,GPIO9*%
%TO.N,/RX*%
X140970000Y-70104000D03*
D14*
X140070000Y-70104000D03*
D15*
%TO.P,U1,13,GND*%
%TO.N,unconnected-(U1-GND-Pad13)*%
X140970000Y-72644000D03*
D14*
X140070000Y-72644000D03*
D13*
%TO.P,U1,14,GPIO10*%
%TO.N,unconnected-(U1-GPIO10-Pad14)*%
X140970000Y-75184000D03*
D14*
X140070000Y-75184000D03*
D13*
%TO.P,U1,15,GPIO11*%
%TO.N,unconnected-(U1-GPIO11-Pad15)*%
X140970000Y-77724000D03*
D14*
X140070000Y-77724000D03*
D13*
%TO.P,U1,16,GPIO12*%
%TO.N,unconnected-(U1-GPIO12-Pad16)*%
X140970000Y-80264000D03*
D14*
X140070000Y-80264000D03*
D13*
%TO.P,U1,17,GPIO13*%
%TO.N,unconnected-(U1-GPIO13-Pad17)*%
X140970000Y-82804000D03*
D14*
X140070000Y-82804000D03*
D15*
%TO.P,U1,18,GND*%
%TO.N,unconnected-(U1-GND-Pad18)*%
X140970000Y-85344000D03*
D14*
X140070000Y-85344000D03*
D13*
%TO.P,U1,19,GPIO14*%
%TO.N,unconnected-(U1-GPIO14-Pad19)*%
X140970000Y-87884000D03*
D14*
X140070000Y-87884000D03*
D13*
%TO.P,U1,20,GPIO15*%
%TO.N,unconnected-(U1-GPIO15-Pad20)*%
X140970000Y-90424000D03*
D14*
X140070000Y-90424000D03*
D13*
%TO.P,U1,21,GPIO16*%
%TO.N,unconnected-(U1-GPIO16-Pad21)*%
X158750000Y-90424000D03*
D14*
X159650000Y-90424000D03*
D13*
%TO.P,U1,22,GPIO17*%
%TO.N,unconnected-(U1-GPIO17-Pad22)*%
X158750000Y-87884000D03*
D14*
X159650000Y-87884000D03*
D15*
%TO.P,U1,23,GND*%
%TO.N,unconnected-(U1-GND-Pad23)*%
X158750000Y-85344000D03*
D14*
X159650000Y-85344000D03*
D13*
%TO.P,U1,24,GPIO18*%
%TO.N,/PWM_A*%
X158750000Y-82804000D03*
D14*
X159650000Y-82804000D03*
D13*
%TO.P,U1,25,GPIO19*%
%TO.N,/PWM_B*%
X158750000Y-80264000D03*
D14*
X159650000Y-80264000D03*
D13*
%TO.P,U1,26,GPIO20*%
%TO.N,/PWM_C*%
X158750000Y-77724000D03*
D14*
X159650000Y-77724000D03*
D13*
%TO.P,U1,27,GPIO21*%
%TO.N,/PWM_D*%
X158750000Y-75184000D03*
D14*
X159650000Y-75184000D03*
D15*
%TO.P,U1,28,GND*%
%TO.N,unconnected-(U1-GND-Pad28)*%
X158750000Y-72644000D03*
D14*
X159650000Y-72644000D03*
D13*
%TO.P,U1,29,GPIO22*%
%TO.N,/TE*%
X158750000Y-70104000D03*
D14*
X159650000Y-70104000D03*
D13*
%TO.P,U1,30,RUN*%
%TO.N,unconnected-(U1-RUN-Pad30)*%
X158750000Y-67564000D03*
D14*
X159650000Y-67564000D03*
D13*
%TO.P,U1,31,GPIO26_ADC0*%
%TO.N,unconnected-(U1-GPIO26_ADC0-Pad31)*%
X158750000Y-65024000D03*
D14*
X159650000Y-65024000D03*
D13*
%TO.P,U1,32,GPIO27_ADC1*%
%TO.N,unconnected-(U1-GPIO27_ADC1-Pad32)*%
X158750000Y-62484000D03*
D14*
X159650000Y-62484000D03*
D15*
%TO.P,U1,33,AGND*%
%TO.N,unconnected-(U1-AGND-Pad33)*%
X158750000Y-59944000D03*
D14*
X159650000Y-59944000D03*
D13*
%TO.P,U1,34,GPIO28_ADC2*%
%TO.N,unconnected-(U1-GPIO28_ADC2-Pad34)*%
X158750000Y-57404000D03*
D14*
X159650000Y-57404000D03*
D13*
%TO.P,U1,35,ADC_VREF*%
%TO.N,unconnected-(U1-ADC_VREF-Pad35)*%
X158750000Y-54864000D03*
D14*
X159650000Y-54864000D03*
D13*
%TO.P,U1,36,3V3*%
%TO.N,unconnected-(U1-3V3-Pad36)*%
X158750000Y-52324000D03*
D14*
X159650000Y-52324000D03*
D13*
%TO.P,U1,37,3V3_EN*%
%TO.N,unconnected-(U1-3V3_EN-Pad37)*%
X158750000Y-49784000D03*
D14*
X159650000Y-49784000D03*
D15*
%TO.P,U1,38,GND*%
%TO.N,unconnected-(U1-GND-Pad38)*%
X158750000Y-47244000D03*
D14*
X159650000Y-47244000D03*
D13*
%TO.P,U1,39,VSYS*%
%TO.N,+3V3*%
X158750000Y-44704000D03*
D14*
X159650000Y-44704000D03*
D13*
%TO.P,U1,40,VBUS*%
%TO.N,unconnected-(U1-VBUS-Pad40)*%
X158750000Y-42164000D03*
D14*
X159650000Y-42164000D03*
%TD*%
D16*
%TO.P,ESC1,1,PWM_A*%
%TO.N,/PWM_A*%
X155194000Y-99822000D03*
%TO.P,ESC1,2,PWM_B*%
%TO.N,/PWM_B*%
X155194000Y-102870000D03*
%TO.P,ESC1,3,PWM_C*%
%TO.N,/PWM_C*%
X155194000Y-105918000D03*
%TO.P,ESC1,4,PWM_D*%
%TO.N,/PWM_D*%
X155194000Y-108966000D03*
%TO.P,ESC1,5,BAT+*%
%TO.N,+BATT*%
X155194000Y-115062000D03*
%TO.P,ESC1,6,TE*%
%TO.N,/TE*%
X155194000Y-112014000D03*
%TO.P,ESC1,7,GND*%
%TO.N,GND*%
X155194000Y-118110000D03*
%TD*%
D17*
%TO.P,Regulator1,1,FB*%
%TO.N,+3V3*%
X143068000Y-109341500D03*
%TO.P,Regulator1,2,EN*%
%TO.N,+BATT*%
X144018000Y-109341500D03*
%TO.P,Regulator1,3,IN*%
X144968000Y-109341500D03*
%TO.P,Regulator1,4,GND*%
%TO.N,GND*%
X144968000Y-107066500D03*
%TO.P,Regulator1,5,SW*%
%TO.N,Net-(Regulator1-SW)*%
X144018000Y-107066500D03*
%TO.P,Regulator1,6,BST*%
%TO.N,Net-(Regulator1-BST)*%
X143068000Y-107066500D03*
%TD*%
D11*
%TO.P,TP3,1,1*%
%TO.N,GND*%
X146812000Y-34798000D03*
%TD*%
D18*
%TO.P,C4,1*%
%TO.N,+3V3*%
X150622000Y-107442000D03*
%TO.P,C4,2*%
%TO.N,GND*%
X150622000Y-109342000D03*
%TD*%
D11*
%TO.P,TP2,1,1*%
%TO.N,Net-(U1-GPIO1)*%
X143002000Y-34798000D03*
%TD*%
D16*
%TO.P,Radio1,1,VCC*%
%TO.N,+3V3*%
X161360000Y-34798000D03*
%TO.P,Radio1,2,GND*%
%TO.N,GND*%
X157734000Y-34798000D03*
%TO.P,Radio1,3,TX*%
%TO.N,/RX*%
X154178000Y-34798000D03*
%TO.P,Radio1,4,RX*%
%TO.N,/TX*%
X150622000Y-34798000D03*
%TD*%
D15*
%TO.P,MPU-9250-Breakout1,1,VCC*%
%TO.N,+3V3*%
X161290000Y-123952000D03*
D13*
%TO.P,MPU-9250-Breakout1,2,GND*%
%TO.N,GND*%
X158750000Y-123952000D03*
%TO.P,MPU-9250-Breakout1,3,SCL*%
%TO.N,/SCK*%
X156210000Y-123952000D03*
%TO.P,MPU-9250-Breakout1,4,SDA*%
%TO.N,/MOSI*%
X153670000Y-123952000D03*
%TO.P,MPU-9250-Breakout1,5,EDA*%
%TO.N,unconnected-(MPU-9250-Breakout1-EDA-Pad5)*%
X151130000Y-123952000D03*
%TO.P,MPU-9250-Breakout1,6,ECL*%
%TO.N,unconnected-(MPU-9250-Breakout1-ECL-Pad6)*%
X148590000Y-123952000D03*
%TO.P,MPU-9250-Breakout1,7,ADO*%
%TO.N,/MISO*%
X146050000Y-123952000D03*
%TO.P,MPU-9250-Breakout1,8,INT*%
%TO.N,unconnected-(MPU-9250-Breakout1-INT-Pad8)*%
X143510000Y-123952000D03*
%TO.P,MPU-9250-Breakout1,9,NCS*%
%TO.N,/CS*%
X140970000Y-123952000D03*
%TO.P,MPU-9250-Breakout1,10,FSYNC*%
%TO.N,unconnected-(MPU-9250-Breakout1-FSYNC-Pad10)*%
X138430000Y-123952000D03*
%TD*%
D18*
%TO.P,C5,1*%
%TO.N,+3V3*%
X147828000Y-107442000D03*
%TO.P,C5,2*%
%TO.N,GND*%
X147828000Y-109342000D03*
%TD*%
D19*
%TO.N,GND*%
X157734000Y-36830000D03*
X152908000Y-118110000D03*
X146812000Y-36830000D03*
X150622000Y-110490000D03*
X142748000Y-47244000D03*
X158750000Y-125984000D03*
%TD*%
D20*
%TO.N,Net-(Regulator1-SW)*%
X145504000Y-103124000D02*
X147368000Y-103124000D01*
X147368000Y-103124000D02*
X147876000Y-103632000D01*
X144018000Y-107066500D02*
X144018000Y-106257984D01*
X144018000Y-106257984D02*
X145504000Y-104771984D01*
X145504000Y-104771984D02*
X145504000Y-103124000D01*
%TO.N,Net-(Regulator1-BST)*%
X141732000Y-104140000D02*
X142240000Y-103632000D01*
X143096000Y-103632000D02*
X143604000Y-103124000D01*
X141732000Y-105730500D02*
X141732000Y-104140000D01*
X142240000Y-103632000D02*
X143096000Y-103632000D01*
D21*
%TO.N,GND*%
X147828000Y-112268000D02*
X147828000Y-109342000D01*
D22*
%TO.N,+BATT*%
X145928000Y-112268000D02*
X145928000Y-110301500D01*
X145928000Y-110301500D02*
X144968000Y-109341500D01*
X147575782Y-115062000D02*
X145928000Y-113414218D01*
X145928000Y-113414218D02*
X145928000Y-112268000D01*
D21*
%TO.N,+3V3*%
X143068000Y-109341500D02*
X140462000Y-106735500D01*
X140462000Y-106735500D02*
X140462000Y-103378000D01*
X140462000Y-103378000D02*
X142783600Y-101056400D01*
X142783600Y-101056400D02*
X148675900Y-101056400D01*
X161290000Y-123952000D02*
X162551900Y-122690100D01*
X162551900Y-122690100D02*
X162551900Y-44488082D01*
X162551900Y-44488082D02*
X161627818Y-43564000D01*
X159890000Y-43564000D02*
X158750000Y-44704000D01*
X161627818Y-43564000D02*
X159890000Y-43564000D01*
X143068000Y-109341500D02*
X143068000Y-109286000D01*
X161360000Y-34798000D02*
X161360000Y-36249900D01*
X156718000Y-43972400D02*
X157448100Y-44702500D01*
X161360000Y-36249900D02*
X156718000Y-40891900D01*
X156718000Y-40891900D02*
X156718000Y-43972400D01*
X148675900Y-101056400D02*
X148675900Y-77078100D01*
X148675900Y-77078100D02*
X156718000Y-69036000D01*
X156718000Y-45434100D02*
X157448100Y-44704000D01*
X156718000Y-69036000D02*
X156718000Y-45434100D01*
X150876000Y-103256500D02*
X148675900Y-101056400D01*
D23*
X157448100Y-44704000D02*
X157449600Y-44704000D01*
D21*
X150876000Y-103256500D02*
X150876000Y-107188000D01*
D23*
X150876000Y-107188000D02*
X150622000Y-107442000D01*
D21*
X147828000Y-107442000D02*
X150622000Y-107442000D01*
D23*
X150622000Y-103510500D02*
X150876000Y-103256500D01*
D20*
%TO.N,Net-(Regulator1-BST)*%
X143068000Y-107066500D02*
X141732000Y-105730500D01*
%TO.N,Net-(Regulator1-SW)*%
X147743500Y-103124000D02*
X147876000Y-103256500D01*
D23*
%TO.N,/SCK*%
X140970000Y-62484000D02*
X142271900Y-62484000D01*
X149054400Y-55701500D02*
X149054400Y-33717300D01*
X149054400Y-33717300D02*
X149444000Y-33327700D01*
X142271900Y-62484000D02*
X149054400Y-55701500D01*
X142872300Y-72968100D02*
X142872300Y-99631300D01*
X149444000Y-33327700D02*
X155355100Y-33327700D01*
X155355100Y-33327700D02*
X155650000Y-33622600D01*
X139446000Y-107188000D02*
X141668500Y-109410500D01*
X155650000Y-60190400D02*
X142872300Y-72968100D01*
X139446000Y-103057600D02*
X139446000Y-107188000D01*
X155650000Y-33622600D02*
X155650000Y-60190400D01*
X142872300Y-99631300D02*
X139446000Y-103057600D01*
X141668500Y-109410500D02*
X141668500Y-110356800D01*
X141668500Y-110356800D02*
X147845700Y-116534000D01*
X147845700Y-116534000D02*
X148792000Y-116534000D01*
X148792000Y-116534000D02*
X156210000Y-123952000D01*
D22*
%TO.N,+BATT*%
X144968000Y-109341500D02*
X144043000Y-109341500D01*
X155194000Y-115062000D02*
X147575782Y-115062000D01*
D21*
%TO.N,GND*%
X140970000Y-47244000D02*
X142748000Y-47244000D01*
X157734000Y-34798000D02*
X157734000Y-36830000D01*
X145552000Y-107066000D02*
X147828000Y-109342000D01*
X147828000Y-109342000D02*
X150622000Y-109342000D01*
X146812000Y-34798000D02*
X146812000Y-36830000D01*
D23*
X144968500Y-107066000D02*
X144968000Y-107066500D01*
D21*
X155194000Y-118110000D02*
X152908000Y-118110000D01*
X150622000Y-109342000D02*
X150622000Y-110490000D01*
X144968000Y-107066000D02*
X144968500Y-107066000D01*
X158750000Y-123952000D02*
X158750000Y-125984000D01*
X144968500Y-107066000D02*
X145552000Y-107066000D01*
%TO.N,+3V3*%
X158750000Y-44704000D02*
X157449600Y-44704000D01*
D23*
X157448100Y-44702500D02*
X157449600Y-44704000D01*
%TO.N,/PWM_A*%
X158750000Y-82804000D02*
X157448100Y-82804000D01*
X155194000Y-85058100D02*
X157448100Y-82804000D01*
X155194000Y-99822000D02*
X155194000Y-85058100D01*
%TO.N,/PWM_B*%
X153742100Y-101009100D02*
X154151100Y-101418100D01*
X157448100Y-80264000D02*
X153742100Y-83970000D01*
X155194000Y-102870000D02*
X155194000Y-101418100D01*
X158750000Y-80264000D02*
X157448100Y-80264000D01*
X154151100Y-101418100D02*
X155194000Y-101418100D01*
X153742100Y-83970000D02*
X153742100Y-101009100D01*
%TO.N,/PWM_C*%
X155194000Y-105918000D02*
X155194000Y-104466100D01*
X153127300Y-103485600D02*
X153127300Y-82044800D01*
X155194000Y-104466100D02*
X154107800Y-104466100D01*
X153127300Y-82044800D02*
X157448100Y-77724000D01*
X154107800Y-104466100D02*
X153127300Y-103485600D01*
X158750000Y-77724000D02*
X157448100Y-77724000D01*
%TO.N,/PWM_D*%
X152525400Y-105931700D02*
X152525400Y-80106700D01*
X158750000Y-75184000D02*
X157448100Y-75184000D01*
X155194000Y-107514100D02*
X154107800Y-107514100D01*
X155194000Y-108966000D02*
X155194000Y-107514100D01*
X152525400Y-80106700D02*
X157448100Y-75184000D01*
X154107800Y-107514100D02*
X152525400Y-105931700D01*
%TO.N,/TE*%
X161851900Y-70104000D02*
X161851900Y-104993100D01*
X158750000Y-70104000D02*
X161851900Y-70104000D01*
X155194000Y-112014000D02*
X155194000Y-110562100D01*
X156282900Y-110562100D02*
X155194000Y-110562100D01*
X161851900Y-104993100D02*
X156282900Y-110562100D01*
%TO.N,/MOSI*%
X153670000Y-123952000D02*
X153670000Y-122650100D01*
X153100400Y-122650100D02*
X137868100Y-107417800D01*
X153670000Y-122650100D02*
X153100400Y-122650100D01*
X137868100Y-107417800D02*
X137868100Y-65024000D01*
X140970000Y-65024000D02*
X137868100Y-65024000D01*
%TO.N,/MISO*%
X137868100Y-54864000D02*
X136664300Y-56067800D01*
X136664300Y-124041400D02*
X137878600Y-125255700D01*
X137878600Y-125255700D02*
X144746300Y-125255700D01*
X144746300Y-125255700D02*
X146050000Y-123952000D01*
X140970000Y-54864000D02*
X137868100Y-54864000D01*
X136664300Y-56067800D02*
X136664300Y-124041400D01*
%TO.N,/CS*%
X137868100Y-57404000D02*
X137266200Y-58005900D01*
X137266200Y-118946300D02*
X140970000Y-122650100D01*
X140970000Y-123952000D02*
X140970000Y-122650100D01*
X137266200Y-58005900D02*
X137266200Y-118946300D01*
X140970000Y-57404000D02*
X137868100Y-57404000D01*
%TO.N,/RX*%
X154178000Y-58197900D02*
X142271900Y-70104000D01*
X154178000Y-36249900D02*
X154178000Y-58197900D01*
X140970000Y-70104000D02*
X142271900Y-70104000D01*
X154178000Y-34798000D02*
X154178000Y-36249900D01*
%TO.N,/TX*%
X150622000Y-34798000D02*
X150622000Y-59213900D01*
X150622000Y-59213900D02*
X142271900Y-67564000D01*
X140970000Y-67564000D02*
X142271900Y-67564000D01*
%TO.N,Net-(U1-GPIO0)*%
X137868100Y-36121900D02*
X139192000Y-34798000D01*
X140970000Y-42164000D02*
X137868100Y-42164000D01*
X137868100Y-42164000D02*
X137868100Y-36121900D01*
%TO.N,Net-(U1-GPIO1)*%
X140970000Y-44704000D02*
X142271900Y-44704000D01*
X142271900Y-35528100D02*
X143002000Y-34798000D01*
X142271900Y-44704000D02*
X142271900Y-35528100D01*
%TD*%
M02*
