M48
; DRILL file {KiCad 7.0.8} date 2024 February 25, Sunday 19:39:42
; FORMAT={-:-/ absolute / metric / decimal}
; #@! TF.CreationDate,2024-02-25T19:39:42-05:00
; #@! TF.GenerationSoftware,Kicad,Pcbnew,7.0.8
; #@! TF.FileFunction,MixedPlating,1,2
FMAT,2
METRIC
; #@! TA.AperFunction,Plated,PTH,ViaDrill
T1C0.400
; #@! TA.AperFunction,Plated,PTH,ComponentDrill
T2C1.000
; #@! TA.AperFunction,Plated,PTH,ComponentDrill
T3C1.020
; #@! TA.AperFunction,NonPlated,NPTH,ComponentDrill
T4C2.200
%
G90
G05
T1
X142.748Y-47.244
X146.812Y-36.83
X150.622Y-110.49
X152.908Y-118.11
X157.734Y-36.83
X158.75Y-125.984
T2
X138.43Y-123.952
X140.97Y-123.952
X143.51Y-123.952
X146.05Y-123.952
X148.59Y-123.952
X151.13Y-123.952
X153.67Y-123.952
X156.21Y-123.952
X158.75Y-123.952
X161.29Y-123.952
T3
X140.97Y-42.164
X140.97Y-44.704
X140.97Y-47.244
X140.97Y-49.784
X140.97Y-52.324
X140.97Y-54.864
X140.97Y-57.404
X140.97Y-59.944
X140.97Y-62.484
X140.97Y-65.024
X140.97Y-67.564
X140.97Y-70.104
X140.97Y-72.644
X140.97Y-75.184
X140.97Y-77.724
X140.97Y-80.264
X140.97Y-82.804
X140.97Y-85.344
X140.97Y-87.884
X140.97Y-90.424
X158.75Y-42.164
X158.75Y-44.704
X158.75Y-47.244
X158.75Y-49.784
X158.75Y-52.324
X158.75Y-54.864
X158.75Y-57.404
X158.75Y-59.944
X158.75Y-62.484
X158.75Y-65.024
X158.75Y-67.564
X158.75Y-70.104
X158.75Y-72.644
X158.75Y-75.184
X158.75Y-77.724
X158.75Y-80.264
X158.75Y-82.804
X158.75Y-85.344
X158.75Y-87.884
X158.75Y-90.424
T4
X139.86Y-96.04
X139.86Y-116.04
X159.86Y-96.04
X159.86Y-116.04
T0
M30
